<mxfile host="app.diagrams.net" agent="Mozilla/5.0 (Windows NT 10.0; Win64; x64) AppleWebKit/537.36 (KHTML, like Gecko) Chrome/131.0.0.0 Safari/537.36 Edg/131.0.0.0" version="26.0.1">
  <diagram name="Sayfa -1" id="XudPvXN6aClN50eenVBM">
    <mxGraphModel grid="1" page="1" gridSize="10" guides="1" tooltips="1" connect="1" arrows="1" fold="1" pageScale="1" pageWidth="2336" pageHeight="1654" math="0" shadow="0">
      <root>
        <mxCell id="0" />
        <mxCell id="1" parent="0" />
        <mxCell id="5CA3MVBMeVVRLOGD6PGF-1" value="&lt;b&gt;USER&lt;/b&gt;" style="rounded=0;whiteSpace=wrap;html=1;strokeWidth=2;fillColor=#B2C9AB;strokeColor=#788AA3;labelBackgroundColor=none;fontColor=#46495D;" vertex="1" parent="1">
          <mxGeometry x="1090" y="480" width="140" height="70" as="geometry" />
        </mxCell>
        <mxCell id="5CA3MVBMeVVRLOGD6PGF-11" value="" style="endArrow=none;html=1;rounded=0;entryX=0.346;entryY=1.001;entryDx=0;entryDy=0;entryPerimeter=0;fillColor=#B2C9AB;strokeColor=#788AA3;labelBackgroundColor=none;fontColor=default;" edge="1" parent="1">
          <mxGeometry width="50" height="50" relative="1" as="geometry">
            <mxPoint x="1150" y="610" as="sourcePoint" />
            <mxPoint x="1154.6" y="550.0600000000002" as="targetPoint" />
          </mxGeometry>
        </mxCell>
        <mxCell id="5CA3MVBMeVVRLOGD6PGF-12" value="" style="endArrow=none;html=1;rounded=0;exitX=1;exitY=0;exitDx=0;exitDy=0;entryX=0.5;entryY=1;entryDx=0;entryDy=0;fillColor=#B2C9AB;strokeColor=#788AA3;labelBackgroundColor=none;fontColor=default;" edge="1" parent="1" source="5CA3MVBMeVVRLOGD6PGF-13">
          <mxGeometry width="50" height="50" relative="1" as="geometry">
            <mxPoint x="1170" y="600" as="sourcePoint" />
            <mxPoint x="1170" y="550" as="targetPoint" />
          </mxGeometry>
        </mxCell>
        <mxCell id="5CA3MVBMeVVRLOGD6PGF-13" value="d" style="ellipse;whiteSpace=wrap;html=1;aspect=fixed;fillColor=#B2C9AB;strokeColor=#788AA3;labelBackgroundColor=none;fontColor=#46495D;" vertex="1" parent="1">
          <mxGeometry x="1140" y="600" width="30" height="30" as="geometry" />
        </mxCell>
        <mxCell id="5CA3MVBMeVVRLOGD6PGF-14" value="Standart" style="rounded=0;whiteSpace=wrap;html=1;fillColor=#B2C9AB;strokeColor=#788AA3;labelBackgroundColor=none;fontColor=#46495D;" vertex="1" parent="1">
          <mxGeometry x="1220" y="650" width="60" height="30" as="geometry" />
        </mxCell>
        <mxCell id="5CA3MVBMeVVRLOGD6PGF-15" value="Elite" style="rounded=0;whiteSpace=wrap;html=1;fillColor=#B2C9AB;strokeColor=#788AA3;labelBackgroundColor=none;fontColor=#46495D;" vertex="1" parent="1">
          <mxGeometry x="1020" y="650" width="70" height="30" as="geometry" />
        </mxCell>
        <mxCell id="5CA3MVBMeVVRLOGD6PGF-16" value="" style="endArrow=none;html=1;rounded=0;entryX=0.5;entryY=0;entryDx=0;entryDy=0;exitX=1;exitY=0.5;exitDx=0;exitDy=0;fillColor=#B2C9AB;strokeColor=#788AA3;labelBackgroundColor=none;fontColor=default;" edge="1" parent="1" source="5CA3MVBMeVVRLOGD6PGF-13" target="5CA3MVBMeVVRLOGD6PGF-14">
          <mxGeometry width="50" height="50" relative="1" as="geometry">
            <mxPoint x="1180" y="630" as="sourcePoint" />
            <mxPoint x="1530" y="320" as="targetPoint" />
          </mxGeometry>
        </mxCell>
        <mxCell id="5CA3MVBMeVVRLOGD6PGF-17" value="" style="endArrow=none;html=1;rounded=0;exitX=0;exitY=0.5;exitDx=0;exitDy=0;entryX=0.5;entryY=0;entryDx=0;entryDy=0;fillColor=#B2C9AB;strokeColor=#788AA3;labelBackgroundColor=none;fontColor=default;" edge="1" parent="1" source="5CA3MVBMeVVRLOGD6PGF-13" target="5CA3MVBMeVVRLOGD6PGF-15">
          <mxGeometry width="50" height="50" relative="1" as="geometry">
            <mxPoint x="1576" y="364" as="sourcePoint" />
            <mxPoint x="1610" y="343.0961276947287" as="targetPoint" />
          </mxGeometry>
        </mxCell>
        <mxCell id="5CA3MVBMeVVRLOGD6PGF-24" value="U" style="ellipse;whiteSpace=wrap;html=1;aspect=fixed;fillColor=#B2C9AB;strokeColor=#788AA3;labelBackgroundColor=none;fontColor=#46495D;" vertex="1" parent="1">
          <mxGeometry x="1130" y="790" width="40" height="40" as="geometry" />
        </mxCell>
        <mxCell id="5CA3MVBMeVVRLOGD6PGF-25" value="" style="endArrow=none;html=1;rounded=0;entryX=0.5;entryY=1;entryDx=0;entryDy=0;exitX=0;exitY=0;exitDx=0;exitDy=0;fillColor=#B2C9AB;strokeColor=#788AA3;labelBackgroundColor=none;fontColor=default;" edge="1" parent="1" source="5CA3MVBMeVVRLOGD6PGF-24" target="5CA3MVBMeVVRLOGD6PGF-15">
          <mxGeometry width="50" height="50" relative="1" as="geometry">
            <mxPoint x="1065" y="760" as="sourcePoint" />
            <mxPoint x="1115" y="710" as="targetPoint" />
          </mxGeometry>
        </mxCell>
        <mxCell id="5CA3MVBMeVVRLOGD6PGF-26" value="" style="endArrow=none;html=1;rounded=0;exitX=1;exitY=0;exitDx=0;exitDy=0;fillColor=#B2C9AB;strokeColor=#788AA3;labelBackgroundColor=none;fontColor=default;" edge="1" parent="1" source="5CA3MVBMeVVRLOGD6PGF-24">
          <mxGeometry width="50" height="50" relative="1" as="geometry">
            <mxPoint x="1200" y="730" as="sourcePoint" />
            <mxPoint x="1250" y="680" as="targetPoint" />
          </mxGeometry>
        </mxCell>
        <mxCell id="5CA3MVBMeVVRLOGD6PGF-27" value="Seller" style="html=1;dashed=0;whiteSpace=wrap;fillColor=#B2C9AB;strokeColor=#788AA3;labelBackgroundColor=none;fontColor=#46495D;" vertex="1" parent="1">
          <mxGeometry x="790" y="890" width="80" height="30" as="geometry" />
        </mxCell>
        <mxCell id="5CA3MVBMeVVRLOGD6PGF-30" value="Buyer" style="html=1;dashed=0;whiteSpace=wrap;fillColor=#B2C9AB;strokeColor=#788AA3;labelBackgroundColor=none;fontColor=#46495D;" vertex="1" parent="1">
          <mxGeometry x="1170" y="920" width="90" height="30" as="geometry" />
        </mxCell>
        <mxCell id="5CA3MVBMeVVRLOGD6PGF-31" value="" style="endArrow=none;html=1;rounded=0;exitX=0.5;exitY=0;exitDx=0;exitDy=0;fillColor=#B2C9AB;strokeColor=#788AA3;labelBackgroundColor=none;fontColor=default;" edge="1" parent="1" source="5CA3MVBMeVVRLOGD6PGF-27">
          <mxGeometry width="50" height="50" relative="1" as="geometry">
            <mxPoint x="860.0000000000002" y="920" as="sourcePoint" />
            <mxPoint x="1130" y="820" as="targetPoint" />
          </mxGeometry>
        </mxCell>
        <mxCell id="5CA3MVBMeVVRLOGD6PGF-33" value="" style="endArrow=none;html=1;rounded=0;entryX=1;entryY=1;entryDx=0;entryDy=0;exitX=0.5;exitY=0;exitDx=0;exitDy=0;fillColor=#B2C9AB;strokeColor=#788AA3;labelBackgroundColor=none;fontColor=default;" edge="1" parent="1" source="5CA3MVBMeVVRLOGD6PGF-30" target="5CA3MVBMeVVRLOGD6PGF-24">
          <mxGeometry width="50" height="50" relative="1" as="geometry">
            <mxPoint x="1200" y="880" as="sourcePoint" />
            <mxPoint x="1200" y="830" as="targetPoint" />
          </mxGeometry>
        </mxCell>
        <mxCell id="5CA3MVBMeVVRLOGD6PGF-36" value="" style="shape=requiredInterface;html=1;verticalLabelPosition=bottom;sketch=0;direction=south;fillColor=#B2C9AB;strokeColor=#788AA3;labelBackgroundColor=none;fontColor=#46495D;" vertex="1" parent="1">
          <mxGeometry x="980" y="840" width="20" height="20" as="geometry" />
        </mxCell>
        <mxCell id="5CA3MVBMeVVRLOGD6PGF-37" value="" style="shape=requiredInterface;html=1;verticalLabelPosition=bottom;sketch=0;direction=south;fillColor=#B2C9AB;strokeColor=#788AA3;labelBackgroundColor=none;fontColor=#46495D;" vertex="1" parent="1">
          <mxGeometry x="1180" y="880" width="30" height="10" as="geometry" />
        </mxCell>
        <mxCell id="5CA3MVBMeVVRLOGD6PGF-43" value="HAS" style="rhombus;whiteSpace=wrap;html=1;fillColor=#B2C9AB;strokeColor=#788AA3;labelBackgroundColor=none;fontColor=#46495D;" vertex="1" parent="1">
          <mxGeometry x="1440" y="790" width="80" height="80" as="geometry" />
        </mxCell>
        <mxCell id="5CA3MVBMeVVRLOGD6PGF-44" value="" style="endArrow=none;html=1;rounded=0;entryX=0;entryY=0.75;entryDx=0;entryDy=0;fillColor=#B2C9AB;strokeColor=#788AA3;labelBackgroundColor=none;fontColor=default;exitX=0.945;exitY=0.443;exitDx=0;exitDy=0;exitPerimeter=0;" edge="1" parent="1" source="5CA3MVBMeVVRLOGD6PGF-43" target="5CA3MVBMeVVRLOGD6PGF-45">
          <mxGeometry width="50" height="50" relative="1" as="geometry">
            <mxPoint x="1520" y="830" as="sourcePoint" />
            <mxPoint x="1630" y="510" as="targetPoint" />
            <Array as="points" />
          </mxGeometry>
        </mxCell>
        <mxCell id="5CA3MVBMeVVRLOGD6PGF-45" value="PAYMENT_METHOD" style="rounded=0;whiteSpace=wrap;html=1;fillColor=#B2C9AB;strokeColor=#788AA3;labelBackgroundColor=none;fontColor=#46495D;" vertex="1" parent="1">
          <mxGeometry x="1690" y="490" width="120" height="60" as="geometry" />
        </mxCell>
        <mxCell id="5CA3MVBMeVVRLOGD6PGF-47" value="" style="endArrow=none;html=1;rounded=0;entryX=0;entryY=1;entryDx=0;entryDy=0;fillColor=#B2C9AB;strokeColor=#788AA3;labelBackgroundColor=none;fontColor=default;" edge="1" parent="1">
          <mxGeometry width="50" height="50" relative="1" as="geometry">
            <mxPoint x="1730.14" y="490" as="sourcePoint" />
            <mxPoint x="1729.997864376269" y="406.1421356237313" as="targetPoint" />
          </mxGeometry>
        </mxCell>
        <mxCell id="5CA3MVBMeVVRLOGD6PGF-48" value="" style="endArrow=none;html=1;rounded=0;entryX=0.755;entryY=0.916;entryDx=0;entryDy=0;exitX=0.5;exitY=0;exitDx=0;exitDy=0;fillColor=#B2C9AB;strokeColor=#788AA3;labelBackgroundColor=none;fontColor=default;entryPerimeter=0;" edge="1" parent="1" source="5CA3MVBMeVVRLOGD6PGF-45" target="5CA3MVBMeVVRLOGD6PGF-425">
          <mxGeometry width="50" height="50" relative="1" as="geometry">
            <mxPoint x="1749.9999999999998" y="486.72000000000014" as="sourcePoint" />
            <mxPoint x="1750.462135623731" y="402.0021356237313" as="targetPoint" />
          </mxGeometry>
        </mxCell>
        <mxCell id="5CA3MVBMeVVRLOGD6PGF-61" value="" style="endArrow=none;html=1;rounded=0;exitX=0.5;exitY=0;exitDx=0;exitDy=0;fillColor=#B2C9AB;strokeColor=#788AA3;labelBackgroundColor=none;fontColor=default;" edge="1" parent="1" source="5CA3MVBMeVVRLOGD6PGF-65">
          <mxGeometry width="50" height="50" relative="1" as="geometry">
            <mxPoint x="830" y="1080" as="sourcePoint" />
            <mxPoint x="830" y="920" as="targetPoint" />
          </mxGeometry>
        </mxCell>
        <mxCell id="5CA3MVBMeVVRLOGD6PGF-62" value="" style="endArrow=none;html=1;rounded=0;exitX=0.25;exitY=0;exitDx=0;exitDy=0;entryX=0.5;entryY=1;entryDx=0;entryDy=0;fillColor=#B2C9AB;strokeColor=#788AA3;labelBackgroundColor=none;fontColor=default;" edge="1" parent="1" source="5CA3MVBMeVVRLOGD6PGF-66" target="5CA3MVBMeVVRLOGD6PGF-65">
          <mxGeometry width="50" height="50" relative="1" as="geometry">
            <mxPoint x="920" y="1270" as="sourcePoint" />
            <mxPoint x="919.47" y="1170" as="targetPoint" />
          </mxGeometry>
        </mxCell>
        <mxCell id="5CA3MVBMeVVRLOGD6PGF-63" value="" style="endArrow=none;html=1;rounded=0;entryX=-0.007;entryY=0.928;entryDx=0;entryDy=0;fillColor=#B2C9AB;strokeColor=#788AA3;labelBackgroundColor=none;fontColor=default;exitX=1;exitY=0.5;exitDx=0;exitDy=0;entryPerimeter=0;" edge="1" parent="1" source="5CA3MVBMeVVRLOGD6PGF-43" target="5CA3MVBMeVVRLOGD6PGF-45">
          <mxGeometry width="50" height="50" relative="1" as="geometry">
            <mxPoint x="1497" y="807" as="sourcePoint" />
            <mxPoint x="1630" y="710" as="targetPoint" />
          </mxGeometry>
        </mxCell>
        <mxCell id="5CA3MVBMeVVRLOGD6PGF-64" value="" style="endArrow=none;html=1;rounded=0;exitX=1;exitY=0.5;exitDx=0;exitDy=0;entryX=0;entryY=0.5;entryDx=0;entryDy=0;fillColor=#B2C9AB;strokeColor=#788AA3;labelBackgroundColor=none;fontColor=default;" edge="1" parent="1" source="5CA3MVBMeVVRLOGD6PGF-30" target="5CA3MVBMeVVRLOGD6PGF-43">
          <mxGeometry width="50" height="50" relative="1" as="geometry">
            <mxPoint x="1400" y="810" as="sourcePoint" />
            <mxPoint x="1450" y="760" as="targetPoint" />
          </mxGeometry>
        </mxCell>
        <mxCell id="5CA3MVBMeVVRLOGD6PGF-65" value="HAS" style="shape=rhombus;double=1;perimeter=rhombusPerimeter;whiteSpace=wrap;html=1;align=center;fillColor=#B2C9AB;strokeColor=#788AA3;labelBackgroundColor=none;fontColor=#46495D;" vertex="1" parent="1">
          <mxGeometry x="780" y="1110" width="120" height="60" as="geometry" />
        </mxCell>
        <mxCell id="5CA3MVBMeVVRLOGD6PGF-66" value="STORE" style="shape=ext;margin=3;double=1;whiteSpace=wrap;html=1;align=center;fillColor=#B2C9AB;strokeColor=#788AA3;labelBackgroundColor=none;fontColor=#46495D;" vertex="1" parent="1">
          <mxGeometry x="900" y="1320" width="100" height="40" as="geometry" />
        </mxCell>
        <mxCell id="5CA3MVBMeVVRLOGD6PGF-67" value="PRODUCT" style="rounded=0;whiteSpace=wrap;html=1;fillColor=#B2C9AB;strokeColor=#788AA3;labelBackgroundColor=none;fontColor=#46495D;" vertex="1" parent="1">
          <mxGeometry x="1410" y="1400" width="120" height="60" as="geometry" />
        </mxCell>
        <mxCell id="5CA3MVBMeVVRLOGD6PGF-68" value="HAS" style="rhombus;whiteSpace=wrap;html=1;fillColor=#B2C9AB;strokeColor=#788AA3;labelBackgroundColor=none;fontColor=#46495D;" vertex="1" parent="1">
          <mxGeometry x="1060" y="1390" width="80" height="80" as="geometry" />
        </mxCell>
        <mxCell id="5CA3MVBMeVVRLOGD6PGF-69" value="" style="endArrow=none;html=1;rounded=0;exitX=1;exitY=0.5;exitDx=0;exitDy=0;entryX=0;entryY=0.5;entryDx=0;entryDy=0;fillColor=#B2C9AB;strokeColor=#788AA3;labelBackgroundColor=none;fontColor=default;" edge="1" parent="1" source="5CA3MVBMeVVRLOGD6PGF-68" target="5CA3MVBMeVVRLOGD6PGF-67">
          <mxGeometry width="50" height="50" relative="1" as="geometry">
            <mxPoint x="1250" y="1280" as="sourcePoint" />
            <mxPoint x="1410" y="1440" as="targetPoint" />
          </mxGeometry>
        </mxCell>
        <mxCell id="5CA3MVBMeVVRLOGD6PGF-70" value="" style="endArrow=none;html=1;rounded=0;exitX=0.994;exitY=0.822;exitDx=0;exitDy=0;entryX=0.066;entryY=0.48;entryDx=0;entryDy=0;fillColor=#B2C9AB;strokeColor=#788AA3;labelBackgroundColor=none;fontColor=default;exitPerimeter=0;entryPerimeter=0;" edge="1" parent="1" source="5CA3MVBMeVVRLOGD6PGF-66" target="5CA3MVBMeVVRLOGD6PGF-68">
          <mxGeometry width="50" height="50" relative="1" as="geometry">
            <mxPoint x="980" y="1370" as="sourcePoint" />
            <mxPoint x="1157.7600000000002" y="1280.8800000000006" as="targetPoint" />
            <Array as="points" />
          </mxGeometry>
        </mxCell>
        <mxCell id="5CA3MVBMeVVRLOGD6PGF-71" value="FOLLOWS" style="rhombus;whiteSpace=wrap;html=1;fillColor=#B2C9AB;strokeColor=#788AA3;labelBackgroundColor=none;fontColor=#46495D;" vertex="1" parent="1">
          <mxGeometry x="1070" y="1070" width="80" height="80" as="geometry" />
        </mxCell>
        <mxCell id="5CA3MVBMeVVRLOGD6PGF-72" value="" style="endArrow=none;html=1;rounded=0;entryX=0.5;entryY=1;entryDx=0;entryDy=0;exitX=1;exitY=0.5;exitDx=0;exitDy=0;fillColor=#B2C9AB;strokeColor=#788AA3;labelBackgroundColor=none;fontColor=default;" edge="1" parent="1" source="5CA3MVBMeVVRLOGD6PGF-71" target="5CA3MVBMeVVRLOGD6PGF-30">
          <mxGeometry width="50" height="50" relative="1" as="geometry">
            <mxPoint x="1150" y="1100" as="sourcePoint" />
            <mxPoint x="1200" y="1050" as="targetPoint" />
          </mxGeometry>
        </mxCell>
        <mxCell id="5CA3MVBMeVVRLOGD6PGF-73" value="" style="endArrow=none;html=1;rounded=0;exitX=0.75;exitY=0;exitDx=0;exitDy=0;fillColor=#B2C9AB;strokeColor=#788AA3;labelBackgroundColor=none;fontColor=default;" edge="1" parent="1" source="5CA3MVBMeVVRLOGD6PGF-66">
          <mxGeometry width="50" height="50" relative="1" as="geometry">
            <mxPoint x="1150" y="1100" as="sourcePoint" />
            <mxPoint x="1070" y="1110" as="targetPoint" />
          </mxGeometry>
        </mxCell>
        <mxCell id="5CA3MVBMeVVRLOGD6PGF-74" value="" style="endArrow=none;html=1;rounded=0;exitX=1;exitY=1;exitDx=0;exitDy=0;entryX=0;entryY=0.5;entryDx=0;entryDy=0;fillColor=#B2C9AB;strokeColor=#788AA3;labelBackgroundColor=none;fontColor=default;" edge="1" parent="1" source="5CA3MVBMeVVRLOGD6PGF-66" target="5CA3MVBMeVVRLOGD6PGF-68">
          <mxGeometry width="50" height="50" relative="1" as="geometry">
            <mxPoint x="1040" y="1390" as="sourcePoint" />
            <mxPoint x="1090" y="1340" as="targetPoint" />
          </mxGeometry>
        </mxCell>
        <mxCell id="5CA3MVBMeVVRLOGD6PGF-78" value="BELONGS_TO" style="rhombus;whiteSpace=wrap;html=1;fillColor=#B2C9AB;strokeColor=#788AA3;labelBackgroundColor=none;fontColor=#46495D;" vertex="1" parent="1">
          <mxGeometry x="1425" y="1530" width="90" height="80" as="geometry" />
        </mxCell>
        <mxCell id="5CA3MVBMeVVRLOGD6PGF-79" value="" style="endArrow=none;html=1;rounded=0;entryX=0.5;entryY=1;entryDx=0;entryDy=0;exitX=0.5;exitY=0;exitDx=0;exitDy=0;labelBackgroundColor=none;strokeColor=#788AA3;fontColor=default;" edge="1" parent="1" source="5CA3MVBMeVVRLOGD6PGF-78" target="5CA3MVBMeVVRLOGD6PGF-67">
          <mxGeometry width="50" height="50" relative="1" as="geometry">
            <mxPoint x="1350" y="1580" as="sourcePoint" />
            <mxPoint x="1400" y="1530" as="targetPoint" />
          </mxGeometry>
        </mxCell>
        <mxCell id="5CA3MVBMeVVRLOGD6PGF-80" value="CATEGORY" style="rounded=0;whiteSpace=wrap;html=1;fillColor=#B2C9AB;strokeColor=#788AA3;labelBackgroundColor=none;fontColor=#46495D;" vertex="1" parent="1">
          <mxGeometry x="1410" y="1650" width="120" height="60" as="geometry" />
        </mxCell>
        <mxCell id="5CA3MVBMeVVRLOGD6PGF-81" value="" style="endArrow=none;html=1;rounded=0;exitX=0.5;exitY=0;exitDx=0;exitDy=0;entryX=0.5;entryY=1;entryDx=0;entryDy=0;labelBackgroundColor=none;strokeColor=#788AA3;fontColor=default;" edge="1" parent="1" source="5CA3MVBMeVVRLOGD6PGF-80" target="5CA3MVBMeVVRLOGD6PGF-78">
          <mxGeometry width="50" height="50" relative="1" as="geometry">
            <mxPoint x="1380" y="1680" as="sourcePoint" />
            <mxPoint x="1430" y="1630" as="targetPoint" />
          </mxGeometry>
        </mxCell>
        <mxCell id="5CA3MVBMeVVRLOGD6PGF-82" value="SUB&lt;div&gt;CATEGORY&lt;/div&gt;" style="rhombus;whiteSpace=wrap;html=1;fillColor=#B2C9AB;strokeColor=#788AA3;labelBackgroundColor=none;fontColor=#46495D;" vertex="1" parent="1">
          <mxGeometry x="1435" y="1760" width="80" height="80" as="geometry" />
        </mxCell>
        <mxCell id="5CA3MVBMeVVRLOGD6PGF-83" value="" style="endArrow=none;html=1;rounded=0;exitX=0;exitY=1;exitDx=0;exitDy=0;entryX=0;entryY=0.5;entryDx=0;entryDy=0;labelBackgroundColor=none;strokeColor=#788AA3;fontColor=default;" edge="1" parent="1" source="5CA3MVBMeVVRLOGD6PGF-80" target="5CA3MVBMeVVRLOGD6PGF-82">
          <mxGeometry width="50" height="50" relative="1" as="geometry">
            <mxPoint x="1450" y="2080" as="sourcePoint" />
            <mxPoint x="1430" y="1790" as="targetPoint" />
          </mxGeometry>
        </mxCell>
        <mxCell id="5CA3MVBMeVVRLOGD6PGF-84" value="" style="endArrow=none;html=1;rounded=0;entryX=1;entryY=0.5;entryDx=0;entryDy=0;exitX=1;exitY=1;exitDx=0;exitDy=0;labelBackgroundColor=none;strokeColor=#788AA3;fontColor=default;" edge="1" parent="1" source="5CA3MVBMeVVRLOGD6PGF-80" target="5CA3MVBMeVVRLOGD6PGF-82">
          <mxGeometry width="50" height="50" relative="1" as="geometry">
            <mxPoint x="1500" y="2080" as="sourcePoint" />
            <mxPoint x="1420" y="1840" as="targetPoint" />
          </mxGeometry>
        </mxCell>
        <mxCell id="5CA3MVBMeVVRLOGD6PGF-106" value="" style="endArrow=none;html=1;rounded=0;entryX=1;entryY=0.75;entryDx=0;entryDy=0;exitX=0;exitY=0;exitDx=0;exitDy=0;fillColor=#B2C9AB;strokeColor=#788AA3;labelBackgroundColor=none;fontColor=default;" edge="1" parent="1" source="5CA3MVBMeVVRLOGD6PGF-107" target="5CA3MVBMeVVRLOGD6PGF-30">
          <mxGeometry width="50" height="50" relative="1" as="geometry">
            <mxPoint x="1710" y="1070" as="sourcePoint" />
            <mxPoint x="1440" y="1150" as="targetPoint" />
          </mxGeometry>
        </mxCell>
        <mxCell id="5CA3MVBMeVVRLOGD6PGF-107" value="OWNS" style="shape=rhombus;double=1;perimeter=rhombusPerimeter;whiteSpace=wrap;html=1;align=center;fillColor=#B2C9AB;strokeColor=#788AA3;labelBackgroundColor=none;fontColor=#46495D;" vertex="1" parent="1">
          <mxGeometry x="1540" y="1110" width="120" height="60" as="geometry" />
        </mxCell>
        <mxCell id="5CA3MVBMeVVRLOGD6PGF-109" value="" style="endArrow=none;html=1;rounded=0;entryX=1;entryY=1;entryDx=0;entryDy=0;exitX=0.5;exitY=0;exitDx=0;exitDy=0;fillColor=#B2C9AB;strokeColor=#788AA3;labelBackgroundColor=none;fontColor=default;" edge="1" parent="1" target="5CA3MVBMeVVRLOGD6PGF-107">
          <mxGeometry width="50" height="50" relative="1" as="geometry">
            <mxPoint x="1690" y="1220" as="sourcePoint" />
            <mxPoint x="1780" y="1140" as="targetPoint" />
          </mxGeometry>
        </mxCell>
        <mxCell id="5CA3MVBMeVVRLOGD6PGF-110" value="CART_ITEM" style="shape=ext;margin=3;double=1;whiteSpace=wrap;html=1;align=center;fillColor=#B2C9AB;strokeColor=#788AA3;labelBackgroundColor=none;fontColor=#46495D;" vertex="1" parent="1">
          <mxGeometry x="1850" y="1435" width="100" height="40" as="geometry" />
        </mxCell>
        <mxCell id="5CA3MVBMeVVRLOGD6PGF-111" value="HAS" style="rhombus;whiteSpace=wrap;html=1;fillColor=#B2C9AB;strokeColor=#788AA3;labelBackgroundColor=none;fontColor=#46495D;" vertex="1" parent="1">
          <mxGeometry x="1750" y="1310" width="80" height="60" as="geometry" />
        </mxCell>
        <mxCell id="5CA3MVBMeVVRLOGD6PGF-112" value="" style="endArrow=none;html=1;rounded=0;entryX=0.5;entryY=1;entryDx=0;entryDy=0;exitX=0;exitY=0.5;exitDx=0;exitDy=0;labelBackgroundColor=none;strokeColor=#788AA3;fontColor=default;" edge="1" parent="1" source="5CA3MVBMeVVRLOGD6PGF-111">
          <mxGeometry width="50" height="50" relative="1" as="geometry">
            <mxPoint x="1640" y="1310" as="sourcePoint" />
            <mxPoint x="1690" y="1260" as="targetPoint" />
          </mxGeometry>
        </mxCell>
        <mxCell id="5CA3MVBMeVVRLOGD6PGF-113" value="" style="endArrow=none;html=1;rounded=0;entryX=1;entryY=0.5;entryDx=0;entryDy=0;exitX=0.5;exitY=0;exitDx=0;exitDy=0;labelBackgroundColor=none;strokeColor=#788AA3;fontColor=default;" edge="1" parent="1" source="5CA3MVBMeVVRLOGD6PGF-110" target="5CA3MVBMeVVRLOGD6PGF-111">
          <mxGeometry width="50" height="50" relative="1" as="geometry">
            <mxPoint x="1640" y="1310" as="sourcePoint" />
            <mxPoint x="1690" y="1260" as="targetPoint" />
          </mxGeometry>
        </mxCell>
        <mxCell id="5CA3MVBMeVVRLOGD6PGF-114" value="BELONGS_&lt;div&gt;TO&lt;/div&gt;" style="rhombus;whiteSpace=wrap;html=1;fillColor=#B2C9AB;strokeColor=#788AA3;labelBackgroundColor=none;fontColor=#46495D;" vertex="1" parent="1">
          <mxGeometry x="1580" y="1390" width="80" height="80" as="geometry" />
        </mxCell>
        <mxCell id="5CA3MVBMeVVRLOGD6PGF-115" value="" style="endArrow=none;html=1;rounded=0;exitX=1;exitY=0.5;exitDx=0;exitDy=0;entryX=0;entryY=0.5;entryDx=0;entryDy=0;labelBackgroundColor=none;strokeColor=#788AA3;fontColor=default;" edge="1" parent="1" source="5CA3MVBMeVVRLOGD6PGF-67" target="5CA3MVBMeVVRLOGD6PGF-114">
          <mxGeometry width="50" height="50" relative="1" as="geometry">
            <mxPoint x="1630" y="1390" as="sourcePoint" />
            <mxPoint x="1680" y="1340" as="targetPoint" />
          </mxGeometry>
        </mxCell>
        <mxCell id="5CA3MVBMeVVRLOGD6PGF-116" value="" style="endArrow=none;html=1;rounded=0;entryX=-0.016;entryY=0.627;entryDx=0;entryDy=0;exitX=0.916;exitY=0.423;exitDx=0;exitDy=0;exitPerimeter=0;labelBackgroundColor=none;strokeColor=#788AA3;fontColor=default;entryPerimeter=0;" edge="1" parent="1" source="5CA3MVBMeVVRLOGD6PGF-114" target="5CA3MVBMeVVRLOGD6PGF-110">
          <mxGeometry width="50" height="50" relative="1" as="geometry">
            <mxPoint x="1630" y="1390" as="sourcePoint" />
            <mxPoint x="1680" y="1340" as="targetPoint" />
          </mxGeometry>
        </mxCell>
        <mxCell id="5CA3MVBMeVVRLOGD6PGF-117" value="" style="endArrow=none;html=1;rounded=0;entryX=0;entryY=0.75;entryDx=0;entryDy=0;exitX=1;exitY=0.5;exitDx=0;exitDy=0;labelBackgroundColor=none;strokeColor=#788AA3;fontColor=default;" edge="1" parent="1" source="5CA3MVBMeVVRLOGD6PGF-114" target="5CA3MVBMeVVRLOGD6PGF-110">
          <mxGeometry width="50" height="50" relative="1" as="geometry">
            <mxPoint x="1710" y="1465" as="sourcePoint" />
            <mxPoint x="1680" y="1340" as="targetPoint" />
          </mxGeometry>
        </mxCell>
        <mxCell id="5CA3MVBMeVVRLOGD6PGF-118" value="" style="endArrow=none;html=1;rounded=0;labelBackgroundColor=none;strokeColor=#788AA3;fontColor=default;exitX=0;exitY=0.5;exitDx=0;exitDy=0;" edge="1" parent="1" source="5CA3MVBMeVVRLOGD6PGF-119">
          <mxGeometry width="50" height="50" relative="1" as="geometry">
            <mxPoint x="1710" y="1050" as="sourcePoint" />
            <mxPoint x="1260" y="940" as="targetPoint" />
          </mxGeometry>
        </mxCell>
        <mxCell id="5CA3MVBMeVVRLOGD6PGF-119" value="Places" style="shape=rhombus;double=1;perimeter=rhombusPerimeter;whiteSpace=wrap;html=1;align=center;fillColor=#B2C9AB;strokeColor=#788AA3;labelBackgroundColor=none;fontColor=#46495D;" vertex="1" parent="1">
          <mxGeometry x="1680" y="1030" width="120" height="60" as="geometry" />
        </mxCell>
        <mxCell id="5CA3MVBMeVVRLOGD6PGF-120" value="ORDER" style="shape=ext;margin=3;double=1;whiteSpace=wrap;html=1;align=center;fillColor=#B2C9AB;strokeColor=#788AA3;labelBackgroundColor=none;fontColor=#46495D;" vertex="1" parent="1">
          <mxGeometry x="2060" y="1280" width="100" height="40" as="geometry" />
        </mxCell>
        <mxCell id="5CA3MVBMeVVRLOGD6PGF-121" value="" style="endArrow=none;html=1;rounded=0;exitX=0.954;exitY=0.538;exitDx=0;exitDy=0;entryX=0.25;entryY=0;entryDx=0;entryDy=0;labelBackgroundColor=none;strokeColor=#788AA3;fontColor=default;exitPerimeter=0;" edge="1" parent="1" source="5CA3MVBMeVVRLOGD6PGF-119" target="5CA3MVBMeVVRLOGD6PGF-120">
          <mxGeometry width="50" height="50" relative="1" as="geometry">
            <mxPoint x="1750" y="1400" as="sourcePoint" />
            <mxPoint x="1800" y="1350" as="targetPoint" />
          </mxGeometry>
        </mxCell>
        <mxCell id="5CA3MVBMeVVRLOGD6PGF-122" value="CONTAINS" style="shape=rhombus;double=1;perimeter=rhombusPerimeter;whiteSpace=wrap;html=1;align=center;fillColor=#B2C9AB;strokeColor=#788AA3;labelBackgroundColor=none;fontColor=#46495D;" vertex="1" parent="1">
          <mxGeometry x="1870" y="1590" width="120" height="60" as="geometry" />
        </mxCell>
        <mxCell id="5CA3MVBMeVVRLOGD6PGF-123" value="" style="endArrow=none;html=1;rounded=0;entryX=0.5;entryY=1;entryDx=0;entryDy=0;exitX=0.941;exitY=0.472;exitDx=0;exitDy=0;labelBackgroundColor=none;strokeColor=#788AA3;fontColor=default;exitPerimeter=0;" edge="1" parent="1" source="5CA3MVBMeVVRLOGD6PGF-122" target="5CA3MVBMeVVRLOGD6PGF-120">
          <mxGeometry width="50" height="50" relative="1" as="geometry">
            <mxPoint x="1750" y="1400" as="sourcePoint" />
            <mxPoint x="1800" y="1350" as="targetPoint" />
          </mxGeometry>
        </mxCell>
        <mxCell id="5CA3MVBMeVVRLOGD6PGF-124" value="" style="endArrow=none;html=1;rounded=0;exitX=0.75;exitY=1;exitDx=0;exitDy=0;entryX=0;entryY=0.5;entryDx=0;entryDy=0;labelBackgroundColor=none;strokeColor=#788AA3;fontColor=default;" edge="1" parent="1" source="5CA3MVBMeVVRLOGD6PGF-67" target="5CA3MVBMeVVRLOGD6PGF-122">
          <mxGeometry width="50" height="50" relative="1" as="geometry">
            <mxPoint x="1750" y="1400" as="sourcePoint" />
            <mxPoint x="1800" y="1350" as="targetPoint" />
          </mxGeometry>
        </mxCell>
        <mxCell id="5CA3MVBMeVVRLOGD6PGF-125" value="" style="endArrow=none;html=1;rounded=0;exitX=0.411;exitY=0.046;exitDx=0;exitDy=0;exitPerimeter=0;entryX=1;entryY=0.5;entryDx=0;entryDy=0;labelBackgroundColor=none;strokeColor=#788AA3;fontColor=default;" edge="1" parent="1" source="5CA3MVBMeVVRLOGD6PGF-120" target="5CA3MVBMeVVRLOGD6PGF-119">
          <mxGeometry width="50" height="50" relative="1" as="geometry">
            <mxPoint x="2100" y="1270" as="sourcePoint" />
            <mxPoint x="1780" y="1060" as="targetPoint" />
          </mxGeometry>
        </mxCell>
        <mxCell id="5CA3MVBMeVVRLOGD6PGF-126" value="" style="endArrow=none;html=1;rounded=0;entryX=0.591;entryY=1.021;entryDx=0;entryDy=0;labelBackgroundColor=none;strokeColor=#788AA3;fontColor=default;entryPerimeter=0;" edge="1" parent="1" target="5CA3MVBMeVVRLOGD6PGF-120">
          <mxGeometry width="50" height="50" relative="1" as="geometry">
            <mxPoint x="1990" y="1620" as="sourcePoint" />
            <mxPoint x="1940" y="1420" as="targetPoint" />
          </mxGeometry>
        </mxCell>
        <mxCell id="5CA3MVBMeVVRLOGD6PGF-127" value="PAID_BY" style="rhombus;whiteSpace=wrap;html=1;fillColor=#B2C9AB;strokeColor=#788AA3;labelBackgroundColor=none;fontColor=#46495D;" vertex="1" parent="1">
          <mxGeometry x="1930" y="705" width="80" height="80" as="geometry" />
        </mxCell>
        <mxCell id="5CA3MVBMeVVRLOGD6PGF-128" value="" style="endArrow=none;html=1;rounded=0;entryX=0.5;entryY=1;entryDx=0;entryDy=0;exitX=0.59;exitY=-0.018;exitDx=0;exitDy=0;labelBackgroundColor=none;strokeColor=#788AA3;fontColor=default;exitPerimeter=0;" edge="1" parent="1" source="5CA3MVBMeVVRLOGD6PGF-120" target="5CA3MVBMeVVRLOGD6PGF-127">
          <mxGeometry width="50" height="50" relative="1" as="geometry">
            <mxPoint x="1810" y="1090" as="sourcePoint" />
            <mxPoint x="1860" y="1040" as="targetPoint" />
          </mxGeometry>
        </mxCell>
        <mxCell id="5CA3MVBMeVVRLOGD6PGF-129" value="" style="endArrow=none;html=1;rounded=0;exitX=0.654;exitY=0.046;exitDx=0;exitDy=0;exitPerimeter=0;labelBackgroundColor=none;strokeColor=#788AA3;fontColor=default;entryX=0.567;entryY=0.936;entryDx=0;entryDy=0;entryPerimeter=0;" edge="1" parent="1" source="5CA3MVBMeVVRLOGD6PGF-120" target="5CA3MVBMeVVRLOGD6PGF-127">
          <mxGeometry width="50" height="50" relative="1" as="geometry">
            <mxPoint x="1810" y="1090" as="sourcePoint" />
            <mxPoint x="2060" y="820" as="targetPoint" />
          </mxGeometry>
        </mxCell>
        <mxCell id="5CA3MVBMeVVRLOGD6PGF-130" value="" style="endArrow=none;html=1;rounded=0;entryX=1;entryY=0.75;entryDx=0;entryDy=0;exitX=0.5;exitY=0;exitDx=0;exitDy=0;labelBackgroundColor=none;strokeColor=#788AA3;fontColor=default;" edge="1" parent="1" source="5CA3MVBMeVVRLOGD6PGF-127" target="5CA3MVBMeVVRLOGD6PGF-45">
          <mxGeometry width="50" height="50" relative="1" as="geometry">
            <mxPoint x="1810" y="1090" as="sourcePoint" />
            <mxPoint x="1860" y="1040" as="targetPoint" />
          </mxGeometry>
        </mxCell>
        <mxCell id="5CA3MVBMeVVRLOGD6PGF-131" value="BELONGS_&lt;div&gt;TO&lt;/div&gt;" style="rhombus;whiteSpace=wrap;html=1;fillColor=#B2C9AB;strokeColor=#788AA3;labelBackgroundColor=none;fontColor=#46495D;" vertex="1" parent="1">
          <mxGeometry x="1860" y="1230" width="80" height="80" as="geometry" />
        </mxCell>
        <mxCell id="5CA3MVBMeVVRLOGD6PGF-132" value="" style="endArrow=none;html=1;rounded=0;entryX=0;entryY=0.5;entryDx=0;entryDy=0;exitX=1;exitY=0.5;exitDx=0;exitDy=0;labelBackgroundColor=none;strokeColor=#788AA3;fontColor=default;" edge="1" parent="1" target="5CA3MVBMeVVRLOGD6PGF-131">
          <mxGeometry width="50" height="50" relative="1" as="geometry">
            <mxPoint x="1740" y="1240" as="sourcePoint" />
            <mxPoint x="1770" y="1150" as="targetPoint" />
          </mxGeometry>
        </mxCell>
        <mxCell id="5CA3MVBMeVVRLOGD6PGF-133" value="" style="endArrow=none;html=1;rounded=0;exitX=0.935;exitY=0.452;exitDx=0;exitDy=0;labelBackgroundColor=none;strokeColor=#788AA3;fontColor=default;exitPerimeter=0;entryX=0.013;entryY=0.627;entryDx=0;entryDy=0;entryPerimeter=0;" edge="1" parent="1" source="5CA3MVBMeVVRLOGD6PGF-131" target="5CA3MVBMeVVRLOGD6PGF-120">
          <mxGeometry width="50" height="50" relative="1" as="geometry">
            <mxPoint x="1720" y="1200" as="sourcePoint" />
            <mxPoint x="2060" y="1300" as="targetPoint" />
          </mxGeometry>
        </mxCell>
        <mxCell id="5CA3MVBMeVVRLOGD6PGF-134" value="" style="endArrow=none;html=1;rounded=0;entryX=0;entryY=0.75;entryDx=0;entryDy=0;exitX=1;exitY=0.5;exitDx=0;exitDy=0;labelBackgroundColor=none;strokeColor=#788AA3;fontColor=default;" edge="1" parent="1" source="5CA3MVBMeVVRLOGD6PGF-131" target="5CA3MVBMeVVRLOGD6PGF-120">
          <mxGeometry width="50" height="50" relative="1" as="geometry">
            <mxPoint x="1930" y="1270" as="sourcePoint" />
            <mxPoint x="1770" y="1150" as="targetPoint" />
          </mxGeometry>
        </mxCell>
        <mxCell id="5CA3MVBMeVVRLOGD6PGF-135" value="HAS" style="shape=rhombus;double=1;perimeter=rhombusPerimeter;whiteSpace=wrap;html=1;align=center;fillColor=#B2C9AB;strokeColor=#788AA3;labelBackgroundColor=none;fontColor=#46495D;" vertex="1" parent="1">
          <mxGeometry x="2250" y="1440" width="120" height="60" as="geometry" />
        </mxCell>
        <mxCell id="5CA3MVBMeVVRLOGD6PGF-136" value="" style="endArrow=none;html=1;rounded=0;entryX=1;entryY=1;entryDx=0;entryDy=0;exitX=0.5;exitY=0;exitDx=0;exitDy=0;labelBackgroundColor=none;strokeColor=#788AA3;fontColor=default;" edge="1" parent="1" source="5CA3MVBMeVVRLOGD6PGF-135" target="5CA3MVBMeVVRLOGD6PGF-120">
          <mxGeometry width="50" height="50" relative="1" as="geometry">
            <mxPoint x="2090" y="1500" as="sourcePoint" />
            <mxPoint x="2140" y="1450" as="targetPoint" />
          </mxGeometry>
        </mxCell>
        <mxCell id="5CA3MVBMeVVRLOGD6PGF-137" value="" style="endArrow=none;html=1;rounded=0;entryX=0.5;entryY=1;entryDx=0;entryDy=0;labelBackgroundColor=none;strokeColor=#788AA3;fontColor=default;" edge="1" parent="1" target="5CA3MVBMeVVRLOGD6PGF-135">
          <mxGeometry width="50" height="50" relative="1" as="geometry">
            <mxPoint x="2310" y="1640" as="sourcePoint" />
            <mxPoint x="2260" y="1530" as="targetPoint" />
          </mxGeometry>
        </mxCell>
        <mxCell id="5CA3MVBMeVVRLOGD6PGF-138" value="SHIPMENT" style="shape=ext;margin=3;double=1;whiteSpace=wrap;html=1;align=center;fillColor=#B2C9AB;strokeColor=#788AA3;labelBackgroundColor=none;fontColor=#46495D;" vertex="1" parent="1">
          <mxGeometry x="2260" y="1640" width="100" height="40" as="geometry" />
        </mxCell>
        <mxCell id="5CA3MVBMeVVRLOGD6PGF-147" value="" style="endArrow=none;html=1;rounded=0;entryX=0.334;entryY=1.004;entryDx=0;entryDy=0;entryPerimeter=0;labelBackgroundColor=none;strokeColor=#788AA3;fontColor=default;" edge="1" parent="1" target="5CA3MVBMeVVRLOGD6PGF-138">
          <mxGeometry width="50" height="50" relative="1" as="geometry">
            <mxPoint x="2293" y="1810" as="sourcePoint" />
            <mxPoint x="2300" y="1760" as="targetPoint" />
          </mxGeometry>
        </mxCell>
        <mxCell id="5CA3MVBMeVVRLOGD6PGF-148" value="" style="endArrow=none;html=1;rounded=0;labelBackgroundColor=none;strokeColor=#788AA3;fontColor=default;" edge="1" parent="1">
          <mxGeometry width="50" height="50" relative="1" as="geometry">
            <mxPoint x="2320" y="1810" as="sourcePoint" />
            <mxPoint x="2320" y="1680" as="targetPoint" />
          </mxGeometry>
        </mxCell>
        <mxCell id="5CA3MVBMeVVRLOGD6PGF-149" value="SHIPPED_BY" style="rhombus;whiteSpace=wrap;html=1;fillColor=#B2C9AB;strokeColor=#788AA3;labelBackgroundColor=none;fontColor=#46495D;" vertex="1" parent="1">
          <mxGeometry x="2270" y="1790" width="80" height="80" as="geometry" />
        </mxCell>
        <mxCell id="5CA3MVBMeVVRLOGD6PGF-150" value="" style="endArrow=none;html=1;rounded=0;exitX=0.5;exitY=1;exitDx=0;exitDy=0;labelBackgroundColor=none;strokeColor=#788AA3;fontColor=default;" edge="1" parent="1" source="5CA3MVBMeVVRLOGD6PGF-149">
          <mxGeometry width="50" height="50" relative="1" as="geometry">
            <mxPoint x="2310" y="1860" as="sourcePoint" />
            <mxPoint x="2310" y="1950" as="targetPoint" />
          </mxGeometry>
        </mxCell>
        <mxCell id="5CA3MVBMeVVRLOGD6PGF-151" value="CARRIER" style="rounded=0;whiteSpace=wrap;html=1;fillColor=#B2C9AB;strokeColor=#788AA3;labelBackgroundColor=none;fontColor=#46495D;" vertex="1" parent="1">
          <mxGeometry x="2260" y="1950" width="100" height="50" as="geometry" />
        </mxCell>
        <mxCell id="5CA3MVBMeVVRLOGD6PGF-152" value="DISCOUNT" style="rounded=0;whiteSpace=wrap;html=1;fillColor=#B2C9AB;strokeColor=#788AA3;labelBackgroundColor=none;fontColor=#46495D;" vertex="1" parent="1">
          <mxGeometry x="1160" y="1980" width="120" height="60" as="geometry" />
        </mxCell>
        <mxCell id="5CA3MVBMeVVRLOGD6PGF-153" value="" style="endArrow=none;html=1;rounded=0;entryX=0.25;entryY=1;entryDx=0;entryDy=0;labelBackgroundColor=none;strokeColor=#788AA3;fontColor=default;exitX=0.5;exitY=0;exitDx=0;exitDy=0;" edge="1" parent="1" source="5CA3MVBMeVVRLOGD6PGF-154" target="5CA3MVBMeVVRLOGD6PGF-67">
          <mxGeometry width="50" height="50" relative="1" as="geometry">
            <mxPoint x="1270" y="1660" as="sourcePoint" />
            <mxPoint x="1250" y="1730" as="targetPoint" />
          </mxGeometry>
        </mxCell>
        <mxCell id="5CA3MVBMeVVRLOGD6PGF-154" value="HAS" style="rhombus;whiteSpace=wrap;html=1;fillColor=#B2C9AB;strokeColor=#788AA3;labelBackgroundColor=none;fontColor=#46495D;" vertex="1" parent="1">
          <mxGeometry x="1210" y="1640" width="80" height="80" as="geometry" />
        </mxCell>
        <mxCell id="5CA3MVBMeVVRLOGD6PGF-155" value="" style="endArrow=none;html=1;rounded=0;exitX=0.583;exitY=0;exitDx=0;exitDy=0;exitPerimeter=0;labelBackgroundColor=none;strokeColor=#788AA3;fontColor=default;entryX=0.5;entryY=1;entryDx=0;entryDy=0;" edge="1" parent="1" source="5CA3MVBMeVVRLOGD6PGF-152" target="5CA3MVBMeVVRLOGD6PGF-154">
          <mxGeometry width="50" height="50" relative="1" as="geometry">
            <mxPoint x="1140" y="1838" as="sourcePoint" />
            <mxPoint x="1250" y="1730" as="targetPoint" />
          </mxGeometry>
        </mxCell>
        <mxCell id="5CA3MVBMeVVRLOGD6PGF-156" value="" style="endArrow=none;html=1;rounded=0;exitX=0.5;exitY=0;exitDx=0;exitDy=0;entryX=0.433;entryY=0.911;entryDx=0;entryDy=0;labelBackgroundColor=none;strokeColor=#788AA3;fontColor=default;entryPerimeter=0;" edge="1" parent="1" source="5CA3MVBMeVVRLOGD6PGF-152" target="5CA3MVBMeVVRLOGD6PGF-154">
          <mxGeometry width="50" height="50" relative="1" as="geometry">
            <mxPoint x="1090" y="1810" as="sourcePoint" />
            <mxPoint x="1140" y="1760" as="targetPoint" />
          </mxGeometry>
        </mxCell>
        <mxCell id="5CA3MVBMeVVRLOGD6PGF-157" value="" style="endArrow=none;html=1;rounded=0;entryX=0.369;entryY=1.082;entryDx=0;entryDy=0;entryPerimeter=0;labelBackgroundColor=none;strokeColor=#788AA3;fontColor=default;exitX=1;exitY=0.5;exitDx=0;exitDy=0;" edge="1" parent="1" source="5CA3MVBMeVVRLOGD6PGF-158">
          <mxGeometry width="50" height="50" relative="1" as="geometry">
            <mxPoint x="1750" y="1840" as="sourcePoint" />
            <mxPoint x="1676.9" y="1263.28" as="targetPoint" />
            <Array as="points">
              <mxPoint x="1720" y="1700" />
            </Array>
          </mxGeometry>
        </mxCell>
        <mxCell id="5CA3MVBMeVVRLOGD6PGF-158" value="HAS" style="rhombus;whiteSpace=wrap;html=1;fillColor=#B2C9AB;strokeColor=#788AA3;labelBackgroundColor=none;fontColor=#46495D;" vertex="1" parent="1">
          <mxGeometry x="1660" y="1810" width="80" height="80" as="geometry" />
        </mxCell>
        <mxCell id="5CA3MVBMeVVRLOGD6PGF-159" value="" style="endArrow=none;html=1;rounded=0;exitX=1;exitY=0;exitDx=0;exitDy=0;entryX=0;entryY=0.5;entryDx=0;entryDy=0;labelBackgroundColor=none;strokeColor=#788AA3;fontColor=default;" edge="1" parent="1" source="5CA3MVBMeVVRLOGD6PGF-152" target="5CA3MVBMeVVRLOGD6PGF-158">
          <mxGeometry width="50" height="50" relative="1" as="geometry">
            <mxPoint x="1590" y="1680" as="sourcePoint" />
            <mxPoint x="1640" y="1630" as="targetPoint" />
          </mxGeometry>
        </mxCell>
        <mxCell id="5CA3MVBMeVVRLOGD6PGF-160" value="HAS" style="rhombus;whiteSpace=wrap;html=1;fillColor=#B2C9AB;strokeColor=#788AA3;labelBackgroundColor=none;fontColor=#46495D;" vertex="1" parent="1">
          <mxGeometry x="2320" y="1180" width="80" height="80" as="geometry" />
        </mxCell>
        <mxCell id="5CA3MVBMeVVRLOGD6PGF-161" value="" style="endArrow=none;html=1;rounded=0;exitX=1;exitY=0;exitDx=0;exitDy=0;entryX=0;entryY=0.5;entryDx=0;entryDy=0;labelBackgroundColor=none;strokeColor=#788AA3;fontColor=default;" edge="1" parent="1" source="5CA3MVBMeVVRLOGD6PGF-120" target="5CA3MVBMeVVRLOGD6PGF-160">
          <mxGeometry width="50" height="50" relative="1" as="geometry">
            <mxPoint x="2330" y="1240" as="sourcePoint" />
            <mxPoint x="2380" y="1190" as="targetPoint" />
          </mxGeometry>
        </mxCell>
        <mxCell id="5CA3MVBMeVVRLOGD6PGF-162" value="" style="endArrow=none;html=1;rounded=0;labelBackgroundColor=none;strokeColor=#788AA3;fontColor=default;exitX=0.933;exitY=0.441;exitDx=0;exitDy=0;exitPerimeter=0;entryX=0.304;entryY=0.997;entryDx=0;entryDy=0;entryPerimeter=0;" edge="1" parent="1" source="5CA3MVBMeVVRLOGD6PGF-160" target="5CA3MVBMeVVRLOGD6PGF-164">
          <mxGeometry width="50" height="50" relative="1" as="geometry">
            <mxPoint x="2370" y="1193" as="sourcePoint" />
            <mxPoint x="2540" y="1040" as="targetPoint" />
          </mxGeometry>
        </mxCell>
        <mxCell id="5CA3MVBMeVVRLOGD6PGF-163" value="" style="endArrow=none;html=1;rounded=0;exitX=1;exitY=0.5;exitDx=0;exitDy=0;entryX=0.347;entryY=1.029;entryDx=0;entryDy=0;labelBackgroundColor=none;strokeColor=#788AA3;fontColor=default;entryPerimeter=0;" edge="1" parent="1" source="5CA3MVBMeVVRLOGD6PGF-160" target="5CA3MVBMeVVRLOGD6PGF-164">
          <mxGeometry width="50" height="50" relative="1" as="geometry">
            <mxPoint x="2390" y="1200" as="sourcePoint" />
            <mxPoint x="2560" y="1050" as="targetPoint" />
          </mxGeometry>
        </mxCell>
        <mxCell id="5CA3MVBMeVVRLOGD6PGF-164" value="ORDER_HISTORY" style="shape=ext;margin=3;double=1;whiteSpace=wrap;html=1;align=center;fillColor=#B2C9AB;strokeColor=#788AA3;labelBackgroundColor=none;fontColor=#46495D;" vertex="1" parent="1">
          <mxGeometry x="2510" y="1000" width="110" height="40" as="geometry" />
        </mxCell>
        <mxCell id="5CA3MVBMeVVRLOGD6PGF-165" value="" style="endArrow=none;html=1;rounded=0;entryX=0.25;entryY=1;entryDx=0;entryDy=0;labelBackgroundColor=none;strokeColor=#788AA3;fontColor=default;" edge="1" parent="1" target="5CA3MVBMeVVRLOGD6PGF-66">
          <mxGeometry width="50" height="50" relative="1" as="geometry">
            <mxPoint x="920" y="1920" as="sourcePoint" />
            <mxPoint x="980" y="1650" as="targetPoint" />
          </mxGeometry>
        </mxCell>
        <mxCell id="5CA3MVBMeVVRLOGD6PGF-166" value="HAS" style="rhombus;whiteSpace=wrap;html=1;fillColor=#B2C9AB;strokeColor=#788AA3;labelBackgroundColor=none;fontColor=#46495D;" vertex="1" parent="1">
          <mxGeometry x="880" y="1920" width="80" height="80" as="geometry" />
        </mxCell>
        <mxCell id="5CA3MVBMeVVRLOGD6PGF-167" value="" style="endArrow=none;html=1;rounded=0;entryX=0;entryY=0.5;entryDx=0;entryDy=0;exitX=1;exitY=0.5;exitDx=0;exitDy=0;labelBackgroundColor=none;strokeColor=#788AA3;fontColor=default;" edge="1" parent="1" source="5CA3MVBMeVVRLOGD6PGF-166" target="5CA3MVBMeVVRLOGD6PGF-152">
          <mxGeometry width="50" height="50" relative="1" as="geometry">
            <mxPoint x="930" y="1700" as="sourcePoint" />
            <mxPoint x="980" y="1650" as="targetPoint" />
          </mxGeometry>
        </mxCell>
        <mxCell id="5CA3MVBMeVVRLOGD6PGF-168" value="" style="endArrow=none;html=1;rounded=0;exitX=0.5;exitY=1;exitDx=0;exitDy=0;labelBackgroundColor=none;strokeColor=#788AA3;fontColor=default;" edge="1" parent="1" source="5CA3MVBMeVVRLOGD6PGF-152" target="5CA3MVBMeVVRLOGD6PGF-169">
          <mxGeometry width="50" height="50" relative="1" as="geometry">
            <mxPoint x="1200" y="1900" as="sourcePoint" />
            <mxPoint x="1220" y="2130" as="targetPoint" />
          </mxGeometry>
        </mxCell>
        <mxCell id="5CA3MVBMeVVRLOGD6PGF-169" value="O" style="ellipse;whiteSpace=wrap;html=1;aspect=fixed;fillColor=#B2C9AB;strokeColor=#788AA3;labelBackgroundColor=none;fontColor=#46495D;" vertex="1" parent="1">
          <mxGeometry x="1200" y="2150" width="40" height="40" as="geometry" />
        </mxCell>
        <mxCell id="5CA3MVBMeVVRLOGD6PGF-170" value="STANDART" style="rounded=0;whiteSpace=wrap;html=1;fillColor=#B2C9AB;strokeColor=#788AA3;labelBackgroundColor=none;fontColor=#46495D;" vertex="1" parent="1">
          <mxGeometry x="1060" y="2280" width="110" height="30" as="geometry" />
        </mxCell>
        <mxCell id="5CA3MVBMeVVRLOGD6PGF-171" value="CODES" style="rounded=0;whiteSpace=wrap;html=1;fillColor=#B2C9AB;strokeColor=#788AA3;labelBackgroundColor=none;fontColor=#46495D;" vertex="1" parent="1">
          <mxGeometry x="1250" y="2280" width="120" height="30" as="geometry" />
        </mxCell>
        <mxCell id="5CA3MVBMeVVRLOGD6PGF-172" value="" style="endArrow=none;html=1;rounded=0;exitX=0.5;exitY=0;exitDx=0;exitDy=0;entryX=0;entryY=1;entryDx=0;entryDy=0;labelBackgroundColor=none;strokeColor=#788AA3;fontColor=default;" edge="1" parent="1" source="5CA3MVBMeVVRLOGD6PGF-170" target="5CA3MVBMeVVRLOGD6PGF-169">
          <mxGeometry width="50" height="50" relative="1" as="geometry">
            <mxPoint x="1130" y="2130" as="sourcePoint" />
            <mxPoint x="1180" y="2080" as="targetPoint" />
          </mxGeometry>
        </mxCell>
        <mxCell id="5CA3MVBMeVVRLOGD6PGF-173" value="" style="endArrow=none;html=1;rounded=0;entryX=0.561;entryY=0.072;entryDx=0;entryDy=0;entryPerimeter=0;exitX=1;exitY=1;exitDx=0;exitDy=0;labelBackgroundColor=none;strokeColor=#788AA3;fontColor=default;" edge="1" parent="1" source="5CA3MVBMeVVRLOGD6PGF-169" target="5CA3MVBMeVVRLOGD6PGF-171">
          <mxGeometry width="50" height="50" relative="1" as="geometry">
            <mxPoint x="1130" y="2130" as="sourcePoint" />
            <mxPoint x="1180" y="2080" as="targetPoint" />
          </mxGeometry>
        </mxCell>
        <mxCell id="5CA3MVBMeVVRLOGD6PGF-174" value="HISTORY" style="shape=ext;margin=3;double=1;whiteSpace=wrap;html=1;align=center;fillColor=#B2C9AB;strokeColor=#788AA3;labelBackgroundColor=none;fontColor=#46495D;" vertex="1" parent="1">
          <mxGeometry x="1210" y="1230" width="100" height="40" as="geometry" />
        </mxCell>
        <mxCell id="5CA3MVBMeVVRLOGD6PGF-175" value="HAS" style="shape=rhombus;double=1;perimeter=rhombusPerimeter;whiteSpace=wrap;html=1;align=center;fillColor=#B2C9AB;strokeColor=#788AA3;labelBackgroundColor=none;fontColor=#46495D;" vertex="1" parent="1">
          <mxGeometry x="1190" y="1100" width="120" height="60" as="geometry" />
        </mxCell>
        <mxCell id="5CA3MVBMeVVRLOGD6PGF-176" value="" style="endArrow=none;html=1;rounded=0;entryX=0.75;entryY=1;entryDx=0;entryDy=0;exitX=0.5;exitY=0;exitDx=0;exitDy=0;labelBackgroundColor=none;strokeColor=#788AA3;fontColor=default;" edge="1" parent="1" source="5CA3MVBMeVVRLOGD6PGF-175" target="5CA3MVBMeVVRLOGD6PGF-30">
          <mxGeometry width="50" height="50" relative="1" as="geometry">
            <mxPoint x="1280" y="1260" as="sourcePoint" />
            <mxPoint x="1330" y="1210" as="targetPoint" />
          </mxGeometry>
        </mxCell>
        <mxCell id="5CA3MVBMeVVRLOGD6PGF-177" value="" style="endArrow=none;html=1;rounded=0;entryX=0.5;entryY=1;entryDx=0;entryDy=0;exitX=0.5;exitY=0;exitDx=0;exitDy=0;labelBackgroundColor=none;strokeColor=#788AA3;fontColor=default;" edge="1" parent="1" source="5CA3MVBMeVVRLOGD6PGF-174" target="5CA3MVBMeVVRLOGD6PGF-175">
          <mxGeometry width="50" height="50" relative="1" as="geometry">
            <mxPoint x="1280" y="1260" as="sourcePoint" />
            <mxPoint x="1330" y="1210" as="targetPoint" />
          </mxGeometry>
        </mxCell>
        <mxCell id="5CA3MVBMeVVRLOGD6PGF-178" value="" style="endArrow=none;html=1;rounded=0;entryX=0;entryY=0;entryDx=0;entryDy=0;exitX=1;exitY=0.5;exitDx=0;exitDy=0;labelBackgroundColor=none;strokeColor=#788AA3;fontColor=default;" edge="1" parent="1" source="5CA3MVBMeVVRLOGD6PGF-179" target="5CA3MVBMeVVRLOGD6PGF-67">
          <mxGeometry width="50" height="50" relative="1" as="geometry">
            <mxPoint x="1330" y="1330" as="sourcePoint" />
            <mxPoint x="1330" y="1210" as="targetPoint" />
          </mxGeometry>
        </mxCell>
        <mxCell id="5CA3MVBMeVVRLOGD6PGF-179" value="SHOWS" style="rhombus;whiteSpace=wrap;html=1;fillColor=#B2C9AB;strokeColor=#788AA3;labelBackgroundColor=none;fontColor=#46495D;" vertex="1" parent="1">
          <mxGeometry x="1240" y="1300" width="70" height="80" as="geometry" />
        </mxCell>
        <mxCell id="5CA3MVBMeVVRLOGD6PGF-180" value="" style="endArrow=none;html=1;rounded=0;entryX=0.5;entryY=0;entryDx=0;entryDy=0;exitX=0.5;exitY=1;exitDx=0;exitDy=0;labelBackgroundColor=none;strokeColor=#788AA3;fontColor=default;" edge="1" parent="1" source="5CA3MVBMeVVRLOGD6PGF-174" target="5CA3MVBMeVVRLOGD6PGF-179">
          <mxGeometry width="50" height="50" relative="1" as="geometry">
            <mxPoint x="1280" y="1260" as="sourcePoint" />
            <mxPoint x="1330" y="1210" as="targetPoint" />
          </mxGeometry>
        </mxCell>
        <mxCell id="5CA3MVBMeVVRLOGD6PGF-189" value="CARD" style="rounded=0;whiteSpace=wrap;html=1;strokeColor=#788AA3;fontColor=#46495D;fillColor=#B2C9AB;labelBackgroundColor=none;" vertex="1" parent="1">
          <mxGeometry x="1640" y="1220" width="120" height="50" as="geometry" />
        </mxCell>
        <mxCell id="5CA3MVBMeVVRLOGD6PGF-203" value="&lt;font style=&quot;font-size: 19px;&quot;&gt;Q/A&lt;/font&gt;" style="rounded=0;whiteSpace=wrap;html=1;labelBackgroundColor=none;fillColor=#B2C9AB;strokeColor=#788AA3;fontColor=#46495D;" vertex="1" parent="1">
          <mxGeometry x="1330" y="1120" width="130" height="30" as="geometry" />
        </mxCell>
        <mxCell id="5CA3MVBMeVVRLOGD6PGF-204" value="" style="endArrow=none;html=1;rounded=0;entryX=0.418;entryY=0.974;entryDx=0;entryDy=0;entryPerimeter=0;exitX=0.121;exitY=0.267;exitDx=0;exitDy=0;exitPerimeter=0;labelBackgroundColor=none;strokeColor=#788AA3;fontColor=default;" edge="1" parent="1" source="5CA3MVBMeVVRLOGD6PGF-206" target="5CA3MVBMeVVRLOGD6PGF-203">
          <mxGeometry width="50" height="50" relative="1" as="geometry">
            <mxPoint x="1382" y="1210" as="sourcePoint" />
            <mxPoint x="1380" y="1180" as="targetPoint" />
          </mxGeometry>
        </mxCell>
        <mxCell id="5CA3MVBMeVVRLOGD6PGF-205" value="" style="endArrow=none;html=1;rounded=0;entryX=0.5;entryY=1;entryDx=0;entryDy=0;exitX=0.692;exitY=0.097;exitDx=0;exitDy=0;exitPerimeter=0;labelBackgroundColor=none;strokeColor=#788AA3;fontColor=default;" edge="1" parent="1" source="5CA3MVBMeVVRLOGD6PGF-206" target="5CA3MVBMeVVRLOGD6PGF-203">
          <mxGeometry width="50" height="50" relative="1" as="geometry">
            <mxPoint x="1400" y="1190" as="sourcePoint" />
            <mxPoint x="1399.58" y="1180" as="targetPoint" />
            <Array as="points" />
          </mxGeometry>
        </mxCell>
        <mxCell id="5CA3MVBMeVVRLOGD6PGF-206" value="&lt;font style=&quot;font-size: 17px;&quot;&gt;d&lt;/font&gt;" style="ellipse;whiteSpace=wrap;html=1;aspect=fixed;labelBackgroundColor=none;fillColor=#B2C9AB;strokeColor=#788AA3;fontColor=#46495D;" vertex="1" parent="1">
          <mxGeometry x="1375" y="1160" width="30" height="30" as="geometry" />
        </mxCell>
        <mxCell id="5CA3MVBMeVVRLOGD6PGF-207" value="" style="endArrow=none;html=1;rounded=0;entryX=0;entryY=0.5;entryDx=0;entryDy=0;labelBackgroundColor=none;strokeColor=#788AA3;fontColor=default;" edge="1" parent="1" target="5CA3MVBMeVVRLOGD6PGF-206">
          <mxGeometry width="50" height="50" relative="1" as="geometry">
            <mxPoint x="1370" y="1220" as="sourcePoint" />
            <mxPoint x="1563" y="1384" as="targetPoint" />
          </mxGeometry>
        </mxCell>
        <mxCell id="5CA3MVBMeVVRLOGD6PGF-208" value="" style="endArrow=none;html=1;rounded=0;exitX=1;exitY=0.5;exitDx=0;exitDy=0;entryX=0.25;entryY=0;entryDx=0;entryDy=0;labelBackgroundColor=none;strokeColor=#788AA3;fontColor=default;" edge="1" parent="1" source="5CA3MVBMeVVRLOGD6PGF-206" target="5CA3MVBMeVVRLOGD6PGF-210">
          <mxGeometry width="50" height="50" relative="1" as="geometry">
            <mxPoint x="1595" y="1353" as="sourcePoint" />
            <mxPoint x="1420" y="1210" as="targetPoint" />
          </mxGeometry>
        </mxCell>
        <mxCell id="5CA3MVBMeVVRLOGD6PGF-209" value="ANSWER" style="rounded=0;whiteSpace=wrap;html=1;labelBackgroundColor=none;fillColor=#B2C9AB;strokeColor=#788AA3;fontColor=#46495D;" vertex="1" parent="1">
          <mxGeometry x="1320" y="1220" width="80" height="20" as="geometry" />
        </mxCell>
        <mxCell id="5CA3MVBMeVVRLOGD6PGF-210" value="&lt;font&gt;QUESTION&lt;/font&gt;" style="rounded=0;whiteSpace=wrap;html=1;labelBackgroundColor=none;fillColor=#B2C9AB;strokeColor=#788AA3;fontColor=#46495D;" vertex="1" parent="1">
          <mxGeometry x="1410" y="1220" width="70" height="20" as="geometry" />
        </mxCell>
        <mxCell id="5CA3MVBMeVVRLOGD6PGF-213" value="" style="endArrow=none;html=1;rounded=0;labelBackgroundColor=none;strokeColor=#788AA3;fontColor=default;" edge="1" parent="1">
          <mxGeometry width="50" height="50" relative="1" as="geometry">
            <mxPoint x="1390" y="1120" as="sourcePoint" />
            <mxPoint x="1380" y="1085" as="targetPoint" />
          </mxGeometry>
        </mxCell>
        <mxCell id="5CA3MVBMeVVRLOGD6PGF-214" value="&lt;font style=&quot;font-size: 11px;&quot;&gt;Q_A_ID&lt;/font&gt;" style="ellipse;whiteSpace=wrap;html=1;align=center;fontStyle=4;labelBackgroundColor=none;fillColor=#B2C9AB;strokeColor=#788AA3;fontColor=#46495D;" vertex="1" parent="1">
          <mxGeometry x="1350" y="1070" width="50" height="20" as="geometry" />
        </mxCell>
        <mxCell id="5CA3MVBMeVVRLOGD6PGF-216" value="" style="endArrow=none;html=1;rounded=0;strokeColor=#788AA3;fontColor=default;fillColor=#B2C9AB;exitX=1;exitY=0.5;exitDx=0;exitDy=0;labelBackgroundColor=none;" edge="1" parent="1" source="5CA3MVBMeVVRLOGD6PGF-203">
          <mxGeometry width="50" height="50" relative="1" as="geometry">
            <mxPoint x="1480" y="1200" as="sourcePoint" />
            <mxPoint x="1530" y="1240" as="targetPoint" />
          </mxGeometry>
        </mxCell>
        <mxCell id="5CA3MVBMeVVRLOGD6PGF-217" value="&lt;font style=&quot;font-size: 18px;&quot;&gt;HAS&lt;/font&gt;" style="rhombus;whiteSpace=wrap;html=1;strokeColor=#788AA3;fontColor=#46495D;fillColor=#B2C9AB;labelBackgroundColor=none;" vertex="1" parent="1">
          <mxGeometry x="1490" y="1240" width="80" height="80" as="geometry" />
        </mxCell>
        <mxCell id="5CA3MVBMeVVRLOGD6PGF-218" value="" style="endArrow=none;html=1;rounded=0;strokeColor=#788AA3;fontColor=default;fillColor=#B2C9AB;entryX=0.5;entryY=1;entryDx=0;entryDy=0;labelBackgroundColor=none;" edge="1" parent="1" target="5CA3MVBMeVVRLOGD6PGF-217">
          <mxGeometry width="50" height="50" relative="1" as="geometry">
            <mxPoint x="1460" y="1400" as="sourcePoint" />
            <mxPoint x="1510" y="1350" as="targetPoint" />
          </mxGeometry>
        </mxCell>
        <mxCell id="5CA3MVBMeVVRLOGD6PGF-219" value="" style="endArrow=none;html=1;rounded=0;strokeColor=#788AA3;fontColor=default;fillColor=#B2C9AB;entryX=1;entryY=0.75;entryDx=0;entryDy=0;exitX=0.473;exitY=0.022;exitDx=0;exitDy=0;exitPerimeter=0;labelBackgroundColor=none;" edge="1" parent="1" source="5CA3MVBMeVVRLOGD6PGF-217" target="5CA3MVBMeVVRLOGD6PGF-203">
          <mxGeometry width="50" height="50" relative="1" as="geometry">
            <mxPoint x="1445" y="1200" as="sourcePoint" />
            <mxPoint x="1495" y="1150" as="targetPoint" />
          </mxGeometry>
        </mxCell>
        <mxCell id="5CA3MVBMeVVRLOGD6PGF-220" value="" style="endArrow=none;html=1;rounded=0;strokeColor=#788AA3;fontColor=default;fillColor=#B2C9AB;exitX=1;exitY=1;exitDx=0;exitDy=0;labelBackgroundColor=none;" edge="1" parent="1" source="5CA3MVBMeVVRLOGD6PGF-27">
          <mxGeometry width="50" height="50" relative="1" as="geometry">
            <mxPoint x="880" y="940" as="sourcePoint" />
            <mxPoint x="940" y="990" as="targetPoint" />
          </mxGeometry>
        </mxCell>
        <mxCell id="5CA3MVBMeVVRLOGD6PGF-221" value="" style="endArrow=none;html=1;rounded=0;strokeColor=#788AA3;fontColor=default;fillColor=#B2C9AB;entryX=0.5;entryY=1;entryDx=0;entryDy=0;exitX=0;exitY=0;exitDx=0;exitDy=0;labelBackgroundColor=none;" edge="1" parent="1" source="5CA3MVBMeVVRLOGD6PGF-209" target="5CA3MVBMeVVRLOGD6PGF-222">
          <mxGeometry width="50" height="50" relative="1" as="geometry">
            <mxPoint x="1330" y="1220" as="sourcePoint" />
            <mxPoint x="1000" y="1040" as="targetPoint" />
          </mxGeometry>
        </mxCell>
        <mxCell id="5CA3MVBMeVVRLOGD6PGF-222" value="&lt;font style=&quot;font-size: 17px;&quot;&gt;WRITE&lt;/font&gt;" style="rhombus;whiteSpace=wrap;html=1;strokeColor=#788AA3;fontColor=#46495D;fillColor=#B2C9AB;labelBackgroundColor=none;" vertex="1" parent="1">
          <mxGeometry x="900" y="990" width="80" height="80" as="geometry" />
        </mxCell>
        <mxCell id="5CA3MVBMeVVRLOGD6PGF-223" value="" style="endArrow=none;html=1;rounded=0;strokeColor=#788AA3;fontColor=default;fillColor=#B2C9AB;exitX=0.5;exitY=0;exitDx=0;exitDy=0;labelBackgroundColor=none;" edge="1" parent="1" source="5CA3MVBMeVVRLOGD6PGF-224">
          <mxGeometry width="50" height="50" relative="1" as="geometry">
            <mxPoint x="1270" y="1010" as="sourcePoint" />
            <mxPoint x="1260" y="950" as="targetPoint" />
          </mxGeometry>
        </mxCell>
        <mxCell id="5CA3MVBMeVVRLOGD6PGF-224" value="WRITE" style="rhombus;whiteSpace=wrap;html=1;strokeColor=#788AA3;fontColor=#46495D;fillColor=#B2C9AB;labelBackgroundColor=none;" vertex="1" parent="1">
          <mxGeometry x="1250" y="1010" width="60" height="60" as="geometry" />
        </mxCell>
        <mxCell id="5CA3MVBMeVVRLOGD6PGF-225" value="" style="endArrow=none;html=1;rounded=0;strokeColor=#788AA3;fontColor=default;fillColor=#B2C9AB;entryX=0.5;entryY=1;entryDx=0;entryDy=0;labelBackgroundColor=none;" edge="1" parent="1" target="5CA3MVBMeVVRLOGD6PGF-224">
          <mxGeometry width="50" height="50" relative="1" as="geometry">
            <mxPoint x="1410" y="1220" as="sourcePoint" />
            <mxPoint x="1460" y="1170" as="targetPoint" />
          </mxGeometry>
        </mxCell>
        <mxCell id="5CA3MVBMeVVRLOGD6PGF-226" value="REVIEW" style="rounded=0;whiteSpace=wrap;html=1;strokeColor=#788AA3;fontColor=#46495D;fillColor=#B2C9AB;labelBackgroundColor=none;" vertex="1" parent="1">
          <mxGeometry x="1651" y="900" width="110" height="35" as="geometry" />
        </mxCell>
        <mxCell id="5CA3MVBMeVVRLOGD6PGF-227" value="" style="endArrow=none;html=1;rounded=0;strokeColor=#788AA3;fontColor=default;fillColor=#B2C9AB;labelBackgroundColor=none;" edge="1" parent="1">
          <mxGeometry width="50" height="50" relative="1" as="geometry">
            <mxPoint x="1260" y="930" as="sourcePoint" />
            <mxPoint x="1420" y="920" as="targetPoint" />
          </mxGeometry>
        </mxCell>
        <mxCell id="5CA3MVBMeVVRLOGD6PGF-228" value="&lt;font style=&quot;font-size: 15px;&quot;&gt;WRITE&lt;/font&gt;" style="rhombus;whiteSpace=wrap;html=1;strokeColor=#788AA3;fontColor=#46495D;fillColor=#B2C9AB;labelBackgroundColor=none;" vertex="1" parent="1">
          <mxGeometry x="1420" y="890" width="60" height="60" as="geometry" />
        </mxCell>
        <mxCell id="5CA3MVBMeVVRLOGD6PGF-229" value="" style="endArrow=none;html=1;rounded=0;strokeColor=#788AA3;fontColor=default;fillColor=#B2C9AB;exitX=1;exitY=0.5;exitDx=0;exitDy=0;labelBackgroundColor=none;" edge="1" parent="1" source="5CA3MVBMeVVRLOGD6PGF-228">
          <mxGeometry width="50" height="50" relative="1" as="geometry">
            <mxPoint x="1490" y="920" as="sourcePoint" />
            <mxPoint x="1650" y="920" as="targetPoint" />
          </mxGeometry>
        </mxCell>
        <mxCell id="5CA3MVBMeVVRLOGD6PGF-230" value="" style="endArrow=none;html=1;rounded=0;strokeColor=#788AA3;fontColor=default;fillColor=#B2C9AB;exitX=1;exitY=1;exitDx=0;exitDy=0;entryX=0.5;entryY=1;entryDx=0;entryDy=0;labelBackgroundColor=none;" edge="1" parent="1" source="5CA3MVBMeVVRLOGD6PGF-226" target="5CA3MVBMeVVRLOGD6PGF-231">
          <mxGeometry width="50" height="50" relative="1" as="geometry">
            <mxPoint x="1760" y="940" as="sourcePoint" />
            <mxPoint x="1820" y="970" as="targetPoint" />
          </mxGeometry>
        </mxCell>
        <mxCell id="5CA3MVBMeVVRLOGD6PGF-231" value="&lt;font style=&quot;font-size: 18px;&quot;&gt;HAS&lt;/font&gt;" style="rhombus;whiteSpace=wrap;html=1;strokeColor=#788AA3;fontColor=#46495D;fillColor=#B2C9AB;direction=south;rotation=30;labelBackgroundColor=none;" vertex="1" parent="1">
          <mxGeometry x="1900" y="1030" width="80" height="80" as="geometry" />
        </mxCell>
        <mxCell id="5CA3MVBMeVVRLOGD6PGF-235" value="" style="endArrow=none;html=1;rounded=0;strokeColor=#788AA3;fontColor=default;fillColor=#B2C9AB;labelBackgroundColor=none;entryX=0.5;entryY=0;entryDx=0;entryDy=0;" edge="1" parent="1" target="5CA3MVBMeVVRLOGD6PGF-231">
          <mxGeometry width="50" height="50" relative="1" as="geometry">
            <mxPoint x="1530" y="1400" as="sourcePoint" />
            <mxPoint x="1970" y="1090" as="targetPoint" />
          </mxGeometry>
        </mxCell>
        <mxCell id="5CA3MVBMeVVRLOGD6PGF-236" value="" style="endArrow=none;html=1;rounded=0;entryX=0.318;entryY=0.126;entryDx=0;entryDy=0;entryPerimeter=0;labelBackgroundColor=none;strokeColor=#788AA3;fontColor=default;" edge="1" parent="1" target="5CA3MVBMeVVRLOGD6PGF-258">
          <mxGeometry width="50" height="50" relative="1" as="geometry">
            <mxPoint x="2380" y="755" as="sourcePoint" />
            <mxPoint x="2265" y="805" as="targetPoint" />
          </mxGeometry>
        </mxCell>
        <mxCell id="5CA3MVBMeVVRLOGD6PGF-237" value="" style="endArrow=none;html=1;rounded=0;exitX=0.25;exitY=1;exitDx=0;exitDy=0;labelBackgroundColor=none;strokeColor=#788AA3;fontColor=default;" edge="1" parent="1">
          <mxGeometry width="50" height="50" relative="1" as="geometry">
            <mxPoint x="2270" y="767.5" as="sourcePoint" />
            <mxPoint x="2315" y="715" as="targetPoint" />
          </mxGeometry>
        </mxCell>
        <mxCell id="5CA3MVBMeVVRLOGD6PGF-238" value="" style="endArrow=none;html=1;rounded=0;entryX=0.617;entryY=0.915;entryDx=0;entryDy=0;entryPerimeter=0;labelBackgroundColor=none;strokeColor=#788AA3;fontColor=default;" edge="1" parent="1" source="5CA3MVBMeVVRLOGD6PGF-250" target="5CA3MVBMeVVRLOGD6PGF-244">
          <mxGeometry width="50" height="50" relative="1" as="geometry">
            <mxPoint x="2235" y="715" as="sourcePoint" />
            <mxPoint x="2095" y="735" as="targetPoint" />
          </mxGeometry>
        </mxCell>
        <mxCell id="5CA3MVBMeVVRLOGD6PGF-239" value="" style="verticalLabelPosition=bottom;shadow=0;dashed=0;align=center;html=1;verticalAlign=top;shape=mxgraph.electrical.transmission.2_line_bus;rotation=90;labelBackgroundColor=none;fillColor=#B2C9AB;strokeColor=#788AA3;fontColor=#46495D;" vertex="1" parent="1">
          <mxGeometry x="2225" y="802.5" width="100" height="15" as="geometry" />
        </mxCell>
        <mxCell id="5CA3MVBMeVVRLOGD6PGF-240" value="" style="rounded=0;whiteSpace=wrap;html=1;labelBackgroundColor=none;fillColor=#B2C9AB;strokeColor=#788AA3;fontColor=#46495D;" vertex="1" parent="1">
          <mxGeometry x="2220" y="815" width="120" height="45" as="geometry" />
        </mxCell>
        <mxCell id="5CA3MVBMeVVRLOGD6PGF-241" value="" style="rounded=0;whiteSpace=wrap;html=1;labelBackgroundColor=none;fillColor=#B2C9AB;strokeColor=#788AA3;fontColor=#46495D;" vertex="1" parent="1">
          <mxGeometry x="2227.5" y="823.75" width="102.5" height="26.25" as="geometry" />
        </mxCell>
        <mxCell id="5CA3MVBMeVVRLOGD6PGF-242" value="&lt;font style=&quot;font-size: 8px;&quot;&gt;SHIPPING_DETAILS&lt;/font&gt;" style="text;html=1;align=center;verticalAlign=middle;whiteSpace=wrap;rounded=0;labelBackgroundColor=none;fontColor=#46495D;" vertex="1" parent="1">
          <mxGeometry x="2247.5" y="822.5" width="60" height="30" as="geometry" />
        </mxCell>
        <mxCell id="5CA3MVBMeVVRLOGD6PGF-243" value="" style="ellipse;whiteSpace=wrap;html=1;aspect=fixed;labelBackgroundColor=none;fillColor=#B2C9AB;strokeColor=#788AA3;fontColor=#46495D;" vertex="1" parent="1">
          <mxGeometry x="2260" y="745" width="30" height="30" as="geometry" />
        </mxCell>
        <mxCell id="5CA3MVBMeVVRLOGD6PGF-244" value="d" style="text;html=1;align=center;verticalAlign=middle;whiteSpace=wrap;rounded=0;labelBackgroundColor=none;fontColor=#46495D;" vertex="1" parent="1">
          <mxGeometry x="2245" y="745" width="60" height="30" as="geometry" />
        </mxCell>
        <mxCell id="5CA3MVBMeVVRLOGD6PGF-245" value="" style="rounded=0;whiteSpace=wrap;html=1;labelBackgroundColor=none;fillColor=#B2C9AB;strokeColor=#788AA3;fontColor=#46495D;" vertex="1" parent="1">
          <mxGeometry x="2290" y="693.75" width="55" height="22.5" as="geometry" />
        </mxCell>
        <mxCell id="5CA3MVBMeVVRLOGD6PGF-246" value="" style="rounded=0;whiteSpace=wrap;html=1;labelBackgroundColor=none;fillColor=#B2C9AB;strokeColor=#788AA3;fontColor=#46495D;" vertex="1" parent="1">
          <mxGeometry x="2200" y="693.75" width="55" height="22.5" as="geometry" />
        </mxCell>
        <mxCell id="5CA3MVBMeVVRLOGD6PGF-247" value="HOME" style="text;html=1;align=center;verticalAlign=middle;whiteSpace=wrap;rounded=0;labelBackgroundColor=none;fontColor=#46495D;" vertex="1" parent="1">
          <mxGeometry x="2197.5" y="690" width="60" height="30" as="geometry" />
        </mxCell>
        <mxCell id="5CA3MVBMeVVRLOGD6PGF-248" value="&lt;font style=&quot;font-size: 9px;&quot;&gt;CLICK-COLLECT&lt;/font&gt;" style="text;html=1;align=center;verticalAlign=middle;whiteSpace=wrap;rounded=0;labelBackgroundColor=none;fontColor=#46495D;" vertex="1" parent="1">
          <mxGeometry x="2287.5" y="690" width="60" height="30" as="geometry" />
        </mxCell>
        <mxCell id="5CA3MVBMeVVRLOGD6PGF-249" value="" style="endArrow=none;html=1;rounded=0;entryX=0.617;entryY=0.915;entryDx=0;entryDy=0;entryPerimeter=0;labelBackgroundColor=none;strokeColor=#788AA3;fontColor=default;" edge="1" parent="1" target="5CA3MVBMeVVRLOGD6PGF-250">
          <mxGeometry width="50" height="50" relative="1" as="geometry">
            <mxPoint x="2235" y="715" as="sourcePoint" />
            <mxPoint x="2282" y="772" as="targetPoint" />
          </mxGeometry>
        </mxCell>
        <mxCell id="5CA3MVBMeVVRLOGD6PGF-250" value="" style="verticalLabelPosition=bottom;verticalAlign=top;html=1;shape=mxgraph.basic.arc;startAngle=0.2658627587152768;endAngle=0.7531826745504864;rotation=-45;labelBackgroundColor=none;fillColor=#B2C9AB;strokeColor=#788AA3;fontColor=#46495D;" vertex="1" parent="1">
          <mxGeometry x="2240" y="712.5" width="15" height="30" as="geometry" />
        </mxCell>
        <mxCell id="5CA3MVBMeVVRLOGD6PGF-251" value="" style="verticalLabelPosition=bottom;verticalAlign=top;html=1;shape=mxgraph.basic.arc;startAngle=0.2658627587152768;endAngle=0.7531826745504864;rotation=32;labelBackgroundColor=none;fillColor=#B2C9AB;strokeColor=#788AA3;fontColor=#46495D;" vertex="1" parent="1">
          <mxGeometry x="2290" y="715" width="15" height="30" as="geometry" />
        </mxCell>
        <mxCell id="5CA3MVBMeVVRLOGD6PGF-253" value="" style="endArrow=none;html=1;rounded=0;entryX=0.053;entryY=0.029;entryDx=0;entryDy=0;entryPerimeter=0;labelBackgroundColor=none;strokeColor=#788AA3;fontColor=default;" edge="1" parent="1" target="5CA3MVBMeVVRLOGD6PGF-240">
          <mxGeometry width="50" height="50" relative="1" as="geometry">
            <mxPoint x="2195" y="775" as="sourcePoint" />
            <mxPoint x="2265" y="805" as="targetPoint" />
          </mxGeometry>
        </mxCell>
        <mxCell id="5CA3MVBMeVVRLOGD6PGF-254" value="" style="endArrow=none;html=1;rounded=0;entryX=0.664;entryY=0.022;entryDx=0;entryDy=0;entryPerimeter=0;labelBackgroundColor=none;strokeColor=#788AA3;fontColor=default;" edge="1" parent="1" target="5CA3MVBMeVVRLOGD6PGF-240">
          <mxGeometry width="50" height="50" relative="1" as="geometry">
            <mxPoint x="2325" y="785" as="sourcePoint" />
            <mxPoint x="2329.75" y="810" as="targetPoint" />
          </mxGeometry>
        </mxCell>
        <mxCell id="5CA3MVBMeVVRLOGD6PGF-255" value="" style="endArrow=none;html=1;rounded=0;entryX=0.85;entryY=0.014;entryDx=0;entryDy=0;entryPerimeter=0;labelBackgroundColor=none;strokeColor=#788AA3;fontColor=default;" edge="1" parent="1" target="5CA3MVBMeVVRLOGD6PGF-240">
          <mxGeometry width="50" height="50" relative="1" as="geometry">
            <mxPoint x="2375" y="795" as="sourcePoint" />
            <mxPoint x="2316" y="827" as="targetPoint" />
          </mxGeometry>
        </mxCell>
        <mxCell id="5CA3MVBMeVVRLOGD6PGF-256" value="phone" style="ellipse;whiteSpace=wrap;html=1;labelBackgroundColor=none;fillColor=#B2C9AB;strokeColor=#788AA3;fontColor=#46495D;" vertex="1" parent="1">
          <mxGeometry x="2170" y="755" width="50" height="30" as="geometry" />
        </mxCell>
        <mxCell id="5CA3MVBMeVVRLOGD6PGF-257" value="shipping_id" style="ellipse;whiteSpace=wrap;html=1;labelBackgroundColor=none;fillColor=#B2C9AB;strokeColor=#788AA3;fontColor=#46495D;" vertex="1" parent="1">
          <mxGeometry x="2295" y="765" width="60" height="30" as="geometry" />
        </mxCell>
        <mxCell id="5CA3MVBMeVVRLOGD6PGF-258" value="address" style="ellipse;whiteSpace=wrap;html=1;labelBackgroundColor=none;fillColor=#B2C9AB;strokeColor=#788AA3;fontColor=#46495D;" vertex="1" parent="1">
          <mxGeometry x="2363.75" y="777.5" width="50" height="30" as="geometry" />
        </mxCell>
        <mxCell id="5CA3MVBMeVVRLOGD6PGF-259" value="" style="endArrow=none;html=1;rounded=0;labelBackgroundColor=none;strokeColor=#788AA3;fontColor=default;" edge="1" parent="1" target="5CA3MVBMeVVRLOGD6PGF-258">
          <mxGeometry width="50" height="50" relative="1" as="geometry">
            <mxPoint x="2405" y="755" as="sourcePoint" />
            <mxPoint x="2395" y="775" as="targetPoint" />
          </mxGeometry>
        </mxCell>
        <mxCell id="5CA3MVBMeVVRLOGD6PGF-260" value="" style="endArrow=none;html=1;rounded=0;entryX=1;entryY=0;entryDx=0;entryDy=0;labelBackgroundColor=none;strokeColor=#788AA3;fontColor=default;" edge="1" parent="1" target="5CA3MVBMeVVRLOGD6PGF-258">
          <mxGeometry width="50" height="50" relative="1" as="geometry">
            <mxPoint x="2435" y="765" as="sourcePoint" />
            <mxPoint x="2400" y="801" as="targetPoint" />
          </mxGeometry>
        </mxCell>
        <mxCell id="5CA3MVBMeVVRLOGD6PGF-261" value="" style="endArrow=none;html=1;rounded=0;entryX=1;entryY=0.5;entryDx=0;entryDy=0;labelBackgroundColor=none;strokeColor=#788AA3;fontColor=default;" edge="1" parent="1" target="5CA3MVBMeVVRLOGD6PGF-258">
          <mxGeometry width="50" height="50" relative="1" as="geometry">
            <mxPoint x="2445" y="805" as="sourcePoint" />
            <mxPoint x="2410" y="811" as="targetPoint" />
          </mxGeometry>
        </mxCell>
        <mxCell id="5CA3MVBMeVVRLOGD6PGF-262" value="city" style="ellipse;whiteSpace=wrap;html=1;labelBackgroundColor=none;fillColor=#B2C9AB;strokeColor=#788AA3;fontColor=#46495D;" vertex="1" parent="1">
          <mxGeometry x="2358.75" y="740" width="40" height="20" as="geometry" />
        </mxCell>
        <mxCell id="5CA3MVBMeVVRLOGD6PGF-263" value="state" style="ellipse;whiteSpace=wrap;html=1;labelBackgroundColor=none;fillColor=#B2C9AB;strokeColor=#788AA3;fontColor=#46495D;" vertex="1" parent="1">
          <mxGeometry x="2398.75" y="740" width="40" height="20" as="geometry" />
        </mxCell>
        <mxCell id="5CA3MVBMeVVRLOGD6PGF-264" value="zip" style="ellipse;whiteSpace=wrap;html=1;labelBackgroundColor=none;fillColor=#B2C9AB;strokeColor=#788AA3;fontColor=#46495D;" vertex="1" parent="1">
          <mxGeometry x="2427.5" y="755" width="40" height="20" as="geometry" />
        </mxCell>
        <mxCell id="5CA3MVBMeVVRLOGD6PGF-265" value="country" style="ellipse;whiteSpace=wrap;html=1;labelBackgroundColor=none;fillColor=#B2C9AB;strokeColor=#788AA3;fontColor=#46495D;" vertex="1" parent="1">
          <mxGeometry x="2427.5" y="790" width="40" height="20" as="geometry" />
        </mxCell>
        <mxCell id="5CA3MVBMeVVRLOGD6PGF-266" value="" style="endArrow=none;html=1;rounded=0;entryX=1;entryY=0.5;entryDx=0;entryDy=0;labelBackgroundColor=none;strokeColor=#788AA3;fontColor=default;" edge="1" parent="1">
          <mxGeometry width="50" height="50" relative="1" as="geometry">
            <mxPoint x="2425" y="825" as="sourcePoint" />
            <mxPoint x="2404.5" y="805.5" as="targetPoint" />
          </mxGeometry>
        </mxCell>
        <mxCell id="5CA3MVBMeVVRLOGD6PGF-267" value="street_address" style="ellipse;whiteSpace=wrap;html=1;labelBackgroundColor=none;fillColor=#B2C9AB;strokeColor=#788AA3;fontColor=#46495D;" vertex="1" parent="1">
          <mxGeometry x="2411.25" y="822.5" width="103.75" height="20" as="geometry" />
        </mxCell>
        <mxCell id="5CA3MVBMeVVRLOGD6PGF-268" value="" style="endArrow=none;html=1;rounded=0;labelBackgroundColor=none;strokeColor=#788AA3;fontColor=default;" edge="1" parent="1">
          <mxGeometry relative="1" as="geometry">
            <mxPoint x="2312.5" y="785" as="sourcePoint" />
            <mxPoint x="2342.5" y="785" as="targetPoint" />
          </mxGeometry>
        </mxCell>
        <mxCell id="5CA3MVBMeVVRLOGD6PGF-269" value="" style="endArrow=none;html=1;rounded=0;strokeColor=#788AA3;fontColor=default;fillColor=#B2C9AB;labelBackgroundColor=none;" edge="1" parent="1">
          <mxGeometry width="50" height="50" relative="1" as="geometry">
            <mxPoint x="1260" y="920" as="sourcePoint" />
            <mxPoint x="2060" y="850" as="targetPoint" />
          </mxGeometry>
        </mxCell>
        <mxCell id="5CA3MVBMeVVRLOGD6PGF-270" value="" style="rhombus;whiteSpace=wrap;html=1;strokeColor=#788AA3;fontColor=#46495D;fillColor=#B2C9AB;labelBackgroundColor=none;" vertex="1" parent="1">
          <mxGeometry x="2060" y="810" width="80" height="80" as="geometry" />
        </mxCell>
        <mxCell id="5CA3MVBMeVVRLOGD6PGF-271" value="" style="endArrow=none;html=1;rounded=0;strokeColor=#788AA3;fontColor=default;fillColor=#B2C9AB;exitX=1;exitY=0.5;exitDx=0;exitDy=0;entryX=0;entryY=0.5;entryDx=0;entryDy=0;labelBackgroundColor=none;" edge="1" parent="1" source="5CA3MVBMeVVRLOGD6PGF-270" target="5CA3MVBMeVVRLOGD6PGF-240">
          <mxGeometry width="50" height="50" relative="1" as="geometry">
            <mxPoint x="2140" y="860" as="sourcePoint" />
            <mxPoint x="2190" y="810" as="targetPoint" />
          </mxGeometry>
        </mxCell>
        <mxCell id="5CA3MVBMeVVRLOGD6PGF-272" value="" style="rhombus;whiteSpace=wrap;html=1;strokeColor=#788AA3;fontColor=#46495D;fillColor=#B2C9AB;labelBackgroundColor=none;" vertex="1" parent="1">
          <mxGeometry x="2065" y="815" width="70" height="70" as="geometry" />
        </mxCell>
        <mxCell id="5CA3MVBMeVVRLOGD6PGF-273" value="" style="endArrow=none;html=1;rounded=0;strokeColor=#788AA3;fontColor=default;fillColor=#B2C9AB;entryX=-0.004;entryY=0.561;entryDx=0;entryDy=0;entryPerimeter=0;exitX=0.946;exitY=0.558;exitDx=0;exitDy=0;exitPerimeter=0;labelBackgroundColor=none;" edge="1" parent="1" source="5CA3MVBMeVVRLOGD6PGF-270" target="5CA3MVBMeVVRLOGD6PGF-240">
          <mxGeometry width="50" height="50" relative="1" as="geometry">
            <mxPoint x="2130" y="860" as="sourcePoint" />
            <mxPoint x="2180" y="810" as="targetPoint" />
          </mxGeometry>
        </mxCell>
        <mxCell id="5CA3MVBMeVVRLOGD6PGF-274" value="" style="endArrow=none;html=1;rounded=0;strokeColor=#788AA3;fontColor=default;fillColor=#B2C9AB;exitX=0.324;exitY=0.1;exitDx=0;exitDy=0;exitPerimeter=0;labelBackgroundColor=none;" edge="1" parent="1" source="5CA3MVBMeVVRLOGD6PGF-248">
          <mxGeometry width="50" height="50" relative="1" as="geometry">
            <mxPoint x="2310" y="700" as="sourcePoint" />
            <mxPoint x="2300" y="670" as="targetPoint" />
          </mxGeometry>
        </mxCell>
        <mxCell id="5CA3MVBMeVVRLOGD6PGF-275" value="&lt;font color=&quot;#666666&quot; style=&quot;&quot;&gt;openning_hours&lt;/font&gt;" style="ellipse;whiteSpace=wrap;html=1;align=center;strokeColor=#788AA3;fontColor=#46495D;fillColor=#B2C9AB;labelBackgroundColor=none;" vertex="1" parent="1">
          <mxGeometry x="2230" y="650" width="81" height="25" as="geometry" />
        </mxCell>
        <mxCell id="5CA3MVBMeVVRLOGD6PGF-276" value="" style="endArrow=none;html=1;rounded=0;strokeColor=#788AA3;fontColor=default;fillColor=#B2C9AB;exitX=0.656;exitY=0.083;exitDx=0;exitDy=0;exitPerimeter=0;labelBackgroundColor=none;" edge="1" parent="1" source="5CA3MVBMeVVRLOGD6PGF-248">
          <mxGeometry width="50" height="50" relative="1" as="geometry">
            <mxPoint x="2330" y="690" as="sourcePoint" />
            <mxPoint x="2340" y="670" as="targetPoint" />
          </mxGeometry>
        </mxCell>
        <mxCell id="5CA3MVBMeVVRLOGD6PGF-277" value="&lt;font style=&quot;font-size: 10px;&quot; color=&quot;#666666&quot;&gt;address_description&lt;/font&gt;" style="ellipse;whiteSpace=wrap;html=1;align=center;strokeColor=#788AA3;fontColor=#46495D;fillColor=#B2C9AB;labelBackgroundColor=none;" vertex="1" parent="1">
          <mxGeometry x="2325" y="650" width="105" height="25" as="geometry" />
        </mxCell>
        <mxCell id="5CA3MVBMeVVRLOGD6PGF-278" value="USED_FOR" style="rhombus;whiteSpace=wrap;html=1;strokeColor=#788AA3;fontColor=#46495D;fillColor=#B2C9AB;direction=south;rotation=30;labelBackgroundColor=none;" vertex="1" parent="1">
          <mxGeometry x="2180" y="980" width="80" height="80" as="geometry" />
        </mxCell>
        <mxCell id="5CA3MVBMeVVRLOGD6PGF-279" value="" style="endArrow=none;html=1;rounded=0;strokeColor=#788AA3;fontColor=default;fillColor=#B2C9AB;entryX=1;entryY=0.5;entryDx=0;entryDy=0;labelBackgroundColor=none;" edge="1" parent="1" target="5CA3MVBMeVVRLOGD6PGF-278">
          <mxGeometry width="50" height="50" relative="1" as="geometry">
            <mxPoint x="2140" y="1280" as="sourcePoint" />
            <mxPoint x="2200" y="1060" as="targetPoint" />
          </mxGeometry>
        </mxCell>
        <mxCell id="5CA3MVBMeVVRLOGD6PGF-280" value="" style="endArrow=none;html=1;rounded=0;strokeColor=#788AA3;fontColor=default;fillColor=#B2C9AB;exitX=0;exitY=0.5;exitDx=0;exitDy=0;labelBackgroundColor=none;" edge="1" parent="1" source="5CA3MVBMeVVRLOGD6PGF-278">
          <mxGeometry width="50" height="50" relative="1" as="geometry">
            <mxPoint x="2230" y="910" as="sourcePoint" />
            <mxPoint x="2280" y="860" as="targetPoint" />
          </mxGeometry>
        </mxCell>
        <mxCell id="5CA3MVBMeVVRLOGD6PGF-281" value="" style="endArrow=none;html=1;rounded=0;strokeColor=#788AA3;fontColor=default;fillColor=#B2C9AB;entryX=0.443;entryY=1.002;entryDx=0;entryDy=0;entryPerimeter=0;labelBackgroundColor=none;" edge="1" parent="1" source="5CA3MVBMeVVRLOGD6PGF-278" target="5CA3MVBMeVVRLOGD6PGF-240">
          <mxGeometry width="50" height="50" relative="1" as="geometry">
            <mxPoint x="2220" y="910" as="sourcePoint" />
            <mxPoint x="2270" y="860" as="targetPoint" />
          </mxGeometry>
        </mxCell>
        <mxCell id="5CA3MVBMeVVRLOGD6PGF-337" value="" style="endArrow=none;html=1;rounded=0;strokeColor=#788AA3;fontColor=default;fillColor=#B2C9AB;entryX=0;entryY=0;entryDx=0;entryDy=0;exitX=0.5;exitY=0;exitDx=0;exitDy=0;labelBackgroundColor=none;" edge="1" parent="1" source="5CA3MVBMeVVRLOGD6PGF-338" target="5CA3MVBMeVVRLOGD6PGF-30">
          <mxGeometry width="50" height="50" relative="1" as="geometry">
            <mxPoint x="600" y="870" as="sourcePoint" />
            <mxPoint x="950" y="740" as="targetPoint" />
          </mxGeometry>
        </mxCell>
        <mxCell id="5CA3MVBMeVVRLOGD6PGF-338" value="&lt;font style=&quot;font-size: 17px;&quot;&gt;FAVORITES&lt;/font&gt;" style="rhombus;whiteSpace=wrap;html=1;strokeColor=#788AA3;fontColor=#46495D;fillColor=#B2C9AB;labelBackgroundColor=none;" vertex="1" parent="1">
          <mxGeometry x="470" y="1140" width="80" height="80" as="geometry" />
        </mxCell>
        <object label="&lt;font style=&quot;font-size: 13px;&quot;&gt;email&lt;/font&gt;" id="5CA3MVBMeVVRLOGD6PGF-342">
          <mxCell style="ellipse;whiteSpace=wrap;align=center;html=1;fontStyle=0;labelBackgroundColor=none;fillColor=#B2C9AB;strokeColor=#788AA3;fontColor=#46495D;" vertex="1" parent="1">
            <mxGeometry x="1010" y="410" width="60" height="32" as="geometry" />
          </mxCell>
        </object>
        <mxCell id="5CA3MVBMeVVRLOGD6PGF-343" value="" style="endArrow=none;html=1;rounded=0;labelBackgroundColor=none;strokeColor=#788AA3;fontColor=default;entryX=0;entryY=0.5;entryDx=0;entryDy=0;" edge="1" parent="1" target="5CA3MVBMeVVRLOGD6PGF-357">
          <mxGeometry width="50" height="50" relative="1" as="geometry">
            <mxPoint x="1204.5" y="482" as="sourcePoint" />
            <mxPoint x="1295.5" y="443" as="targetPoint" />
          </mxGeometry>
        </mxCell>
        <mxCell id="5CA3MVBMeVVRLOGD6PGF-345" value="" style="endArrow=none;html=1;rounded=0;labelBackgroundColor=none;strokeColor=#788AA3;fontColor=default;" edge="1" parent="1">
          <mxGeometry width="50" height="50" relative="1" as="geometry">
            <mxPoint x="1201" y="480" as="sourcePoint" />
            <mxPoint x="1260" y="420" as="targetPoint" />
          </mxGeometry>
        </mxCell>
        <mxCell id="5CA3MVBMeVVRLOGD6PGF-346" value="&lt;font style=&quot;font-size: 15px;&quot;&gt;sex&lt;/font&gt;" style="ellipse;whiteSpace=wrap;html=1;align=center;labelBackgroundColor=none;fillColor=#B2C9AB;strokeColor=#788AA3;fontColor=#46495D;" vertex="1" parent="1">
          <mxGeometry x="1220" y="410" width="80" height="32" as="geometry" />
        </mxCell>
        <mxCell id="5CA3MVBMeVVRLOGD6PGF-347" value="" style="endArrow=none;html=1;rounded=0;labelBackgroundColor=none;strokeColor=#788AA3;fontColor=default;" edge="1" parent="1">
          <mxGeometry width="50" height="50" relative="1" as="geometry">
            <mxPoint x="1113" y="480" as="sourcePoint" />
            <mxPoint x="1100" y="410" as="targetPoint" />
          </mxGeometry>
        </mxCell>
        <mxCell id="5CA3MVBMeVVRLOGD6PGF-348" value="&lt;font style=&quot;font-size: 15px;&quot;&gt;userID&lt;/font&gt;" style="ellipse;whiteSpace=wrap;html=1;align=center;fontStyle=4;labelBackgroundColor=none;fillColor=#B2C9AB;strokeColor=#788AA3;fontColor=#46495D;" vertex="1" parent="1">
          <mxGeometry x="1050" y="382" width="80" height="30" as="geometry" />
        </mxCell>
        <mxCell id="5CA3MVBMeVVRLOGD6PGF-349" value="" style="endArrow=none;html=1;rounded=0;labelBackgroundColor=none;strokeColor=#788AA3;fontColor=default;" edge="1" parent="1">
          <mxGeometry width="50" height="50" relative="1" as="geometry">
            <mxPoint x="1140" y="478" as="sourcePoint" />
            <mxPoint x="1150" y="380" as="targetPoint" />
          </mxGeometry>
        </mxCell>
        <mxCell id="5CA3MVBMeVVRLOGD6PGF-350" value="&lt;font style=&quot;font-size: 15px;&quot;&gt;phone_number&lt;/font&gt;" style="ellipse;whiteSpace=wrap;html=1;align=center;labelBackgroundColor=none;fillColor=#B2C9AB;strokeColor=#788AA3;fontColor=#46495D;" vertex="1" parent="1">
          <mxGeometry x="1070" y="340" width="140" height="40" as="geometry" />
        </mxCell>
        <mxCell id="5CA3MVBMeVVRLOGD6PGF-351" value="" style="endArrow=none;html=1;rounded=0;labelBackgroundColor=none;strokeColor=#788AA3;fontColor=default;" edge="1" parent="1" source="5CA3MVBMeVVRLOGD6PGF-352">
          <mxGeometry width="50" height="50" relative="1" as="geometry">
            <mxPoint x="1167" y="478" as="sourcePoint" />
            <mxPoint x="1210" y="400" as="targetPoint" />
          </mxGeometry>
        </mxCell>
        <mxCell id="5CA3MVBMeVVRLOGD6PGF-353" value="" style="endArrow=none;html=1;rounded=0;exitX=0.5;exitY=0;exitDx=0;exitDy=0;labelBackgroundColor=none;strokeColor=#788AA3;fontColor=default;" edge="1" parent="1">
          <mxGeometry width="50" height="50" relative="1" as="geometry">
            <mxPoint x="1345" y="414" as="sourcePoint" />
            <mxPoint x="1320" y="442" as="targetPoint" />
            <Array as="points">
              <mxPoint x="1320" y="442" />
            </Array>
          </mxGeometry>
        </mxCell>
        <mxCell id="5CA3MVBMeVVRLOGD6PGF-354" value="&lt;font style=&quot;font-size: 15px;&quot;&gt;first_name&lt;/font&gt;" style="ellipse;whiteSpace=wrap;html=1;align=center;labelBackgroundColor=none;fillColor=#B2C9AB;strokeColor=#788AA3;fontColor=#46495D;" vertex="1" parent="1">
          <mxGeometry x="1300" y="392" width="100" height="40" as="geometry" />
        </mxCell>
        <mxCell id="5CA3MVBMeVVRLOGD6PGF-355" value="" style="endArrow=none;html=1;rounded=0;exitX=1;exitY=1;exitDx=0;exitDy=0;labelBackgroundColor=none;strokeColor=#788AA3;fontColor=default;" edge="1" parent="1" source="5CA3MVBMeVVRLOGD6PGF-357" target="5CA3MVBMeVVRLOGD6PGF-356">
          <mxGeometry width="50" height="50" relative="1" as="geometry">
            <mxPoint x="1390" y="432" as="sourcePoint" />
            <mxPoint x="1477" y="418" as="targetPoint" />
            <Array as="points">
              <mxPoint x="1320" y="470" />
            </Array>
          </mxGeometry>
        </mxCell>
        <mxCell id="5CA3MVBMeVVRLOGD6PGF-356" value="&lt;font style=&quot;font-size: 15px;&quot;&gt;last_name&lt;/font&gt;" style="ellipse;whiteSpace=wrap;html=1;align=center;labelBackgroundColor=none;fillColor=#B2C9AB;strokeColor=#788AA3;fontColor=#46495D;" vertex="1" parent="1">
          <mxGeometry x="1340" y="450" width="100" height="40" as="geometry" />
        </mxCell>
        <mxCell id="5CA3MVBMeVVRLOGD6PGF-357" value="&lt;font style=&quot;font-size: 15px;&quot;&gt;name&lt;/font&gt;" style="ellipse;shape=doubleEllipse;margin=3;whiteSpace=wrap;html=1;align=center;labelBackgroundColor=none;fillColor=#B2C9AB;strokeColor=#788AA3;fontColor=#46495D;" vertex="1" parent="1">
          <mxGeometry x="1260" y="442" width="70" height="38" as="geometry" />
        </mxCell>
        <mxCell id="5CA3MVBMeVVRLOGD6PGF-358" value="" style="endArrow=none;html=1;rounded=0;strokeColor=#788AA3;fontColor=default;fillColor=#B2C9AB;entryX=1;entryY=1;entryDx=0;entryDy=0;exitX=0;exitY=0;exitDx=0;exitDy=0;labelBackgroundColor=none;" edge="1" parent="1" source="5CA3MVBMeVVRLOGD6PGF-1" target="5CA3MVBMeVVRLOGD6PGF-342">
          <mxGeometry width="50" height="50" relative="1" as="geometry">
            <mxPoint x="1020" y="510" as="sourcePoint" />
            <mxPoint x="1070" y="460" as="targetPoint" />
          </mxGeometry>
        </mxCell>
        <mxCell id="5CA3MVBMeVVRLOGD6PGF-359" value="&lt;font style=&quot;font-size: 11px;&quot;&gt;question_text&lt;/font&gt;" style="ellipse;whiteSpace=wrap;html=1;align=center;labelBackgroundColor=none;fillColor=#B2C9AB;strokeColor=#788AA3;fontColor=#46495D;" vertex="1" parent="1">
          <mxGeometry x="1410" y="1260" width="70" height="20" as="geometry" />
        </mxCell>
        <mxCell id="5CA3MVBMeVVRLOGD6PGF-360" value="" style="endArrow=none;html=1;rounded=0;strokeColor=#788AA3;fontColor=default;fillColor=#B2C9AB;exitX=0.626;exitY=0.039;exitDx=0;exitDy=0;exitPerimeter=0;labelBackgroundColor=none;" edge="1" parent="1" source="5CA3MVBMeVVRLOGD6PGF-359">
          <mxGeometry width="50" height="50" relative="1" as="geometry">
            <mxPoint x="1400" y="1290" as="sourcePoint" />
            <mxPoint x="1450" y="1240" as="targetPoint" />
          </mxGeometry>
        </mxCell>
        <mxCell id="5CA3MVBMeVVRLOGD6PGF-361" value="" style="endArrow=none;html=1;rounded=0;labelBackgroundColor=none;strokeColor=#788AA3;fontColor=default;" edge="1" parent="1" target="5CA3MVBMeVVRLOGD6PGF-352">
          <mxGeometry width="50" height="50" relative="1" as="geometry">
            <mxPoint x="1167" y="478" as="sourcePoint" />
            <mxPoint x="1210" y="400" as="targetPoint" />
          </mxGeometry>
        </mxCell>
        <mxCell id="5CA3MVBMeVVRLOGD6PGF-352" value="&lt;font style=&quot;font-size: 15px;&quot;&gt;birth_date&lt;/font&gt;" style="ellipse;whiteSpace=wrap;html=1;align=center;fontSize=20;labelBackgroundColor=none;fillColor=#B2C9AB;strokeColor=#788AA3;fontColor=#46495D;" vertex="1" parent="1">
          <mxGeometry x="1180" y="370" width="90" height="32" as="geometry" />
        </mxCell>
        <mxCell id="5CA3MVBMeVVRLOGD6PGF-363" value="HAS" style="text;html=1;align=center;verticalAlign=middle;whiteSpace=wrap;rounded=0;fontColor=#46495D;labelBackgroundColor=none;" vertex="1" parent="1">
          <mxGeometry x="2070" y="835" width="60" height="30" as="geometry" />
        </mxCell>
        <mxCell id="5CA3MVBMeVVRLOGD6PGF-369" value="" style="endArrow=none;html=1;rounded=0;exitX=1;exitY=0;exitDx=0;exitDy=0;labelBackgroundColor=none;strokeColor=#788AA3;fontColor=default;" edge="1" parent="1">
          <mxGeometry width="50" height="50" relative="1" as="geometry">
            <mxPoint x="2340" y="1640" as="sourcePoint" />
            <mxPoint x="2367.5" y="1620" as="targetPoint" />
          </mxGeometry>
        </mxCell>
        <mxCell id="5CA3MVBMeVVRLOGD6PGF-370" value="" style="endArrow=none;html=1;rounded=0;exitX=0.995;exitY=0.367;exitDx=0;exitDy=0;exitPerimeter=0;labelBackgroundColor=none;strokeColor=#788AA3;fontColor=default;" edge="1" parent="1">
          <mxGeometry width="50" height="50" relative="1" as="geometry">
            <mxPoint x="2358.7499999999995" y="1640" as="sourcePoint" />
            <mxPoint x="2410" y="1640" as="targetPoint" />
          </mxGeometry>
        </mxCell>
        <mxCell id="5CA3MVBMeVVRLOGD6PGF-371" value="" style="endArrow=none;html=1;rounded=0;exitX=0.987;exitY=0.591;exitDx=0;exitDy=0;exitPerimeter=0;entryX=0.021;entryY=0.354;entryDx=0;entryDy=0;entryPerimeter=0;labelBackgroundColor=none;strokeColor=#788AA3;fontColor=default;" edge="1" parent="1" source="5CA3MVBMeVVRLOGD6PGF-138" target="5CA3MVBMeVVRLOGD6PGF-376">
          <mxGeometry width="50" height="50" relative="1" as="geometry">
            <mxPoint x="2365.75" y="1663.6699999999998" as="sourcePoint" />
            <mxPoint x="2423.75" y="1663.6699999999998" as="targetPoint" />
          </mxGeometry>
        </mxCell>
        <mxCell id="5CA3MVBMeVVRLOGD6PGF-372" value="" style="endArrow=none;html=1;rounded=0;exitX=0.995;exitY=0.367;exitDx=0;exitDy=0;exitPerimeter=0;labelBackgroundColor=none;strokeColor=#788AA3;fontColor=default;" edge="1" parent="1">
          <mxGeometry width="50" height="50" relative="1" as="geometry">
            <mxPoint x="2360" y="1680" as="sourcePoint" />
            <mxPoint x="2408" y="1705" as="targetPoint" />
          </mxGeometry>
        </mxCell>
        <mxCell id="5CA3MVBMeVVRLOGD6PGF-373" value="" style="endArrow=none;html=1;rounded=0;exitX=0.802;exitY=1.047;exitDx=0;exitDy=0;exitPerimeter=0;labelBackgroundColor=none;strokeColor=#788AA3;fontColor=default;" edge="1" parent="1">
          <mxGeometry width="50" height="50" relative="1" as="geometry">
            <mxPoint x="2332.49" y="1680" as="sourcePoint" />
            <mxPoint x="2363.75" y="1727.1799999999998" as="targetPoint" />
          </mxGeometry>
        </mxCell>
        <mxCell id="5CA3MVBMeVVRLOGD6PGF-374" value="status" style="ellipse;whiteSpace=wrap;html=1;labelBackgroundColor=none;fillColor=#B2C9AB;strokeColor=#788AA3;fontColor=#46495D;" vertex="1" parent="1">
          <mxGeometry x="2363.75" y="1600" width="60" height="30" as="geometry" />
        </mxCell>
        <mxCell id="5CA3MVBMeVVRLOGD6PGF-375" value="shipping_date" style="ellipse;whiteSpace=wrap;html=1;labelBackgroundColor=none;fillColor=#B2C9AB;strokeColor=#788AA3;fontColor=#46495D;" vertex="1" parent="1">
          <mxGeometry x="2411.25" y="1624" width="85" height="30" as="geometry" />
        </mxCell>
        <mxCell id="5CA3MVBMeVVRLOGD6PGF-376" value="expected_date" style="ellipse;whiteSpace=wrap;html=1;labelBackgroundColor=none;fillColor=#B2C9AB;strokeColor=#788AA3;fontColor=#46495D;" vertex="1" parent="1">
          <mxGeometry x="2423.75" y="1654" width="95" height="30" as="geometry" />
        </mxCell>
        <mxCell id="5CA3MVBMeVVRLOGD6PGF-377" value="arrival_date" style="ellipse;whiteSpace=wrap;html=1;labelBackgroundColor=none;fillColor=#B2C9AB;strokeColor=#788AA3;fontColor=#46495D;" vertex="1" parent="1">
          <mxGeometry x="2400" y="1700" width="73.75" height="30" as="geometry" />
        </mxCell>
        <mxCell id="5CA3MVBMeVVRLOGD6PGF-378" value="shipment_id" style="ellipse;whiteSpace=wrap;html=1;labelBackgroundColor=none;fillColor=#B2C9AB;strokeColor=#788AA3;fontColor=#46495D;" vertex="1" parent="1">
          <mxGeometry x="2325" y="1720" width="70" height="30" as="geometry" />
        </mxCell>
        <mxCell id="5CA3MVBMeVVRLOGD6PGF-381" value="carrier_id" style="ellipse;whiteSpace=wrap;html=1;labelBackgroundColor=none;fillColor=#B2C9AB;strokeColor=#788AA3;fontColor=#46495D;" vertex="1" parent="1">
          <mxGeometry x="2358.75" y="1900" width="70" height="30" as="geometry" />
        </mxCell>
        <mxCell id="5CA3MVBMeVVRLOGD6PGF-382" value="name" style="ellipse;whiteSpace=wrap;html=1;labelBackgroundColor=none;fillColor=#B2C9AB;strokeColor=#788AA3;fontColor=#46495D;" vertex="1" parent="1">
          <mxGeometry x="2397.5" y="1945" width="70" height="30" as="geometry" />
        </mxCell>
        <mxCell id="5CA3MVBMeVVRLOGD6PGF-383" value="" style="endArrow=none;html=1;rounded=0;labelBackgroundColor=none;strokeColor=#788AA3;fontColor=default;" edge="1" parent="1">
          <mxGeometry relative="1" as="geometry">
            <mxPoint x="2360" y="1960" as="sourcePoint" />
            <mxPoint x="2397.5" y="1960" as="targetPoint" />
          </mxGeometry>
        </mxCell>
        <mxCell id="5CA3MVBMeVVRLOGD6PGF-384" value="" style="endArrow=none;html=1;rounded=0;exitX=0.999;exitY=0.892;exitDx=0;exitDy=0;exitPerimeter=0;labelBackgroundColor=none;strokeColor=#788AA3;fontColor=default;" edge="1" parent="1" source="5CA3MVBMeVVRLOGD6PGF-151">
          <mxGeometry width="50" height="50" relative="1" as="geometry">
            <mxPoint x="2356" y="1990" as="sourcePoint" />
            <mxPoint x="2390" y="2020" as="targetPoint" />
          </mxGeometry>
        </mxCell>
        <mxCell id="5CA3MVBMeVVRLOGD6PGF-385" value="contact" style="ellipse;whiteSpace=wrap;html=1;labelBackgroundColor=none;fillColor=#B2C9AB;strokeColor=#788AA3;fontColor=#46495D;" vertex="1" parent="1">
          <mxGeometry x="2370" y="2010" width="70" height="30" as="geometry" />
        </mxCell>
        <mxCell id="5CA3MVBMeVVRLOGD6PGF-386" value="" style="endArrow=none;html=1;rounded=0;strokeColor=#788AA3;fontColor=default;fillColor=#B2C9AB;exitX=0.888;exitY=-0.019;exitDx=0;exitDy=0;exitPerimeter=0;entryX=0;entryY=1;entryDx=0;entryDy=0;labelBackgroundColor=none;" edge="1" parent="1" source="5CA3MVBMeVVRLOGD6PGF-151" target="5CA3MVBMeVVRLOGD6PGF-381">
          <mxGeometry width="50" height="50" relative="1" as="geometry">
            <mxPoint x="2330" y="1950" as="sourcePoint" />
            <mxPoint x="2380" y="1900" as="targetPoint" />
          </mxGeometry>
        </mxCell>
        <mxCell id="5CA3MVBMeVVRLOGD6PGF-387" value="N" style="text;html=1;align=center;verticalAlign=middle;whiteSpace=wrap;rounded=0;fontColor=#46495D;labelBackgroundColor=none;" vertex="1" parent="1">
          <mxGeometry x="2235" y="1780" width="60" height="30" as="geometry" />
        </mxCell>
        <mxCell id="5CA3MVBMeVVRLOGD6PGF-388" value="M" style="text;html=1;align=center;verticalAlign=middle;whiteSpace=wrap;rounded=0;fontColor=#46495D;labelBackgroundColor=none;" vertex="1" parent="1">
          <mxGeometry x="2240" y="1860" width="60" height="30" as="geometry" />
        </mxCell>
        <mxCell id="5CA3MVBMeVVRLOGD6PGF-424" value="Method_id" style="ellipse;whiteSpace=wrap;html=1;labelBackgroundColor=none;fillColor=#B2C9AB;strokeColor=#788AA3;fontColor=#46495D;" vertex="1" parent="1">
          <mxGeometry x="1460" y="332" width="90" height="50" as="geometry" />
        </mxCell>
        <mxCell id="5CA3MVBMeVVRLOGD6PGF-425" value="d" style="ellipse;whiteSpace=wrap;html=1;labelBackgroundColor=none;fillColor=#B2C9AB;strokeColor=#788AA3;fontColor=#46495D;" vertex="1" parent="1">
          <mxGeometry x="1720" y="402" width="40" height="40" as="geometry" />
        </mxCell>
        <mxCell id="5CA3MVBMeVVRLOGD6PGF-426" value="CREDIT_CARD" style="rounded=1;whiteSpace=wrap;html=1;labelBackgroundColor=none;fillColor=#B2C9AB;strokeColor=#788AA3;fontColor=#46495D;" vertex="1" parent="1">
          <mxGeometry x="1850" y="282" width="110" height="30" as="geometry" />
        </mxCell>
        <mxCell id="5CA3MVBMeVVRLOGD6PGF-427" value="GOOGLE_PAY&lt;div&gt;&lt;br&gt;&lt;/div&gt;" style="rounded=1;whiteSpace=wrap;html=1;labelBackgroundColor=none;fillColor=#B2C9AB;strokeColor=#788AA3;fontColor=#46495D;" vertex="1" parent="1">
          <mxGeometry x="1605" y="302" width="110" height="30" as="geometry" />
        </mxCell>
        <mxCell id="5CA3MVBMeVVRLOGD6PGF-428" value="AMAZON_PAY" style="rounded=1;whiteSpace=wrap;html=1;labelBackgroundColor=none;fillColor=#B2C9AB;strokeColor=#788AA3;fontColor=#46495D;" vertex="1" parent="1">
          <mxGeometry x="1720" y="282" width="110" height="30" as="geometry" />
        </mxCell>
        <mxCell id="5CA3MVBMeVVRLOGD6PGF-429" value="Google_acc_mail" style="ellipse;whiteSpace=wrap;html=1;labelBackgroundColor=none;fillColor=#B2C9AB;strokeColor=#788AA3;fontColor=#46495D;" vertex="1" parent="1">
          <mxGeometry x="1500" y="182" width="110" height="70" as="geometry" />
        </mxCell>
        <mxCell id="5CA3MVBMeVVRLOGD6PGF-430" value="Pay_token" style="ellipse;whiteSpace=wrap;html=1;labelBackgroundColor=none;fillColor=#B2C9AB;strokeColor=#788AA3;fontColor=#46495D;" vertex="1" parent="1">
          <mxGeometry x="1500" y="392" width="90" height="50" as="geometry" />
        </mxCell>
        <mxCell id="5CA3MVBMeVVRLOGD6PGF-431" value="" style="endArrow=none;html=1;rounded=0;entryX=0.933;entryY=0.836;entryDx=0;entryDy=0;entryPerimeter=0;exitX=0.5;exitY=0;exitDx=0;exitDy=0;labelBackgroundColor=none;strokeColor=#788AA3;fontColor=default;" edge="1" parent="1" source="5CA3MVBMeVVRLOGD6PGF-427" target="5CA3MVBMeVVRLOGD6PGF-429">
          <mxGeometry width="50" height="50" relative="1" as="geometry">
            <mxPoint x="1640" y="312" as="sourcePoint" />
            <mxPoint x="1640" y="222" as="targetPoint" />
            <Array as="points">
              <mxPoint x="1620" y="272" />
            </Array>
          </mxGeometry>
        </mxCell>
        <mxCell id="5CA3MVBMeVVRLOGD6PGF-432" value="" style="endArrow=none;html=1;rounded=0;exitX=1;exitY=0.5;exitDx=0;exitDy=0;labelBackgroundColor=none;strokeColor=#788AA3;fontColor=default;" edge="1" parent="1" source="5CA3MVBMeVVRLOGD6PGF-430">
          <mxGeometry width="50" height="50" relative="1" as="geometry">
            <mxPoint x="1620" y="422" as="sourcePoint" />
            <mxPoint x="1620" y="332" as="targetPoint" />
            <Array as="points">
              <mxPoint x="1620" y="392" />
            </Array>
          </mxGeometry>
        </mxCell>
        <mxCell id="5CA3MVBMeVVRLOGD6PGF-433" value="Amazon_acc_mail" style="ellipse;whiteSpace=wrap;html=1;labelBackgroundColor=none;fillColor=#B2C9AB;strokeColor=#788AA3;fontColor=#46495D;" vertex="1" parent="1">
          <mxGeometry x="1660" y="102" width="110" height="70" as="geometry" />
        </mxCell>
        <mxCell id="5CA3MVBMeVVRLOGD6PGF-434" value="Pay_token" style="ellipse;whiteSpace=wrap;html=1;labelBackgroundColor=none;fillColor=#B2C9AB;strokeColor=#788AA3;fontColor=#46495D;" vertex="1" parent="1">
          <mxGeometry x="1860" y="102" width="90" height="50" as="geometry" />
        </mxCell>
        <mxCell id="5CA3MVBMeVVRLOGD6PGF-435" value="" style="endArrow=none;html=1;rounded=0;exitX=0.75;exitY=0;exitDx=0;exitDy=0;labelBackgroundColor=none;strokeColor=#788AA3;fontColor=default;" edge="1" parent="1" source="5CA3MVBMeVVRLOGD6PGF-428">
          <mxGeometry width="50" height="50" relative="1" as="geometry">
            <mxPoint x="1840" y="252" as="sourcePoint" />
            <mxPoint x="1840" y="162" as="targetPoint" />
            <Array as="points">
              <mxPoint x="1840" y="222" />
            </Array>
          </mxGeometry>
        </mxCell>
        <mxCell id="5CA3MVBMeVVRLOGD6PGF-436" value="" style="endArrow=none;html=1;rounded=0;exitX=0.364;exitY=0;exitDx=0;exitDy=0;exitPerimeter=0;labelBackgroundColor=none;strokeColor=#788AA3;fontColor=default;" edge="1" parent="1" source="5CA3MVBMeVVRLOGD6PGF-428">
          <mxGeometry width="50" height="50" relative="1" as="geometry">
            <mxPoint x="1700" y="262" as="sourcePoint" />
            <mxPoint x="1700" y="172" as="targetPoint" />
            <Array as="points">
              <mxPoint x="1700" y="232" />
            </Array>
          </mxGeometry>
        </mxCell>
        <mxCell id="5CA3MVBMeVVRLOGD6PGF-437" value="Card_no&lt;div&gt;&lt;br&gt;&lt;/div&gt;" style="ellipse;whiteSpace=wrap;html=1;labelBackgroundColor=none;fillColor=#B2C9AB;strokeColor=#788AA3;fontColor=#46495D;" vertex="1" parent="1">
          <mxGeometry x="1880" y="192" width="90" height="50" as="geometry" />
        </mxCell>
        <mxCell id="5CA3MVBMeVVRLOGD6PGF-438" value="Cvv&lt;div&gt;&lt;br&gt;&lt;/div&gt;" style="ellipse;whiteSpace=wrap;html=1;labelBackgroundColor=none;fillColor=#B2C9AB;strokeColor=#788AA3;fontColor=#46495D;" vertex="1" parent="1">
          <mxGeometry x="2000" y="202" width="90" height="50" as="geometry" />
        </mxCell>
        <mxCell id="5CA3MVBMeVVRLOGD6PGF-439" value="" style="endArrow=none;html=1;rounded=0;exitX=0.75;exitY=0;exitDx=0;exitDy=0;labelBackgroundColor=none;strokeColor=#788AA3;fontColor=default;" edge="1" parent="1" source="5CA3MVBMeVVRLOGD6PGF-426">
          <mxGeometry width="50" height="50" relative="1" as="geometry">
            <mxPoint x="1920" y="272" as="sourcePoint" />
            <mxPoint x="1920" y="242" as="targetPoint" />
            <Array as="points">
              <mxPoint x="1920" y="262" />
              <mxPoint x="1923" y="252" />
              <mxPoint x="1920" y="242" />
            </Array>
          </mxGeometry>
        </mxCell>
        <mxCell id="5CA3MVBMeVVRLOGD6PGF-440" value="" style="endArrow=none;html=1;rounded=0;exitX=1;exitY=0;exitDx=0;exitDy=0;labelBackgroundColor=none;strokeColor=#788AA3;fontColor=default;" edge="1" parent="1" source="5CA3MVBMeVVRLOGD6PGF-426">
          <mxGeometry width="50" height="50" relative="1" as="geometry">
            <mxPoint x="2044.5500000000002" y="342" as="sourcePoint" />
            <mxPoint x="2044.5500000000002" y="252" as="targetPoint" />
            <Array as="points">
              <mxPoint x="2010" y="272" />
            </Array>
          </mxGeometry>
        </mxCell>
        <mxCell id="5CA3MVBMeVVRLOGD6PGF-441" value="Added_date" style="ellipse;whiteSpace=wrap;html=1;labelBackgroundColor=none;fillColor=#B2C9AB;strokeColor=#788AA3;fontColor=#46495D;" vertex="1" parent="1">
          <mxGeometry x="1450" y="272" width="90" height="50" as="geometry" />
        </mxCell>
        <mxCell id="5CA3MVBMeVVRLOGD6PGF-442" value="Method_id" style="ellipse;whiteSpace=wrap;html=1;labelBackgroundColor=none;fillColor=#B2C9AB;strokeColor=#788AA3;fontColor=#46495D;" vertex="1" parent="1">
          <mxGeometry x="1990" y="332" width="90" height="50" as="geometry" />
        </mxCell>
        <mxCell id="5CA3MVBMeVVRLOGD6PGF-443" value="Added_date" style="ellipse;whiteSpace=wrap;html=1;labelBackgroundColor=none;fillColor=#B2C9AB;strokeColor=#788AA3;fontColor=#46495D;" vertex="1" parent="1">
          <mxGeometry x="2010" y="272" width="90" height="50" as="geometry" />
        </mxCell>
        <mxCell id="5CA3MVBMeVVRLOGD6PGF-444" value="Added_date" style="ellipse;whiteSpace=wrap;html=1;labelBackgroundColor=none;fillColor=#B2C9AB;strokeColor=#788AA3;fontColor=#46495D;" vertex="1" parent="1">
          <mxGeometry x="1570" y="112" width="90" height="50" as="geometry" />
        </mxCell>
        <mxCell id="5CA3MVBMeVVRLOGD6PGF-445" value="Method_id" style="ellipse;whiteSpace=wrap;html=1;labelBackgroundColor=none;fillColor=#B2C9AB;strokeColor=#788AA3;fontColor=#46495D;" vertex="1" parent="1">
          <mxGeometry x="1780" y="122" width="90" height="50" as="geometry" />
        </mxCell>
        <mxCell id="5CA3MVBMeVVRLOGD6PGF-446" value="" style="endArrow=none;html=1;rounded=0;labelBackgroundColor=none;strokeColor=#788AA3;fontColor=default;" edge="1" parent="1" source="5CA3MVBMeVVRLOGD6PGF-428">
          <mxGeometry width="50" height="50" relative="1" as="geometry">
            <mxPoint x="1890" y="192" as="sourcePoint" />
            <mxPoint x="1890" y="152" as="targetPoint" />
            <Array as="points">
              <mxPoint x="1890" y="162" />
            </Array>
          </mxGeometry>
        </mxCell>
        <mxCell id="5CA3MVBMeVVRLOGD6PGF-447" value="" style="endArrow=none;html=1;rounded=0;exitX=0;exitY=0.5;exitDx=0;exitDy=0;labelBackgroundColor=none;strokeColor=#788AA3;fontColor=default;" edge="1" parent="1" source="5CA3MVBMeVVRLOGD6PGF-428">
          <mxGeometry width="50" height="50" relative="1" as="geometry">
            <mxPoint x="1630" y="202" as="sourcePoint" />
            <mxPoint x="1630" y="162" as="targetPoint" />
            <Array as="points">
              <mxPoint x="1630" y="172" />
            </Array>
          </mxGeometry>
        </mxCell>
        <mxCell id="5CA3MVBMeVVRLOGD6PGF-448" value="" style="endArrow=none;html=1;rounded=0;entryX=1;entryY=0.5;entryDx=0;entryDy=0;exitX=0.064;exitY=0.74;exitDx=0;exitDy=0;exitPerimeter=0;labelBackgroundColor=none;strokeColor=#788AA3;fontColor=default;" edge="1" parent="1" source="5CA3MVBMeVVRLOGD6PGF-443">
          <mxGeometry width="50" height="50" relative="1" as="geometry">
            <mxPoint x="1990" y="312" as="sourcePoint" />
            <mxPoint x="1920" y="312" as="targetPoint" />
            <Array as="points" />
          </mxGeometry>
        </mxCell>
        <mxCell id="5CA3MVBMeVVRLOGD6PGF-449" value="" style="endArrow=none;html=1;rounded=0;entryX=1;entryY=0.5;entryDx=0;entryDy=0;exitX=0;exitY=0;exitDx=0;exitDy=0;labelBackgroundColor=none;strokeColor=#788AA3;fontColor=default;" edge="1" parent="1" source="5CA3MVBMeVVRLOGD6PGF-442">
          <mxGeometry width="50" height="50" relative="1" as="geometry">
            <mxPoint x="2010" y="312" as="sourcePoint" />
            <mxPoint x="1940" y="312" as="targetPoint" />
            <Array as="points" />
          </mxGeometry>
        </mxCell>
        <mxCell id="5CA3MVBMeVVRLOGD6PGF-450" value="" style="endArrow=none;html=1;rounded=0;entryX=1;entryY=0.5;entryDx=0;entryDy=0;labelBackgroundColor=none;strokeColor=#788AA3;fontColor=default;" edge="1" parent="1">
          <mxGeometry width="50" height="50" relative="1" as="geometry">
            <mxPoint x="1600" y="312" as="sourcePoint" />
            <mxPoint x="1530" y="302" as="targetPoint" />
            <Array as="points" />
          </mxGeometry>
        </mxCell>
        <mxCell id="5CA3MVBMeVVRLOGD6PGF-451" value="" style="endArrow=none;html=1;rounded=0;labelBackgroundColor=none;strokeColor=#788AA3;fontColor=default;" edge="1" parent="1" source="5CA3MVBMeVVRLOGD6PGF-427">
          <mxGeometry width="50" height="50" relative="1" as="geometry">
            <mxPoint x="1620" y="342" as="sourcePoint" />
            <mxPoint x="1550" y="342" as="targetPoint" />
            <Array as="points" />
          </mxGeometry>
        </mxCell>
        <mxCell id="5CA3MVBMeVVRLOGD6PGF-452" value="" style="endArrow=none;html=1;rounded=0;entryX=1;entryY=0.5;entryDx=0;entryDy=0;labelBackgroundColor=none;strokeColor=#788AA3;fontColor=default;" edge="1" parent="1">
          <mxGeometry width="50" height="50" relative="1" as="geometry">
            <mxPoint x="1870" y="152" as="sourcePoint" />
            <mxPoint x="1800" y="152" as="targetPoint" />
            <Array as="points" />
          </mxGeometry>
        </mxCell>
        <mxCell id="5CA3MVBMeVVRLOGD6PGF-453" value="" style="endArrow=none;html=1;rounded=0;entryX=1;entryY=0.5;entryDx=0;entryDy=0;labelBackgroundColor=none;strokeColor=#788AA3;fontColor=default;" edge="1" parent="1">
          <mxGeometry width="50" height="50" relative="1" as="geometry">
            <mxPoint x="1540" y="362" as="sourcePoint" />
            <mxPoint x="1470" y="362" as="targetPoint" />
            <Array as="points" />
          </mxGeometry>
        </mxCell>
        <mxCell id="5CA3MVBMeVVRLOGD6PGF-454" value="" style="endArrow=none;html=1;rounded=0;entryX=1;entryY=0.5;entryDx=0;entryDy=0;labelBackgroundColor=none;strokeColor=#788AA3;fontColor=default;" edge="1" parent="1">
          <mxGeometry width="50" height="50" relative="1" as="geometry">
            <mxPoint x="2080" y="362" as="sourcePoint" />
            <mxPoint x="2010" y="362" as="targetPoint" />
            <Array as="points" />
          </mxGeometry>
        </mxCell>
        <mxCell id="5CA3MVBMeVVRLOGD6PGF-458" value="" style="endArrow=none;html=1;rounded=0;strokeColor=#788AA3;fontColor=default;fillColor=#B2C9AB;exitX=0.053;exitY=0.281;exitDx=0;exitDy=0;exitPerimeter=0;labelBackgroundColor=none;" edge="1" parent="1" source="5CA3MVBMeVVRLOGD6PGF-425" target="5CA3MVBMeVVRLOGD6PGF-427">
          <mxGeometry width="50" height="50" relative="1" as="geometry">
            <mxPoint x="1720" y="411" as="sourcePoint" />
            <mxPoint x="1770" y="360" as="targetPoint" />
          </mxGeometry>
        </mxCell>
        <mxCell id="5CA3MVBMeVVRLOGD6PGF-459" value="" style="endArrow=none;html=1;rounded=0;strokeColor=#788AA3;fontColor=default;fillColor=#B2C9AB;entryX=0.545;entryY=1.002;entryDx=0;entryDy=0;entryPerimeter=0;exitX=0.5;exitY=0;exitDx=0;exitDy=0;labelBackgroundColor=none;" edge="1" parent="1" source="5CA3MVBMeVVRLOGD6PGF-425" target="5CA3MVBMeVVRLOGD6PGF-428">
          <mxGeometry width="50" height="50" relative="1" as="geometry">
            <mxPoint x="1730" y="360" as="sourcePoint" />
            <mxPoint x="1780" y="310" as="targetPoint" />
          </mxGeometry>
        </mxCell>
        <mxCell id="5CA3MVBMeVVRLOGD6PGF-460" value="" style="endArrow=none;html=1;rounded=0;strokeColor=#788AA3;fontColor=default;fillColor=#B2C9AB;exitX=0.944;exitY=0.216;exitDx=0;exitDy=0;exitPerimeter=0;entryX=0.396;entryY=1.054;entryDx=0;entryDy=0;entryPerimeter=0;labelBackgroundColor=none;" edge="1" parent="1" source="5CA3MVBMeVVRLOGD6PGF-425" target="5CA3MVBMeVVRLOGD6PGF-426">
          <mxGeometry width="50" height="50" relative="1" as="geometry">
            <mxPoint x="1760" y="410" as="sourcePoint" />
            <mxPoint x="1810" y="360" as="targetPoint" />
          </mxGeometry>
        </mxCell>
        <mxCell id="5CA3MVBMeVVRLOGD6PGF-464" value="&lt;font style=&quot;font-size: 14px;&quot;&gt;status&lt;/font&gt;" style="ellipse;whiteSpace=wrap;html=1;align=center;labelBackgroundColor=none;fillColor=#B2C9AB;strokeColor=#788AA3;fontColor=#46495D;" vertex="1" parent="1">
          <mxGeometry x="2530" y="935" width="100" height="40" as="geometry" />
        </mxCell>
        <mxCell id="5CA3MVBMeVVRLOGD6PGF-465" value="&lt;font style=&quot;font-size: 15px;&quot;&gt;payment_status&lt;/font&gt;" style="ellipse;whiteSpace=wrap;html=1;align=center;labelBackgroundColor=none;fillColor=#B2C9AB;strokeColor=#788AA3;fontColor=#46495D;" vertex="1" parent="1">
          <mxGeometry x="2630" y="950" width="110" height="40" as="geometry" />
        </mxCell>
        <mxCell id="5CA3MVBMeVVRLOGD6PGF-466" value="&lt;span style=&quot;border-bottom: 1px dotted&quot;&gt;&lt;font style=&quot;font-size: 14px;&quot;&gt;O_H_ID&lt;/font&gt;&lt;/span&gt;" style="ellipse;whiteSpace=wrap;html=1;align=center;labelBackgroundColor=none;fillColor=#B2C9AB;strokeColor=#788AA3;fontColor=#46495D;" vertex="1" parent="1">
          <mxGeometry x="2460" y="950" width="70" height="30" as="geometry" />
        </mxCell>
        <mxCell id="5CA3MVBMeVVRLOGD6PGF-467" value="" style="endArrow=none;html=1;rounded=0;strokeColor=#788AA3;fontColor=default;fillColor=#B2C9AB;exitX=0;exitY=0;exitDx=0;exitDy=0;labelBackgroundColor=none;" edge="1" parent="1" source="5CA3MVBMeVVRLOGD6PGF-164" target="5CA3MVBMeVVRLOGD6PGF-466">
          <mxGeometry width="50" height="50" relative="1" as="geometry">
            <mxPoint x="2450" y="1040" as="sourcePoint" />
            <mxPoint x="2500" y="990" as="targetPoint" />
          </mxGeometry>
        </mxCell>
        <mxCell id="5CA3MVBMeVVRLOGD6PGF-468" value="" style="endArrow=none;html=1;rounded=0;strokeColor=#788AA3;fontColor=default;fillColor=#B2C9AB;entryX=0.26;entryY=0.948;entryDx=0;entryDy=0;entryPerimeter=0;exitX=0.339;exitY=-0.003;exitDx=0;exitDy=0;exitPerimeter=0;labelBackgroundColor=none;" edge="1" parent="1" source="5CA3MVBMeVVRLOGD6PGF-164" target="5CA3MVBMeVVRLOGD6PGF-464">
          <mxGeometry width="50" height="50" relative="1" as="geometry">
            <mxPoint x="2530" y="1030" as="sourcePoint" />
            <mxPoint x="2580" y="980" as="targetPoint" />
          </mxGeometry>
        </mxCell>
        <mxCell id="5CA3MVBMeVVRLOGD6PGF-469" value="" style="endArrow=none;html=1;rounded=0;strokeColor=#788AA3;fontColor=default;fillColor=#B2C9AB;exitX=1;exitY=0.25;exitDx=0;exitDy=0;labelBackgroundColor=none;" edge="1" parent="1" source="5CA3MVBMeVVRLOGD6PGF-164">
          <mxGeometry width="50" height="50" relative="1" as="geometry">
            <mxPoint x="2630" y="1040" as="sourcePoint" />
            <mxPoint x="2680" y="990" as="targetPoint" />
          </mxGeometry>
        </mxCell>
        <mxCell id="5CA3MVBMeVVRLOGD6PGF-470" value="&lt;font style=&quot;font-size: 10px;&quot;&gt;review_id&lt;/font&gt;" style="ellipse;whiteSpace=wrap;html=1;align=center;fontStyle=4;labelBackgroundColor=none;fillColor=#B2C9AB;strokeColor=#788AA3;fontColor=#46495D;" vertex="1" parent="1">
          <mxGeometry x="1580" y="850" width="60" height="25" as="geometry" />
        </mxCell>
        <mxCell id="5CA3MVBMeVVRLOGD6PGF-471" value="&lt;font style=&quot;font-size: 16px;&quot;&gt;text&lt;/font&gt;" style="ellipse;whiteSpace=wrap;html=1;align=center;labelBackgroundColor=none;fillColor=#B2C9AB;strokeColor=#788AA3;fontColor=#46495D;" vertex="1" parent="1">
          <mxGeometry x="1650" y="825" width="60" height="35" as="geometry" />
        </mxCell>
        <mxCell id="5CA3MVBMeVVRLOGD6PGF-472" value="&lt;font style=&quot;font-size: 15px;&quot;&gt;rating&lt;/font&gt;" style="ellipse;whiteSpace=wrap;html=1;align=center;labelBackgroundColor=none;fillColor=#B2C9AB;strokeColor=#788AA3;fontColor=#46495D;" vertex="1" parent="1">
          <mxGeometry x="1710" y="830" width="75" height="25" as="geometry" />
        </mxCell>
        <mxCell id="5CA3MVBMeVVRLOGD6PGF-473" value="&lt;font style=&quot;font-size: 15px;&quot;&gt;date&lt;/font&gt;" style="ellipse;whiteSpace=wrap;html=1;align=center;labelBackgroundColor=none;fillColor=#B2C9AB;strokeColor=#788AA3;fontColor=#46495D;" vertex="1" parent="1">
          <mxGeometry x="1765" y="845" width="85" height="35" as="geometry" />
        </mxCell>
        <mxCell id="5CA3MVBMeVVRLOGD6PGF-474" value="" style="endArrow=none;html=1;rounded=0;strokeColor=#788AA3;fontColor=default;fillColor=#B2C9AB;entryX=0;entryY=0.5;entryDx=0;entryDy=0;labelBackgroundColor=none;" edge="1" parent="1" target="5CA3MVBMeVVRLOGD6PGF-473">
          <mxGeometry width="50" height="50" relative="1" as="geometry">
            <mxPoint x="1730" y="900" as="sourcePoint" />
            <mxPoint x="1760" y="870" as="targetPoint" />
          </mxGeometry>
        </mxCell>
        <mxCell id="5CA3MVBMeVVRLOGD6PGF-475" value="" style="endArrow=none;html=1;rounded=0;strokeColor=#788AA3;fontColor=default;fillColor=#B2C9AB;entryX=0.424;entryY=1.036;entryDx=0;entryDy=0;entryPerimeter=0;exitX=0.627;exitY=0;exitDx=0;exitDy=0;exitPerimeter=0;labelBackgroundColor=none;" edge="1" parent="1" source="5CA3MVBMeVVRLOGD6PGF-226" target="5CA3MVBMeVVRLOGD6PGF-472">
          <mxGeometry width="50" height="50" relative="1" as="geometry">
            <mxPoint x="1690" y="910" as="sourcePoint" />
            <mxPoint x="1740" y="860" as="targetPoint" />
          </mxGeometry>
        </mxCell>
        <mxCell id="5CA3MVBMeVVRLOGD6PGF-476" value="" style="endArrow=none;html=1;rounded=0;strokeColor=#788AA3;fontColor=default;fillColor=#B2C9AB;exitX=0.455;exitY=-0.004;exitDx=0;exitDy=0;exitPerimeter=0;entryX=0.807;entryY=0.933;entryDx=0;entryDy=0;entryPerimeter=0;labelBackgroundColor=none;" edge="1" parent="1" source="5CA3MVBMeVVRLOGD6PGF-226" target="5CA3MVBMeVVRLOGD6PGF-471">
          <mxGeometry width="50" height="50" relative="1" as="geometry">
            <mxPoint x="1650" y="910" as="sourcePoint" />
            <mxPoint x="1699" y="860" as="targetPoint" />
          </mxGeometry>
        </mxCell>
        <mxCell id="5CA3MVBMeVVRLOGD6PGF-477" value="" style="endArrow=none;html=1;rounded=0;strokeColor=#788AA3;fontColor=default;fillColor=#B2C9AB;exitX=0.355;exitY=0;exitDx=0;exitDy=0;exitPerimeter=0;labelBackgroundColor=none;" edge="1" parent="1" source="5CA3MVBMeVVRLOGD6PGF-226">
          <mxGeometry width="50" height="50" relative="1" as="geometry">
            <mxPoint x="1630" y="910" as="sourcePoint" />
            <mxPoint x="1680" y="860" as="targetPoint" />
          </mxGeometry>
        </mxCell>
        <mxCell id="5CA3MVBMeVVRLOGD6PGF-478" value="" style="endArrow=none;html=1;rounded=0;strokeColor=#788AA3;fontColor=default;fillColor=#B2C9AB;exitX=0.078;exitY=0.023;exitDx=0;exitDy=0;exitPerimeter=0;entryX=1;entryY=1;entryDx=0;entryDy=0;labelBackgroundColor=none;" edge="1" parent="1" source="5CA3MVBMeVVRLOGD6PGF-226" target="5CA3MVBMeVVRLOGD6PGF-470">
          <mxGeometry width="50" height="50" relative="1" as="geometry">
            <mxPoint x="1580" y="920" as="sourcePoint" />
            <mxPoint x="1630" y="870" as="targetPoint" />
          </mxGeometry>
        </mxCell>
        <mxCell id="5CA3MVBMeVVRLOGD6PGF-479" value="" style="endArrow=none;html=1;rounded=0;entryX=0.5;entryY=1;entryDx=0;entryDy=0;labelBackgroundColor=none;strokeColor=#788AA3;fontColor=default;" edge="1" parent="1" source="5CA3MVBMeVVRLOGD6PGF-486">
          <mxGeometry width="50" height="50" relative="1" as="geometry">
            <mxPoint x="1457.5" y="1540" as="sourcePoint" />
            <mxPoint x="1457.5" y="1460" as="targetPoint" />
          </mxGeometry>
        </mxCell>
        <mxCell id="5CA3MVBMeVVRLOGD6PGF-480" value="" style="endArrow=none;html=1;rounded=0;labelBackgroundColor=none;strokeColor=#788AA3;fontColor=default;exitX=0.321;exitY=0.09;exitDx=0;exitDy=0;exitPerimeter=0;" edge="1" parent="1" source="5CA3MVBMeVVRLOGD6PGF-485">
          <mxGeometry width="50" height="50" relative="1" as="geometry">
            <mxPoint x="1487.5" y="1500" as="sourcePoint" />
            <mxPoint x="1468.5" y="1460" as="targetPoint" />
          </mxGeometry>
        </mxCell>
        <mxCell id="5CA3MVBMeVVRLOGD6PGF-481" value="" style="endArrow=none;html=1;rounded=0;exitX=0.848;exitY=0.925;exitDx=0;exitDy=0;exitPerimeter=0;labelBackgroundColor=none;strokeColor=#788AA3;fontColor=default;entryX=0;entryY=0;entryDx=0;entryDy=0;" edge="1" parent="1" target="5CA3MVBMeVVRLOGD6PGF-484">
          <mxGeometry width="50" height="50" relative="1" as="geometry">
            <mxPoint x="1488.5" y="1457" as="sourcePoint" />
            <mxPoint x="1537.5" y="1520" as="targetPoint" />
          </mxGeometry>
        </mxCell>
        <mxCell id="5CA3MVBMeVVRLOGD6PGF-482" value="" style="endArrow=none;html=1;rounded=0;entryX=0.059;entryY=1.015;entryDx=0;entryDy=0;exitX=1;exitY=0;exitDx=0;exitDy=0;entryPerimeter=0;labelBackgroundColor=none;strokeColor=#788AA3;fontColor=default;" edge="1" parent="1" source="5CA3MVBMeVVRLOGD6PGF-487" target="5CA3MVBMeVVRLOGD6PGF-67">
          <mxGeometry width="50" height="50" relative="1" as="geometry">
            <mxPoint x="1437.5" y="1510" as="sourcePoint" />
            <mxPoint x="1440" y="1460" as="targetPoint" />
          </mxGeometry>
        </mxCell>
        <mxCell id="5CA3MVBMeVVRLOGD6PGF-483" value="descp" style="ellipse;whiteSpace=wrap;html=1;labelBackgroundColor=none;fillColor=#B2C9AB;strokeColor=#788AA3;fontColor=#46495D;" vertex="1" parent="1">
          <mxGeometry x="1540" y="1450" width="50" height="30" as="geometry" />
        </mxCell>
        <mxCell id="5CA3MVBMeVVRLOGD6PGF-484" value="isFlash" style="ellipse;whiteSpace=wrap;html=1;labelBackgroundColor=none;fillColor=#B2C9AB;strokeColor=#788AA3;fontColor=#46495D;" vertex="1" parent="1">
          <mxGeometry x="1545" y="1500" width="50" height="30" as="geometry" />
        </mxCell>
        <mxCell id="5CA3MVBMeVVRLOGD6PGF-485" value="stock" style="ellipse;whiteSpace=wrap;html=1;labelBackgroundColor=none;fillColor=#B2C9AB;strokeColor=#788AA3;fontColor=#46495D;" vertex="1" parent="1">
          <mxGeometry x="1490" y="1500" width="50" height="30" as="geometry" />
        </mxCell>
        <mxCell id="5CA3MVBMeVVRLOGD6PGF-486" value="&lt;font style=&quot;font-size: 11px;&quot;&gt;isBestSeller&lt;/font&gt;" style="ellipse;whiteSpace=wrap;html=1;labelBackgroundColor=none;fillColor=#B2C9AB;strokeColor=#788AA3;fontColor=#46495D;" vertex="1" parent="1">
          <mxGeometry x="1395" y="1510" width="57.5" height="43.75" as="geometry" />
        </mxCell>
        <mxCell id="5CA3MVBMeVVRLOGD6PGF-487" value="prdct_id" style="ellipse;whiteSpace=wrap;html=1;labelBackgroundColor=none;fillColor=#B2C9AB;strokeColor=#788AA3;fontColor=#46495D;" vertex="1" parent="1">
          <mxGeometry x="1345" y="1490" width="50" height="30" as="geometry" />
        </mxCell>
        <mxCell id="5CA3MVBMeVVRLOGD6PGF-489" value="" style="endArrow=none;html=1;rounded=0;strokeColor=#788AA3;fontColor=default;fillColor=#B2C9AB;entryX=0.4;entryY=0;entryDx=0;entryDy=0;entryPerimeter=0;exitX=0.992;exitY=0.878;exitDx=0;exitDy=0;exitPerimeter=0;labelBackgroundColor=none;" edge="1" parent="1" source="5CA3MVBMeVVRLOGD6PGF-67" target="5CA3MVBMeVVRLOGD6PGF-483">
          <mxGeometry width="50" height="50" relative="1" as="geometry">
            <mxPoint x="1512.18" y="1455" as="sourcePoint" />
            <mxPoint x="1562.18" y="1405" as="targetPoint" />
          </mxGeometry>
        </mxCell>
        <mxCell id="5CA3MVBMeVVRLOGD6PGF-490" value="" style="endArrow=none;html=1;rounded=0;strokeColor=#788AA3;fontColor=default;fillColor=#B2C9AB;labelBackgroundColor=none;" edge="1" parent="1">
          <mxGeometry width="50" height="50" relative="1" as="geometry">
            <mxPoint x="1420" y="1400" as="sourcePoint" />
            <mxPoint x="1420" y="1360" as="targetPoint" />
          </mxGeometry>
        </mxCell>
        <mxCell id="5CA3MVBMeVVRLOGD6PGF-491" value="name" style="ellipse;whiteSpace=wrap;html=1;align=center;strokeColor=#788AA3;fontColor=#46495D;fillColor=#B2C9AB;labelBackgroundColor=none;" vertex="1" parent="1">
          <mxGeometry x="1375" y="1330" width="80" height="30" as="geometry" />
        </mxCell>
        <mxCell id="5CA3MVBMeVVRLOGD6PGF-492" value="" style="endArrow=none;html=1;rounded=0;strokeColor=#788AA3;fontColor=default;fillColor=#B2C9AB;labelBackgroundColor=none;" edge="1" parent="1">
          <mxGeometry width="50" height="50" relative="1" as="geometry">
            <mxPoint x="1500" y="1400" as="sourcePoint" />
            <mxPoint x="1550" y="1350" as="targetPoint" />
          </mxGeometry>
        </mxCell>
        <mxCell id="5CA3MVBMeVVRLOGD6PGF-493" value="price" style="ellipse;whiteSpace=wrap;html=1;align=center;strokeColor=#788AA3;fontColor=#46495D;fillColor=#B2C9AB;labelBackgroundColor=none;" vertex="1" parent="1">
          <mxGeometry x="1535" y="1325" width="70" height="30" as="geometry" />
        </mxCell>
        <mxCell id="5CA3MVBMeVVRLOGD6PGF-494" value="&lt;span style=&quot;border-bottom: 1px dotted&quot;&gt;store_id&lt;/span&gt;" style="ellipse;whiteSpace=wrap;html=1;align=center;strokeColor=#788AA3;fontColor=#46495D;fillColor=#B2C9AB;labelBackgroundColor=none;" vertex="1" parent="1">
          <mxGeometry x="930" y="1250" width="70" height="20" as="geometry" />
        </mxCell>
        <mxCell id="5CA3MVBMeVVRLOGD6PGF-495" value="" style="endArrow=none;html=1;rounded=0;strokeColor=#788AA3;fontColor=default;fillColor=#B2C9AB;exitX=0.5;exitY=0;exitDx=0;exitDy=0;labelBackgroundColor=none;" edge="1" parent="1" source="5CA3MVBMeVVRLOGD6PGF-66">
          <mxGeometry width="50" height="50" relative="1" as="geometry">
            <mxPoint x="920" y="1320" as="sourcePoint" />
            <mxPoint x="970" y="1270" as="targetPoint" />
          </mxGeometry>
        </mxCell>
        <mxCell id="5CA3MVBMeVVRLOGD6PGF-496" value="" style="endArrow=none;html=1;rounded=0;strokeColor=#788AA3;fontColor=default;fillColor=#B2C9AB;labelBackgroundColor=none;" edge="1" parent="1">
          <mxGeometry width="50" height="50" relative="1" as="geometry">
            <mxPoint x="860" y="1340" as="sourcePoint" />
            <mxPoint x="900" y="1340" as="targetPoint" />
          </mxGeometry>
        </mxCell>
        <mxCell id="5CA3MVBMeVVRLOGD6PGF-497" value="store_name" style="ellipse;whiteSpace=wrap;html=1;align=center;strokeColor=#788AA3;fontColor=#46495D;fillColor=#B2C9AB;labelBackgroundColor=none;" vertex="1" parent="1">
          <mxGeometry x="790" y="1320" width="70" height="40" as="geometry" />
        </mxCell>
        <mxCell id="5CA3MVBMeVVRLOGD6PGF-498" value="date" style="ellipse;whiteSpace=wrap;html=1;align=center;strokeColor=#788AA3;fontColor=#46495D;fillColor=#B2C9AB;labelBackgroundColor=none;" vertex="1" parent="1">
          <mxGeometry x="1000" y="1045" width="60" height="30" as="geometry" />
        </mxCell>
        <mxCell id="5CA3MVBMeVVRLOGD6PGF-499" value="follow_id" style="ellipse;whiteSpace=wrap;html=1;align=center;fontStyle=4;strokeColor=#788AA3;fontColor=#46495D;fillColor=#B2C9AB;labelBackgroundColor=none;" vertex="1" parent="1">
          <mxGeometry x="1090" y="1010" width="70" height="30" as="geometry" />
        </mxCell>
        <mxCell id="5CA3MVBMeVVRLOGD6PGF-500" value="" style="endArrow=none;html=1;rounded=0;strokeColor=#788AA3;fontColor=default;fillColor=#B2C9AB;entryX=0.5;entryY=1;entryDx=0;entryDy=0;exitX=0.5;exitY=0;exitDx=0;exitDy=0;labelBackgroundColor=none;" edge="1" parent="1" source="5CA3MVBMeVVRLOGD6PGF-71" target="5CA3MVBMeVVRLOGD6PGF-499">
          <mxGeometry width="50" height="50" relative="1" as="geometry">
            <mxPoint x="1080" y="1100" as="sourcePoint" />
            <mxPoint x="1130" y="1050" as="targetPoint" />
          </mxGeometry>
        </mxCell>
        <mxCell id="5CA3MVBMeVVRLOGD6PGF-501" value="" style="endArrow=none;html=1;rounded=0;strokeColor=#788AA3;fontColor=default;fillColor=#B2C9AB;exitX=1;exitY=1;exitDx=0;exitDy=0;labelBackgroundColor=none;" edge="1" parent="1" source="5CA3MVBMeVVRLOGD6PGF-498" target="5CA3MVBMeVVRLOGD6PGF-71">
          <mxGeometry width="50" height="50" relative="1" as="geometry">
            <mxPoint x="1050" y="1100" as="sourcePoint" />
            <mxPoint x="1100" y="1050" as="targetPoint" />
          </mxGeometry>
        </mxCell>
        <mxCell id="5CA3MVBMeVVRLOGD6PGF-502" value="&lt;font style=&quot;&quot;&gt;&lt;font style=&quot;font-size: 11px;&quot;&gt;Created_Date&lt;/font&gt;&lt;br&gt;&lt;/font&gt;" style="ellipse;whiteSpace=wrap;html=1;align=center;labelBackgroundColor=none;fillColor=#B2C9AB;strokeColor=#788AA3;fontColor=#46495D;" vertex="1" parent="1">
          <mxGeometry x="1580" y="1180" width="70" height="30" as="geometry" />
        </mxCell>
        <mxCell id="5CA3MVBMeVVRLOGD6PGF-503" value="&lt;font style=&quot;font-size: 16px;&quot;&gt;status&lt;/font&gt;" style="ellipse;whiteSpace=wrap;html=1;align=center;labelBackgroundColor=none;fillColor=#B2C9AB;strokeColor=#788AA3;fontColor=#46495D;" vertex="1" parent="1">
          <mxGeometry x="1705" y="1180" width="65" height="30" as="geometry" />
        </mxCell>
        <mxCell id="5CA3MVBMeVVRLOGD6PGF-504" value="&lt;font&gt;total_amount&lt;/font&gt;" style="ellipse;whiteSpace=wrap;html=1;align=center;labelBackgroundColor=none;fillColor=#B2C9AB;strokeColor=#788AA3;fontColor=#46495D;" vertex="1" parent="1">
          <mxGeometry x="1650" y="1150" width="85" height="30" as="geometry" />
        </mxCell>
        <mxCell id="5CA3MVBMeVVRLOGD6PGF-505" value="" style="endArrow=none;html=1;rounded=0;strokeColor=#788AA3;fontColor=default;fillColor=#B2C9AB;labelBackgroundColor=none;" edge="1" parent="1">
          <mxGeometry width="50" height="50" relative="1" as="geometry">
            <mxPoint x="1710" y="1220" as="sourcePoint" />
            <mxPoint x="1720" y="1210" as="targetPoint" />
            <Array as="points">
              <mxPoint x="1710" y="1220" />
            </Array>
          </mxGeometry>
        </mxCell>
        <mxCell id="5CA3MVBMeVVRLOGD6PGF-506" value="" style="endArrow=none;html=1;rounded=0;strokeColor=#788AA3;fontColor=default;fillColor=#B2C9AB;exitX=0.5;exitY=0;exitDx=0;exitDy=0;labelBackgroundColor=none;" edge="1" parent="1" source="5CA3MVBMeVVRLOGD6PGF-189">
          <mxGeometry width="50" height="50" relative="1" as="geometry">
            <mxPoint x="1635" y="1230" as="sourcePoint" />
            <mxPoint x="1685" y="1180" as="targetPoint" />
          </mxGeometry>
        </mxCell>
        <mxCell id="5CA3MVBMeVVRLOGD6PGF-507" value="" style="endArrow=none;html=1;rounded=0;strokeColor=#788AA3;fontColor=default;fillColor=#B2C9AB;entryX=0.116;entryY=-0.022;entryDx=0;entryDy=0;entryPerimeter=0;exitX=1;exitY=1;exitDx=0;exitDy=0;labelBackgroundColor=none;" edge="1" parent="1" source="5CA3MVBMeVVRLOGD6PGF-502" target="5CA3MVBMeVVRLOGD6PGF-189">
          <mxGeometry width="50" height="50" relative="1" as="geometry">
            <mxPoint x="1600" y="1260" as="sourcePoint" />
            <mxPoint x="1650" y="1210" as="targetPoint" />
          </mxGeometry>
        </mxCell>
        <mxCell id="5CA3MVBMeVVRLOGD6PGF-508" value="card_id" style="ellipse;whiteSpace=wrap;html=1;align=center;fontStyle=4;strokeColor=#788AA3;fontColor=#46495D;fillColor=#B2C9AB;labelBackgroundColor=none;" vertex="1" parent="1">
          <mxGeometry x="1562.18" y="1230" width="65" height="25" as="geometry" />
        </mxCell>
        <mxCell id="5CA3MVBMeVVRLOGD6PGF-509" value="" style="endArrow=none;html=1;rounded=0;strokeColor=#788AA3;fontColor=default;fillColor=#B2C9AB;exitX=0.803;exitY=0.874;exitDx=0;exitDy=0;exitPerimeter=0;labelBackgroundColor=none;" edge="1" parent="1" source="5CA3MVBMeVVRLOGD6PGF-508">
          <mxGeometry width="50" height="50" relative="1" as="geometry">
            <mxPoint x="1610" y="1280" as="sourcePoint" />
            <mxPoint x="1640" y="1250" as="targetPoint" />
          </mxGeometry>
        </mxCell>
        <mxCell id="5CA3MVBMeVVRLOGD6PGF-510" value="&lt;font style=&quot;font-size: 20px;&quot;&gt;limit&lt;/font&gt;" style="ellipse;whiteSpace=wrap;html=1;align=center;labelBackgroundColor=none;fillColor=#B2C9AB;strokeColor=#788AA3;fontColor=#46495D;" vertex="1" parent="1">
          <mxGeometry x="1240" y="2340" width="70" height="30" as="geometry" />
        </mxCell>
        <mxCell id="5CA3MVBMeVVRLOGD6PGF-511" value="&lt;font style=&quot;font-size: 12px;&quot;&gt;coupone_code&lt;/font&gt;" style="ellipse;whiteSpace=wrap;html=1;align=center;fontSize=18;labelBackgroundColor=none;fillColor=#B2C9AB;strokeColor=#788AA3;fontColor=#46495D;" vertex="1" parent="1">
          <mxGeometry x="1390" y="2340" width="90" height="40" as="geometry" />
        </mxCell>
        <mxCell id="5CA3MVBMeVVRLOGD6PGF-512" value="&lt;font style=&quot;font-size: 20px;&quot;&gt;type&lt;/font&gt;" style="ellipse;whiteSpace=wrap;html=1;align=center;labelBackgroundColor=none;fillColor=#B2C9AB;strokeColor=#788AA3;fontColor=#46495D;" vertex="1" parent="1">
          <mxGeometry x="1305" y="2360" width="70" height="24" as="geometry" />
        </mxCell>
        <mxCell id="5CA3MVBMeVVRLOGD6PGF-513" value="" style="endArrow=none;html=1;rounded=0;strokeColor=#788AA3;fontColor=default;fillColor=#B2C9AB;exitX=0.288;exitY=0.045;exitDx=0;exitDy=0;exitPerimeter=0;entryX=0;entryY=1;entryDx=0;entryDy=0;labelBackgroundColor=none;" edge="1" parent="1" source="5CA3MVBMeVVRLOGD6PGF-510" target="5CA3MVBMeVVRLOGD6PGF-171">
          <mxGeometry width="50" height="50" relative="1" as="geometry">
            <mxPoint x="1230" y="2360" as="sourcePoint" />
            <mxPoint x="1280" y="2310" as="targetPoint" />
          </mxGeometry>
        </mxCell>
        <mxCell id="5CA3MVBMeVVRLOGD6PGF-514" value="" style="endArrow=none;html=1;rounded=0;strokeColor=#788AA3;fontColor=default;fillColor=#B2C9AB;exitX=0.5;exitY=0;exitDx=0;exitDy=0;entryX=0.5;entryY=1;entryDx=0;entryDy=0;labelBackgroundColor=none;" edge="1" parent="1" source="5CA3MVBMeVVRLOGD6PGF-512" target="5CA3MVBMeVVRLOGD6PGF-171">
          <mxGeometry width="50" height="50" relative="1" as="geometry">
            <mxPoint x="1350" y="2340" as="sourcePoint" />
            <mxPoint x="1350" y="2310" as="targetPoint" />
          </mxGeometry>
        </mxCell>
        <mxCell id="5CA3MVBMeVVRLOGD6PGF-515" value="" style="endArrow=none;html=1;rounded=0;strokeColor=#788AA3;fontColor=default;fillColor=#B2C9AB;exitX=1;exitY=1;exitDx=0;exitDy=0;entryX=0.191;entryY=0.099;entryDx=0;entryDy=0;entryPerimeter=0;labelBackgroundColor=none;" edge="1" parent="1" source="5CA3MVBMeVVRLOGD6PGF-171" target="5CA3MVBMeVVRLOGD6PGF-511">
          <mxGeometry width="50" height="50" relative="1" as="geometry">
            <mxPoint x="1370" y="2300" as="sourcePoint" />
            <mxPoint x="1420" y="2250" as="targetPoint" />
          </mxGeometry>
        </mxCell>
        <mxCell id="5CA3MVBMeVVRLOGD6PGF-516" value="" style="endArrow=none;html=1;rounded=0;strokeColor=#788AA3;fontColor=default;fillColor=#B2C9AB;labelBackgroundColor=none;" edge="1" parent="1" source="5CA3MVBMeVVRLOGD6PGF-517">
          <mxGeometry width="50" height="50" relative="1" as="geometry">
            <mxPoint x="1340" y="2310" as="sourcePoint" />
            <mxPoint x="1400" y="2400" as="targetPoint" />
          </mxGeometry>
        </mxCell>
        <mxCell id="5CA3MVBMeVVRLOGD6PGF-518" value="" style="endArrow=none;html=1;rounded=0;strokeColor=#788AA3;fontColor=default;fillColor=#B2C9AB;labelBackgroundColor=none;" edge="1" parent="1" target="5CA3MVBMeVVRLOGD6PGF-517">
          <mxGeometry width="50" height="50" relative="1" as="geometry">
            <mxPoint x="1340" y="2310" as="sourcePoint" />
            <mxPoint x="1400" y="2400" as="targetPoint" />
          </mxGeometry>
        </mxCell>
        <mxCell id="5CA3MVBMeVVRLOGD6PGF-517" value="value" style="ellipse;whiteSpace=wrap;html=1;align=center;strokeColor=#788AA3;fontColor=#46495D;fillColor=#B2C9AB;labelBackgroundColor=none;" vertex="1" parent="1">
          <mxGeometry x="1350" y="2384" width="95" height="30" as="geometry" />
        </mxCell>
        <mxCell id="5CA3MVBMeVVRLOGD6PGF-519" value="" style="endArrow=none;html=1;rounded=0;strokeColor=#788AA3;fontColor=default;fillColor=#B2C9AB;labelBackgroundColor=none;" edge="1" parent="1">
          <mxGeometry width="50" height="50" relative="1" as="geometry">
            <mxPoint x="1030" y="2340" as="sourcePoint" />
            <mxPoint x="1060" y="2310" as="targetPoint" />
          </mxGeometry>
        </mxCell>
        <mxCell id="5CA3MVBMeVVRLOGD6PGF-520" value="&lt;span style=&quot;color: rgb(0, 0, 0);&quot;&gt;&lt;font style=&quot;font-size: 13px;&quot;&gt;discount_value&lt;/font&gt;&lt;/span&gt;" style="ellipse;whiteSpace=wrap;html=1;align=center;strokeColor=#788AA3;fontColor=#46495D;fillColor=#B2C9AB;labelBackgroundColor=none;" vertex="1" parent="1">
          <mxGeometry x="960" y="2340" width="100" height="40" as="geometry" />
        </mxCell>
        <mxCell id="5CA3MVBMeVVRLOGD6PGF-521" value="" style="endArrow=none;html=1;rounded=0;strokeColor=#788AA3;fontColor=default;fillColor=#B2C9AB;exitX=1;exitY=0.5;exitDx=0;exitDy=0;labelBackgroundColor=none;" edge="1" parent="1" source="5CA3MVBMeVVRLOGD6PGF-152">
          <mxGeometry width="50" height="50" relative="1" as="geometry">
            <mxPoint x="1320" y="2000" as="sourcePoint" />
            <mxPoint x="1340" y="2010" as="targetPoint" />
          </mxGeometry>
        </mxCell>
        <mxCell id="5CA3MVBMeVVRLOGD6PGF-522" value="discount_id" style="ellipse;whiteSpace=wrap;html=1;align=center;fontStyle=4;strokeColor=#788AA3;fontColor=#46495D;fillColor=#B2C9AB;labelBackgroundColor=none;" vertex="1" parent="1">
          <mxGeometry x="1335" y="1990" width="100" height="40" as="geometry" />
        </mxCell>
        <mxCell id="5CA3MVBMeVVRLOGD6PGF-523" value="id" style="ellipse;whiteSpace=wrap;html=1;align=center;strokeColor=#788AA3;fontColor=#46495D;fillColor=#B2C9AB;labelBackgroundColor=none;" vertex="1" parent="1">
          <mxGeometry x="1110" y="1220" width="65" height="35" as="geometry" />
        </mxCell>
        <mxCell id="5CA3MVBMeVVRLOGD6PGF-524" value="date" style="ellipse;whiteSpace=wrap;html=1;align=center;strokeColor=#788AA3;fontColor=#46495D;fillColor=#B2C9AB;labelBackgroundColor=none;" vertex="1" parent="1">
          <mxGeometry x="1093" y="1280" width="87" height="30" as="geometry" />
        </mxCell>
        <mxCell id="5CA3MVBMeVVRLOGD6PGF-525" value="" style="endArrow=none;html=1;rounded=0;strokeColor=#788AA3;fontColor=default;fillColor=#B2C9AB;entryX=0;entryY=0.75;entryDx=0;entryDy=0;exitX=1;exitY=0;exitDx=0;exitDy=0;labelBackgroundColor=none;" edge="1" parent="1" source="5CA3MVBMeVVRLOGD6PGF-524" target="5CA3MVBMeVVRLOGD6PGF-174">
          <mxGeometry width="50" height="50" relative="1" as="geometry">
            <mxPoint x="1160" y="1300" as="sourcePoint" />
            <mxPoint x="1210" y="1250" as="targetPoint" />
          </mxGeometry>
        </mxCell>
        <mxCell id="5CA3MVBMeVVRLOGD6PGF-526" value="" style="endArrow=none;html=1;rounded=0;strokeColor=#788AA3;fontColor=default;fillColor=#B2C9AB;exitX=1;exitY=0.5;exitDx=0;exitDy=0;labelBackgroundColor=none;" edge="1" parent="1" source="5CA3MVBMeVVRLOGD6PGF-523">
          <mxGeometry width="50" height="50" relative="1" as="geometry">
            <mxPoint x="1160" y="1290" as="sourcePoint" />
            <mxPoint x="1210" y="1240" as="targetPoint" />
          </mxGeometry>
        </mxCell>
        <mxCell id="5CA3MVBMeVVRLOGD6PGF-527" value="id" style="ellipse;whiteSpace=wrap;html=1;align=center;fontStyle=4;strokeColor=#788AA3;fontColor=#46495D;fillColor=#B2C9AB;labelBackgroundColor=none;" vertex="1" parent="1">
          <mxGeometry x="1110" y="1220" width="65" height="38" as="geometry" />
        </mxCell>
        <mxCell id="5CA3MVBMeVVRLOGD6PGF-528" value="" style="endArrow=none;html=1;rounded=0;strokeColor=#788AA3;fontColor=default;fillColor=#B2C9AB;labelBackgroundColor=none;" edge="1" parent="1">
          <mxGeometry width="50" height="50" relative="1" as="geometry">
            <mxPoint x="2050" y="1350" as="sourcePoint" />
            <mxPoint x="2080" y="1320" as="targetPoint" />
          </mxGeometry>
        </mxCell>
        <mxCell id="5CA3MVBMeVVRLOGD6PGF-529" value="order_id" style="ellipse;whiteSpace=wrap;html=1;align=center;strokeColor=#788AA3;fontColor=#46495D;fillColor=#B2C9AB;labelBackgroundColor=none;" vertex="1" parent="1">
          <mxGeometry x="1980" y="1340" width="80" height="30" as="geometry" />
        </mxCell>
        <mxCell id="5CA3MVBMeVVRLOGD6PGF-530" value="" style="endArrow=none;html=1;rounded=0;strokeColor=#788AA3;fontColor=default;fillColor=#B2C9AB;labelBackgroundColor=none;" edge="1" parent="1">
          <mxGeometry width="50" height="50" relative="1" as="geometry">
            <mxPoint x="2140" y="1360" as="sourcePoint" />
            <mxPoint x="2140" y="1320" as="targetPoint" />
          </mxGeometry>
        </mxCell>
        <mxCell id="5CA3MVBMeVVRLOGD6PGF-531" value="" style="endArrow=none;html=1;rounded=0;strokeColor=#788AA3;fontColor=default;fillColor=#B2C9AB;exitX=1;exitY=0.5;exitDx=0;exitDy=0;labelBackgroundColor=none;" edge="1" parent="1" source="5CA3MVBMeVVRLOGD6PGF-120">
          <mxGeometry width="50" height="50" relative="1" as="geometry">
            <mxPoint x="2160" y="1310" as="sourcePoint" />
            <mxPoint x="2210" y="1290" as="targetPoint" />
          </mxGeometry>
        </mxCell>
        <mxCell id="5CA3MVBMeVVRLOGD6PGF-532" value="total" style="ellipse;whiteSpace=wrap;html=1;align=center;strokeColor=#788AA3;fontColor=#46495D;fillColor=#B2C9AB;labelBackgroundColor=none;" vertex="1" parent="1">
          <mxGeometry x="2100" y="1360" width="80" height="40" as="geometry" />
        </mxCell>
        <mxCell id="5CA3MVBMeVVRLOGD6PGF-533" value="date" style="ellipse;whiteSpace=wrap;html=1;align=center;strokeColor=#788AA3;fontColor=#46495D;fillColor=#B2C9AB;labelBackgroundColor=none;" vertex="1" parent="1">
          <mxGeometry x="2208" y="1275" width="100" height="40" as="geometry" />
        </mxCell>
        <mxCell id="5CA3MVBMeVVRLOGD6PGF-535" value="order_id" style="ellipse;whiteSpace=wrap;html=1;align=center;fontStyle=4;strokeColor=#788AA3;fontColor=#46495D;fillColor=#B2C9AB;labelBackgroundColor=none;" vertex="1" parent="1">
          <mxGeometry x="1980" y="1340" width="80" height="30" as="geometry" />
        </mxCell>
        <mxCell id="5CA3MVBMeVVRLOGD6PGF-536" value="cart_idem_id" style="ellipse;whiteSpace=wrap;html=1;align=center;strokeColor=#788AA3;fontColor=#46495D;fillColor=#B2C9AB;labelBackgroundColor=none;" vertex="1" parent="1">
          <mxGeometry x="1760" y="1480" width="85" height="30" as="geometry" />
        </mxCell>
        <mxCell id="5CA3MVBMeVVRLOGD6PGF-537" value="qnt" style="ellipse;whiteSpace=wrap;html=1;align=center;strokeColor=#788AA3;fontColor=#46495D;fillColor=#B2C9AB;labelBackgroundColor=none;" vertex="1" parent="1">
          <mxGeometry x="1830" y="1510" width="75" height="30" as="geometry" />
        </mxCell>
        <mxCell id="5CA3MVBMeVVRLOGD6PGF-538" value="price" style="ellipse;whiteSpace=wrap;html=1;align=center;strokeColor=#788AA3;fontColor=#46495D;fillColor=#B2C9AB;labelBackgroundColor=none;" vertex="1" parent="1">
          <mxGeometry x="1905" y="1490" width="70" height="30" as="geometry" />
        </mxCell>
        <mxCell id="5CA3MVBMeVVRLOGD6PGF-539" value="" style="endArrow=none;html=1;rounded=0;strokeColor=#788AA3;fontColor=default;fillColor=#B2C9AB;entryX=0.29;entryY=0.984;entryDx=0;entryDy=0;entryPerimeter=0;labelBackgroundColor=none;" edge="1" parent="1" source="5CA3MVBMeVVRLOGD6PGF-537" target="5CA3MVBMeVVRLOGD6PGF-110">
          <mxGeometry width="50" height="50" relative="1" as="geometry">
            <mxPoint x="1830" y="1520" as="sourcePoint" />
            <mxPoint x="1880" y="1470" as="targetPoint" />
          </mxGeometry>
        </mxCell>
        <mxCell id="5CA3MVBMeVVRLOGD6PGF-540" value="" style="endArrow=none;html=1;rounded=0;strokeColor=#788AA3;fontColor=default;fillColor=#B2C9AB;entryX=0.136;entryY=1.02;entryDx=0;entryDy=0;entryPerimeter=0;labelBackgroundColor=none;" edge="1" parent="1" source="5CA3MVBMeVVRLOGD6PGF-536" target="5CA3MVBMeVVRLOGD6PGF-110">
          <mxGeometry width="50" height="50" relative="1" as="geometry">
            <mxPoint x="1810" y="1530" as="sourcePoint" />
            <mxPoint x="1860" y="1480" as="targetPoint" />
          </mxGeometry>
        </mxCell>
        <mxCell id="5CA3MVBMeVVRLOGD6PGF-541" value="cart_item_id" style="ellipse;whiteSpace=wrap;html=1;align=center;fontStyle=4;strokeColor=#788AA3;fontColor=#46495D;fillColor=#B2C9AB;labelBackgroundColor=none;" vertex="1" parent="1">
          <mxGeometry x="1760" y="1480" width="92.5" height="30" as="geometry" />
        </mxCell>
        <mxCell id="5CA3MVBMeVVRLOGD6PGF-542" value="" style="endArrow=none;html=1;rounded=0;strokeColor=#788AA3;fontColor=default;fillColor=#B2C9AB;exitX=0.3;exitY=0.052;exitDx=0;exitDy=0;exitPerimeter=0;entryX=0.75;entryY=1;entryDx=0;entryDy=0;labelBackgroundColor=none;" edge="1" parent="1" source="5CA3MVBMeVVRLOGD6PGF-538" target="5CA3MVBMeVVRLOGD6PGF-110">
          <mxGeometry width="50" height="50" relative="1" as="geometry">
            <mxPoint x="1880" y="1520" as="sourcePoint" />
            <mxPoint x="1930" y="1470" as="targetPoint" />
          </mxGeometry>
        </mxCell>
        <mxCell id="5CA3MVBMeVVRLOGD6PGF-543" value="Sub_st_date" style="ellipse;whiteSpace=wrap;html=1;labelBackgroundColor=none;fillColor=#B2C9AB;strokeColor=#788AA3;fontColor=#46495D;" vertex="1" parent="1">
          <mxGeometry x="903" y="590" width="80" height="44" as="geometry" />
        </mxCell>
        <mxCell id="5CA3MVBMeVVRLOGD6PGF-544" value="&#xa;membership_tier&#xa;&#xa;" style="ellipse;whiteSpace=wrap;html=1;labelBackgroundColor=none;fillColor=#B2C9AB;strokeColor=#788AA3;fontColor=#46495D;" vertex="1" parent="1">
          <mxGeometry x="983" y="550" width="110" height="47" as="geometry" />
        </mxCell>
        <mxCell id="5CA3MVBMeVVRLOGD6PGF-545" value="" style="endArrow=none;html=1;rounded=0;strokeColor=#788AA3;fontColor=default;fillColor=#B2C9AB;exitX=0.25;exitY=0;exitDx=0;exitDy=0;entryX=0.415;entryY=0.973;entryDx=0;entryDy=0;entryPerimeter=0;labelBackgroundColor=none;" edge="1" parent="1" source="5CA3MVBMeVVRLOGD6PGF-15" target="5CA3MVBMeVVRLOGD6PGF-544">
          <mxGeometry width="50" height="50" relative="1" as="geometry">
            <mxPoint x="980" y="650" as="sourcePoint" />
            <mxPoint x="1030" y="600" as="targetPoint" />
          </mxGeometry>
        </mxCell>
        <mxCell id="5CA3MVBMeVVRLOGD6PGF-546" value="" style="endArrow=none;html=1;rounded=0;strokeColor=#788AA3;fontColor=default;fillColor=#B2C9AB;entryX=0.763;entryY=0.911;entryDx=0;entryDy=0;entryPerimeter=0;exitX=0;exitY=0;exitDx=0;exitDy=0;labelBackgroundColor=none;" edge="1" parent="1" source="5CA3MVBMeVVRLOGD6PGF-15" target="5CA3MVBMeVVRLOGD6PGF-543">
          <mxGeometry width="50" height="50" relative="1" as="geometry">
            <mxPoint x="910" y="680" as="sourcePoint" />
            <mxPoint x="960" y="630" as="targetPoint" />
          </mxGeometry>
        </mxCell>
        <mxCell id="5CA3MVBMeVVRLOGD6PGF-547" value="Rating&lt;div&gt;&lt;br&gt;&lt;/div&gt;" style="ellipse;whiteSpace=wrap;html=1;labelBackgroundColor=none;fillColor=#B2C9AB;strokeColor=#788AA3;fontColor=#46495D;" vertex="1" parent="1">
          <mxGeometry x="823" y="775" width="80" height="39" as="geometry" />
        </mxCell>
        <mxCell id="5CA3MVBMeVVRLOGD6PGF-548" value="Country" style="ellipse;whiteSpace=wrap;html=1;labelBackgroundColor=none;fillColor=#B2C9AB;strokeColor=#788AA3;fontColor=#46495D;" vertex="1" parent="1">
          <mxGeometry x="723" y="787.5" width="80" height="39" as="geometry" />
        </mxCell>
        <mxCell id="5CA3MVBMeVVRLOGD6PGF-551" value="" style="endArrow=none;html=1;rounded=0;strokeColor=#788AA3;fontColor=default;fillColor=#B2C9AB;labelBackgroundColor=none;entryX=0.5;entryY=1;entryDx=0;entryDy=0;" edge="1" parent="1" target="5CA3MVBMeVVRLOGD6PGF-547">
          <mxGeometry width="50" height="50" relative="1" as="geometry">
            <mxPoint x="830" y="890" as="sourcePoint" />
            <mxPoint x="860" y="817.5" as="targetPoint" />
          </mxGeometry>
        </mxCell>
        <mxCell id="5CA3MVBMeVVRLOGD6PGF-552" value="" style="endArrow=none;html=1;rounded=0;strokeColor=#788AA3;fontColor=default;fillColor=#B2C9AB;labelBackgroundColor=none;" edge="1" parent="1">
          <mxGeometry width="50" height="50" relative="1" as="geometry">
            <mxPoint x="810" y="890" as="sourcePoint" />
            <mxPoint x="790" y="820" as="targetPoint" />
          </mxGeometry>
        </mxCell>
        <mxCell id="5CA3MVBMeVVRLOGD6PGF-554" value="&lt;font style=&quot;font-size: 16px;&quot;&gt;N&lt;/font&gt;" style="text;html=1;align=center;verticalAlign=middle;whiteSpace=wrap;rounded=0;fontColor=#46495D;labelBackgroundColor=none;rotation=180;" vertex="1" parent="1">
          <mxGeometry x="700" y="1045" width="60" height="30" as="geometry" />
        </mxCell>
        <mxCell id="5CA3MVBMeVVRLOGD6PGF-556" value="&lt;font style=&quot;font-size: 16px;&quot;&gt;N&lt;/font&gt;" style="text;html=1;align=center;verticalAlign=middle;whiteSpace=wrap;rounded=0;fontColor=#46495D;labelBackgroundColor=none;" vertex="1" parent="1">
          <mxGeometry x="490" y="1235" width="60" height="30" as="geometry" />
        </mxCell>
        <mxCell id="5CA3MVBMeVVRLOGD6PGF-557" value="&lt;font style=&quot;font-size: 16px;&quot;&gt;M&lt;/font&gt;" style="text;html=1;align=center;verticalAlign=middle;whiteSpace=wrap;rounded=0;fontColor=#46495D;labelBackgroundColor=none;" vertex="1" parent="1">
          <mxGeometry x="440" y="1111" width="60" height="30" as="geometry" />
        </mxCell>
        <mxCell id="5CA3MVBMeVVRLOGD6PGF-558" value="&lt;font style=&quot;font-size: 16px;&quot;&gt;1&lt;/font&gt;" style="text;html=1;align=center;verticalAlign=middle;whiteSpace=wrap;rounded=0;fontColor=#46495D;labelBackgroundColor=none;" vertex="1" parent="1">
          <mxGeometry x="790" y="1080" width="60" height="30" as="geometry" />
        </mxCell>
        <mxCell id="5CA3MVBMeVVRLOGD6PGF-559" value="&lt;font style=&quot;font-size: 16px;&quot;&gt;1&lt;/font&gt;" style="text;html=1;align=center;verticalAlign=middle;whiteSpace=wrap;rounded=0;fontColor=#46495D;labelBackgroundColor=none;" vertex="1" parent="1">
          <mxGeometry x="795" y="1170" width="60" height="30" as="geometry" />
        </mxCell>
        <mxCell id="5CA3MVBMeVVRLOGD6PGF-560" value="&lt;font style=&quot;font-size: 16px;&quot;&gt;N&lt;/font&gt;" style="text;html=1;align=center;verticalAlign=middle;whiteSpace=wrap;rounded=0;fontColor=#46495D;labelBackgroundColor=none;" vertex="1" parent="1">
          <mxGeometry x="880" y="975" width="60" height="30" as="geometry" />
        </mxCell>
        <mxCell id="5CA3MVBMeVVRLOGD6PGF-561" value="&lt;font style=&quot;font-size: 16px;&quot;&gt;1&lt;/font&gt;" style="text;html=1;align=center;verticalAlign=middle;whiteSpace=wrap;rounded=0;fontColor=#46495D;labelBackgroundColor=none;" vertex="1" parent="1">
          <mxGeometry x="880" y="1070" width="60" height="30" as="geometry" />
        </mxCell>
        <mxCell id="5CA3MVBMeVVRLOGD6PGF-562" value="&lt;font style=&quot;font-size: 16px;&quot;&gt;1&lt;/font&gt;" style="text;html=1;align=center;verticalAlign=middle;whiteSpace=wrap;rounded=0;fontColor=#46495D;labelBackgroundColor=none;" vertex="1" parent="1">
          <mxGeometry x="1275" y="980" width="60" height="30" as="geometry" />
        </mxCell>
        <mxCell id="5CA3MVBMeVVRLOGD6PGF-563" value="&lt;font style=&quot;font-size: 16px;&quot;&gt;1&lt;/font&gt;" style="text;html=1;align=center;verticalAlign=middle;whiteSpace=wrap;rounded=0;fontColor=#46495D;labelBackgroundColor=none;" vertex="1" parent="1">
          <mxGeometry x="1290" y="1061" width="60" height="30" as="geometry" />
        </mxCell>
        <mxCell id="5CA3MVBMeVVRLOGD6PGF-565" value="&lt;font style=&quot;font-size: 16px;&quot;&gt;1&lt;/font&gt;" style="text;html=1;align=center;verticalAlign=middle;whiteSpace=wrap;rounded=0;fontColor=#46495D;labelBackgroundColor=none;" vertex="1" parent="1">
          <mxGeometry x="1465" y="1310" width="60" height="30" as="geometry" />
        </mxCell>
        <mxCell id="5CA3MVBMeVVRLOGD6PGF-566" value="&lt;font style=&quot;font-size: 16px;&quot;&gt;N&lt;/font&gt;" style="text;html=1;align=center;verticalAlign=middle;whiteSpace=wrap;rounded=0;fontColor=#46495D;labelBackgroundColor=none;" vertex="1" parent="1">
          <mxGeometry x="1515" y="1210" width="60" height="30" as="geometry" />
        </mxCell>
        <mxCell id="5CA3MVBMeVVRLOGD6PGF-567" value="&lt;font style=&quot;font-size: 16px;&quot;&gt;1&lt;/font&gt;" style="text;html=1;align=center;verticalAlign=middle;whiteSpace=wrap;rounded=0;fontColor=#46495D;labelBackgroundColor=none;" vertex="1" parent="1">
          <mxGeometry x="1975" y="1090" width="60" height="30" as="geometry" />
        </mxCell>
        <mxCell id="5CA3MVBMeVVRLOGD6PGF-568" value="&lt;font style=&quot;font-size: 16px;&quot;&gt;N&lt;/font&gt;" style="text;html=1;align=center;verticalAlign=middle;whiteSpace=wrap;rounded=0;fontColor=#46495D;labelBackgroundColor=none;" vertex="1" parent="1">
          <mxGeometry x="1890" y="1010" width="60" height="30" as="geometry" />
        </mxCell>
        <mxCell id="5CA3MVBMeVVRLOGD6PGF-569" value="&lt;font style=&quot;font-size: 16px;&quot;&gt;1&lt;/font&gt;" style="text;html=1;align=center;verticalAlign=middle;whiteSpace=wrap;rounded=0;fontColor=#46495D;labelBackgroundColor=none;" vertex="1" parent="1">
          <mxGeometry x="2180" y="950" width="60" height="30" as="geometry" />
        </mxCell>
        <mxCell id="5CA3MVBMeVVRLOGD6PGF-570" value="&lt;font style=&quot;font-size: 15px;&quot;&gt;1&lt;/font&gt;" style="text;html=1;align=center;verticalAlign=middle;whiteSpace=wrap;rounded=0;fontColor=#46495D;labelBackgroundColor=none;" vertex="1" parent="1">
          <mxGeometry x="2140" y="1040" width="60" height="30" as="geometry" />
        </mxCell>
        <mxCell id="5CA3MVBMeVVRLOGD6PGF-571" value="&lt;font style=&quot;font-size: 16px;&quot;&gt;1&lt;/font&gt;" style="text;html=1;align=center;verticalAlign=middle;whiteSpace=wrap;rounded=0;fontColor=#46495D;labelBackgroundColor=none;" vertex="1" parent="1">
          <mxGeometry x="1392" y="801" width="60" height="30" as="geometry" />
        </mxCell>
        <mxCell id="5CA3MVBMeVVRLOGD6PGF-574" value="&lt;font style=&quot;font-size: 16px;&quot;&gt;N&lt;/font&gt;" style="text;html=1;align=center;verticalAlign=middle;whiteSpace=wrap;rounded=0;fontColor=#46495D;labelBackgroundColor=none;" vertex="1" parent="1">
          <mxGeometry x="1520" y="810" width="60" height="30" as="geometry" />
        </mxCell>
        <mxCell id="5CA3MVBMeVVRLOGD6PGF-575" value="&lt;font style=&quot;font-size: 16px;&quot;&gt;M&lt;/font&gt;" style="text;html=1;align=center;verticalAlign=middle;whiteSpace=wrap;rounded=0;fontColor=#46495D;labelBackgroundColor=none;" vertex="1" parent="1">
          <mxGeometry x="1033" y="1390" width="60" height="30" as="geometry" />
        </mxCell>
        <mxCell id="5CA3MVBMeVVRLOGD6PGF-576" value="&lt;font style=&quot;font-size: 16px;&quot;&gt;N&lt;/font&gt;" style="text;html=1;align=center;verticalAlign=middle;whiteSpace=wrap;rounded=0;fontColor=#46495D;labelBackgroundColor=none;" vertex="1" parent="1">
          <mxGeometry x="1115" y="1400" width="60" height="30" as="geometry" />
        </mxCell>
        <mxCell id="5CA3MVBMeVVRLOGD6PGF-577" value="&lt;font style=&quot;font-size: 16px;&quot;&gt;1&lt;/font&gt;" style="text;html=1;align=center;verticalAlign=middle;whiteSpace=wrap;rounded=0;fontColor=#46495D;labelBackgroundColor=none;" vertex="1" parent="1">
          <mxGeometry x="1385" y="1780" width="60" height="30" as="geometry" />
        </mxCell>
        <mxCell id="5CA3MVBMeVVRLOGD6PGF-578" value="&lt;font style=&quot;font-size: 16px;&quot;&gt;N&lt;/font&gt;" style="text;html=1;align=center;verticalAlign=middle;whiteSpace=wrap;rounded=0;fontColor=#46495D;labelBackgroundColor=none;" vertex="1" parent="1">
          <mxGeometry x="1515" y="1780" width="60" height="30" as="geometry" />
        </mxCell>
        <mxCell id="5CA3MVBMeVVRLOGD6PGF-579" value="&lt;font style=&quot;font-size: 16px;&quot;&gt;N&lt;/font&gt;" style="text;html=1;align=center;verticalAlign=middle;whiteSpace=wrap;rounded=0;fontColor=#46495D;labelBackgroundColor=none;" vertex="1" parent="1">
          <mxGeometry x="1810" y="1611" width="60" height="30" as="geometry" />
        </mxCell>
        <mxCell id="5CA3MVBMeVVRLOGD6PGF-580" value="&lt;font style=&quot;font-size: 16px;&quot;&gt;M&lt;/font&gt;" style="text;html=1;align=center;verticalAlign=middle;whiteSpace=wrap;rounded=0;fontColor=#46495D;labelBackgroundColor=none;" vertex="1" parent="1">
          <mxGeometry x="1980" y="1611" width="60" height="30" as="geometry" />
        </mxCell>
        <mxCell id="5CA3MVBMeVVRLOGD6PGF-581" value="" style="endArrow=none;html=1;rounded=0;strokeColor=#788AA3;fontColor=default;fillColor=#B2C9AB;exitX=0.931;exitY=0.582;exitDx=0;exitDy=0;exitPerimeter=0;entryX=-0.027;entryY=0.769;entryDx=0;entryDy=0;entryPerimeter=0;labelBackgroundColor=none;" edge="1" parent="1" source="5CA3MVBMeVVRLOGD6PGF-228" target="5CA3MVBMeVVRLOGD6PGF-226">
          <mxGeometry width="50" height="50" relative="1" as="geometry">
            <mxPoint x="1600" y="980" as="sourcePoint" />
            <mxPoint x="1650" y="930" as="targetPoint" />
          </mxGeometry>
        </mxCell>
        <mxCell id="5CA3MVBMeVVRLOGD6PGF-582" value="" style="endArrow=none;html=1;rounded=0;strokeColor=#788AA3;fontColor=default;fillColor=#B2C9AB;entryX=0.55;entryY=0.939;entryDx=0;entryDy=0;entryPerimeter=0;exitX=0.082;exitY=-0.032;exitDx=0;exitDy=0;exitPerimeter=0;labelBackgroundColor=none;" edge="1" parent="1" source="5CA3MVBMeVVRLOGD6PGF-209" target="5CA3MVBMeVVRLOGD6PGF-222">
          <mxGeometry width="50" height="50" relative="1" as="geometry">
            <mxPoint x="1060" y="1110" as="sourcePoint" />
            <mxPoint x="970" y="1090" as="targetPoint" />
          </mxGeometry>
        </mxCell>
        <mxCell id="5CA3MVBMeVVRLOGD6PGF-583" value="" style="endArrow=none;html=1;rounded=0;strokeColor=#788AA3;fontColor=default;fillColor=#B2C9AB;exitX=0.549;exitY=0.965;exitDx=0;exitDy=0;exitPerimeter=0;entryX=0.143;entryY=0;entryDx=0;entryDy=0;entryPerimeter=0;labelBackgroundColor=none;" edge="1" parent="1" source="5CA3MVBMeVVRLOGD6PGF-224" target="5CA3MVBMeVVRLOGD6PGF-210">
          <mxGeometry width="50" height="50" relative="1" as="geometry">
            <mxPoint x="1310" y="1100" as="sourcePoint" />
            <mxPoint x="1410" y="1220" as="targetPoint" />
          </mxGeometry>
        </mxCell>
        <mxCell id="5CA3MVBMeVVRLOGD6PGF-584" value="&lt;font style=&quot;font-size: 16px;&quot;&gt;1&lt;/font&gt;" style="text;html=1;align=center;verticalAlign=middle;whiteSpace=wrap;rounded=0;fontColor=#46495D;labelBackgroundColor=none;" vertex="1" parent="1">
          <mxGeometry x="1200" y="1070" width="60" height="30" as="geometry" />
        </mxCell>
        <mxCell id="5CA3MVBMeVVRLOGD6PGF-585" value="&lt;font style=&quot;font-size: 16px;&quot;&gt;1&lt;/font&gt;" style="text;html=1;align=center;verticalAlign=middle;whiteSpace=wrap;rounded=0;fontColor=#46495D;labelBackgroundColor=none;" vertex="1" parent="1">
          <mxGeometry x="1250" y="1151" width="60" height="30" as="geometry" />
        </mxCell>
        <mxCell id="5CA3MVBMeVVRLOGD6PGF-586" value="&lt;font style=&quot;font-size: 16px;&quot;&gt;1&lt;/font&gt;" style="text;html=1;align=center;verticalAlign=middle;whiteSpace=wrap;rounded=0;fontColor=#46495D;labelBackgroundColor=none;" vertex="1" parent="1">
          <mxGeometry x="1225" y="1286" width="60" height="30" as="geometry" />
        </mxCell>
        <mxCell id="5CA3MVBMeVVRLOGD6PGF-587" value="&lt;font style=&quot;font-size: 16px;&quot;&gt;N&lt;/font&gt;" style="text;html=1;align=center;verticalAlign=middle;whiteSpace=wrap;rounded=0;fontColor=#46495D;labelBackgroundColor=none;" vertex="1" parent="1">
          <mxGeometry x="1290" y="1350" width="60" height="30" as="geometry" />
        </mxCell>
        <mxCell id="5CA3MVBMeVVRLOGD6PGF-588" value="&lt;font style=&quot;font-size: 16px;&quot;&gt;N&lt;/font&gt;" style="text;html=1;align=center;verticalAlign=middle;whiteSpace=wrap;rounded=0;fontColor=#46495D;labelBackgroundColor=none;" vertex="1" parent="1">
          <mxGeometry x="1175" y="1694" width="60" height="30" as="geometry" />
        </mxCell>
        <mxCell id="5CA3MVBMeVVRLOGD6PGF-589" value="&lt;font style=&quot;font-size: 16px;&quot;&gt;N&lt;/font&gt;" style="text;html=1;align=center;verticalAlign=middle;whiteSpace=wrap;rounded=0;fontColor=#46495D;labelBackgroundColor=none;" vertex="1" parent="1">
          <mxGeometry x="1610" y="1820" width="60" height="30" as="geometry" />
        </mxCell>
        <mxCell id="5CA3MVBMeVVRLOGD6PGF-591" value="&lt;font style=&quot;font-size: 16px;&quot;&gt;1&lt;/font&gt;" style="text;html=1;align=center;verticalAlign=middle;whiteSpace=wrap;rounded=0;fontColor=#46495D;labelBackgroundColor=none;" vertex="1" parent="1">
          <mxGeometry x="1750" y="1820" width="60" height="30" as="geometry" />
        </mxCell>
        <mxCell id="5CA3MVBMeVVRLOGD6PGF-592" value="&lt;font style=&quot;font-size: 16px;&quot;&gt;1&lt;/font&gt;" style="text;html=1;align=center;verticalAlign=middle;whiteSpace=wrap;rounded=0;fontColor=#46495D;labelBackgroundColor=none;" vertex="1" parent="1">
          <mxGeometry x="1190" y="1610" width="60" height="30" as="geometry" />
        </mxCell>
        <mxCell id="5CA3MVBMeVVRLOGD6PGF-594" value="&lt;font style=&quot;font-size: 16px;&quot;&gt;1&lt;/font&gt;" style="text;html=1;align=center;verticalAlign=middle;whiteSpace=wrap;rounded=0;fontColor=#46495D;labelBackgroundColor=none;" vertex="1" parent="1">
          <mxGeometry x="1370" y="920" width="60" height="30" as="geometry" />
        </mxCell>
        <mxCell id="5CA3MVBMeVVRLOGD6PGF-595" value="&lt;font style=&quot;font-size: 16px;&quot;&gt;N&lt;/font&gt;" style="text;html=1;align=center;verticalAlign=middle;whiteSpace=wrap;rounded=0;fontColor=#46495D;labelBackgroundColor=none;" vertex="1" parent="1">
          <mxGeometry x="1452" y="930" width="60" height="30" as="geometry" />
        </mxCell>
        <mxCell id="5CA3MVBMeVVRLOGD6PGF-596" value="&lt;font style=&quot;font-size: 16px;&quot;&gt;N&lt;/font&gt;" style="text;html=1;align=center;verticalAlign=middle;whiteSpace=wrap;rounded=0;fontColor=#46495D;labelBackgroundColor=none;" vertex="1" parent="1">
          <mxGeometry x="1785" y="1025" width="60" height="30" as="geometry" />
        </mxCell>
        <mxCell id="5CA3MVBMeVVRLOGD6PGF-597" value="&lt;font style=&quot;font-size: 16px;&quot;&gt;1&lt;/font&gt;" style="text;html=1;align=center;verticalAlign=middle;whiteSpace=wrap;rounded=0;fontColor=#46495D;labelBackgroundColor=none;" vertex="1" parent="1">
          <mxGeometry x="1645" y="1061" width="60" height="30" as="geometry" />
        </mxCell>
        <mxCell id="5CA3MVBMeVVRLOGD6PGF-598" value="&lt;font style=&quot;font-size: 16px;&quot;&gt;1&lt;/font&gt;" style="text;html=1;align=center;verticalAlign=middle;whiteSpace=wrap;rounded=0;fontColor=#46495D;labelBackgroundColor=none;" vertex="1" parent="1">
          <mxGeometry x="2276" y="1200" width="60" height="30" as="geometry" />
        </mxCell>
        <mxCell id="5CA3MVBMeVVRLOGD6PGF-599" value="&lt;font style=&quot;font-size: 16px;&quot;&gt;N&lt;/font&gt;" style="text;html=1;align=center;verticalAlign=middle;whiteSpace=wrap;rounded=0;fontColor=#46495D;labelBackgroundColor=none;" vertex="1" parent="1">
          <mxGeometry x="2370" y="1170" width="60" height="30" as="geometry" />
        </mxCell>
        <mxCell id="5CA3MVBMeVVRLOGD6PGF-600" value="&lt;font style=&quot;font-size: 16px;&quot;&gt;N&lt;/font&gt;" style="text;html=1;align=center;verticalAlign=middle;whiteSpace=wrap;rounded=0;fontColor=#46495D;labelBackgroundColor=none;" vertex="1" parent="1">
          <mxGeometry x="2130" y="814" width="60" height="30" as="geometry" />
        </mxCell>
        <mxCell id="5CA3MVBMeVVRLOGD6PGF-601" value="&lt;font style=&quot;font-size: 16px;&quot;&gt;1&lt;/font&gt;" style="text;html=1;align=center;verticalAlign=middle;whiteSpace=wrap;rounded=0;fontColor=#46495D;labelBackgroundColor=none;" vertex="1" parent="1">
          <mxGeometry x="2000" y="815" width="60" height="30" as="geometry" />
        </mxCell>
        <mxCell id="5CA3MVBMeVVRLOGD6PGF-602" value="" style="endArrow=none;html=1;rounded=0;strokeColor=#788AA3;fontColor=default;fillColor=#B2C9AB;exitX=0.4;exitY=0;exitDx=0;exitDy=0;exitPerimeter=0;labelBackgroundColor=none;" edge="1" parent="1" source="5CA3MVBMeVVRLOGD6PGF-138">
          <mxGeometry width="50" height="50" relative="1" as="geometry">
            <mxPoint x="2250" y="1540" as="sourcePoint" />
            <mxPoint x="2300" y="1496" as="targetPoint" />
          </mxGeometry>
        </mxCell>
        <mxCell id="5CA3MVBMeVVRLOGD6PGF-603" value="" style="endArrow=none;html=1;rounded=0;strokeColor=#788AA3;fontColor=default;fillColor=#B2C9AB;entryX=0.927;entryY=1.043;entryDx=0;entryDy=0;entryPerimeter=0;exitX=0.465;exitY=0.045;exitDx=0;exitDy=0;exitPerimeter=0;labelBackgroundColor=none;" edge="1" parent="1" source="5CA3MVBMeVVRLOGD6PGF-135" target="5CA3MVBMeVVRLOGD6PGF-120">
          <mxGeometry width="50" height="50" relative="1" as="geometry">
            <mxPoint x="2110" y="1370" as="sourcePoint" />
            <mxPoint x="2160" y="1320" as="targetPoint" />
          </mxGeometry>
        </mxCell>
        <mxCell id="5CA3MVBMeVVRLOGD6PGF-604" value="&lt;font style=&quot;font-size: 16px;&quot;&gt;1&lt;/font&gt;" style="text;html=1;align=center;verticalAlign=middle;whiteSpace=wrap;rounded=0;fontColor=#46495D;labelBackgroundColor=none;" vertex="1" parent="1">
          <mxGeometry x="2308" y="1415" width="60" height="30" as="geometry" />
        </mxCell>
        <mxCell id="5CA3MVBMeVVRLOGD6PGF-605" value="&lt;font style=&quot;font-size: 16px;&quot;&gt;1&lt;/font&gt;" style="text;html=1;align=center;verticalAlign=middle;whiteSpace=wrap;rounded=0;fontColor=#46495D;labelBackgroundColor=none;" vertex="1" parent="1">
          <mxGeometry x="2245" y="1496" width="60" height="30" as="geometry" />
        </mxCell>
        <mxCell id="5CA3MVBMeVVRLOGD6PGF-606" value="&lt;font style=&quot;font-size: 16px;&quot;&gt;N&lt;/font&gt;" style="text;html=1;align=center;verticalAlign=middle;whiteSpace=wrap;rounded=0;fontColor=#46495D;labelBackgroundColor=none;" vertex="1" parent="1">
          <mxGeometry x="1915" y="796" width="60" height="30" as="geometry" />
        </mxCell>
        <mxCell id="5CA3MVBMeVVRLOGD6PGF-607" value="&lt;font style=&quot;font-size: 16px;&quot;&gt;1&lt;/font&gt;" style="text;html=1;align=center;verticalAlign=middle;whiteSpace=wrap;rounded=0;fontColor=#46495D;labelBackgroundColor=none;" vertex="1" parent="1">
          <mxGeometry x="1960" y="670" width="60" height="30" as="geometry" />
        </mxCell>
        <mxCell id="5CA3MVBMeVVRLOGD6PGF-608" value="&lt;font style=&quot;font-size: 16px;&quot;&gt;N&lt;/font&gt;" style="text;html=1;align=center;verticalAlign=middle;whiteSpace=wrap;rounded=0;fontColor=#46495D;labelBackgroundColor=none;" vertex="1" parent="1">
          <mxGeometry x="950" y="1975" width="60" height="30" as="geometry" />
        </mxCell>
        <mxCell id="5CA3MVBMeVVRLOGD6PGF-609" value="&lt;font style=&quot;font-size: 16px;&quot;&gt;1&lt;/font&gt;" style="text;html=1;align=center;verticalAlign=middle;whiteSpace=wrap;rounded=0;fontColor=#46495D;labelBackgroundColor=none;" vertex="1" parent="1">
          <mxGeometry x="860" y="1900" width="60" height="30" as="geometry" />
        </mxCell>
        <mxCell id="5CA3MVBMeVVRLOGD6PGF-610" value="&lt;font style=&quot;font-size: 16px;&quot;&gt;N&lt;/font&gt;" style="text;html=1;align=center;verticalAlign=middle;whiteSpace=wrap;rounded=0;fontColor=#46495D;labelBackgroundColor=none;" vertex="1" parent="1">
          <mxGeometry x="1453" y="1510" width="60" height="30" as="geometry" />
        </mxCell>
        <mxCell id="5CA3MVBMeVVRLOGD6PGF-611" value="&lt;font style=&quot;font-size: 16px;&quot;&gt;M&lt;/font&gt;" style="text;html=1;align=center;verticalAlign=middle;whiteSpace=wrap;rounded=0;fontColor=#46495D;labelBackgroundColor=none;" vertex="1" parent="1">
          <mxGeometry x="1420" y="1600" width="60" height="30" as="geometry" />
        </mxCell>
        <mxCell id="5CA3MVBMeVVRLOGD6PGF-612" value="&lt;font style=&quot;font-size: 16px;&quot;&gt;N&lt;/font&gt;" style="text;html=1;align=center;verticalAlign=middle;whiteSpace=wrap;rounded=0;fontColor=#46495D;labelBackgroundColor=none;" vertex="1" parent="1">
          <mxGeometry x="1535" y="1400" width="60" height="30" as="geometry" />
        </mxCell>
        <mxCell id="5CA3MVBMeVVRLOGD6PGF-613" value="&lt;font style=&quot;font-size: 16px;&quot;&gt;1&lt;/font&gt;" style="text;html=1;align=center;verticalAlign=middle;whiteSpace=wrap;rounded=0;fontColor=#46495D;labelBackgroundColor=none;" vertex="1" parent="1">
          <mxGeometry x="1640" y="1390" width="60" height="30" as="geometry" />
        </mxCell>
        <mxCell id="5CA3MVBMeVVRLOGD6PGF-614" value="&lt;font style=&quot;font-size: 16px;&quot;&gt;1&lt;/font&gt;" style="text;html=1;align=center;verticalAlign=middle;whiteSpace=wrap;rounded=0;fontColor=#46495D;labelBackgroundColor=none;" vertex="1" parent="1">
          <mxGeometry x="1720" y="1310" width="60" height="30" as="geometry" />
        </mxCell>
        <mxCell id="5CA3MVBMeVVRLOGD6PGF-615" value="&lt;font style=&quot;font-size: 16px;&quot;&gt;N&lt;/font&gt;" style="text;html=1;align=center;verticalAlign=middle;whiteSpace=wrap;rounded=0;fontColor=#46495D;labelBackgroundColor=none;" vertex="1" parent="1">
          <mxGeometry x="1820" y="1325" width="60" height="30" as="geometry" />
        </mxCell>
        <mxCell id="5CA3MVBMeVVRLOGD6PGF-619" value="&lt;font style=&quot;font-size: 16px;&quot;&gt;1&lt;/font&gt;" style="text;html=1;align=center;verticalAlign=middle;whiteSpace=wrap;rounded=0;fontColor=#46495D;labelBackgroundColor=none;" vertex="1" parent="1">
          <mxGeometry x="1820" y="1229" width="60" height="30" as="geometry" />
        </mxCell>
        <mxCell id="5CA3MVBMeVVRLOGD6PGF-620" value="&lt;font style=&quot;font-size: 16px;&quot;&gt;1&lt;/font&gt;" style="text;html=1;align=center;verticalAlign=middle;whiteSpace=wrap;rounded=0;fontColor=#46495D;labelBackgroundColor=none;" vertex="1" parent="1">
          <mxGeometry x="1930" y="1240" width="60" height="30" as="geometry" />
        </mxCell>
        <mxCell id="5CA3MVBMeVVRLOGD6PGF-621" value="&lt;font style=&quot;font-size: 16px;&quot;&gt;N&lt;/font&gt;" style="text;html=1;align=center;verticalAlign=middle;whiteSpace=wrap;rounded=0;fontColor=#46495D;labelBackgroundColor=none;" vertex="1" parent="1">
          <mxGeometry x="1008" y="1115" width="60" height="30" as="geometry" />
        </mxCell>
        <mxCell id="5CA3MVBMeVVRLOGD6PGF-622" value="&lt;font style=&quot;font-size: 16px;&quot;&gt;M&lt;/font&gt;" style="text;html=1;align=center;verticalAlign=middle;whiteSpace=wrap;rounded=0;fontColor=#46495D;labelBackgroundColor=none;" vertex="1" parent="1">
          <mxGeometry x="1150" y="1081" width="60" height="30" as="geometry" />
        </mxCell>
        <mxCell id="FqeAiuCbrJ6pF6zf1Y9o-6" value="&lt;span style=&quot;border-bottom: 1px dotted&quot;&gt;fav_id&lt;/span&gt;" style="ellipse;whiteSpace=wrap;html=1;align=center;strokeColor=#788AA3;fontColor=#46495D;fillColor=#B2C9AB;labelBackgroundColor=none;" vertex="1" parent="1">
          <mxGeometry x="370" y="1270" width="100" height="40" as="geometry" />
        </mxCell>
        <mxCell id="FqeAiuCbrJ6pF6zf1Y9o-8" value="date" style="ellipse;whiteSpace=wrap;html=1;align=center;strokeColor=#788AA3;fontColor=#46495D;fillColor=#B2C9AB;labelBackgroundColor=none;" vertex="1" parent="1">
          <mxGeometry x="320" y="1130" width="100" height="40" as="geometry" />
        </mxCell>
        <mxCell id="FqeAiuCbrJ6pF6zf1Y9o-9" value="is_Active" style="ellipse;whiteSpace=wrap;html=1;align=center;strokeColor=#788AA3;fontColor=#46495D;fillColor=#B2C9AB;labelBackgroundColor=none;" vertex="1" parent="1">
          <mxGeometry x="300" y="1210" width="100" height="40" as="geometry" />
        </mxCell>
        <mxCell id="FqeAiuCbrJ6pF6zf1Y9o-18" value="" style="endArrow=none;html=1;rounded=0;strokeColor=#788AA3;fontColor=default;fillColor=#B2C9AB;entryX=0;entryY=0;entryDx=0;entryDy=0;exitX=0.5;exitY=0;exitDx=0;exitDy=0;labelBackgroundColor=none;" edge="1" parent="1" source="FqeAiuCbrJ6pF6zf1Y9o-20" target="5CA3MVBMeVVRLOGD6PGF-30">
          <mxGeometry width="50" height="50" relative="1" as="geometry">
            <mxPoint x="800" y="1000" as="sourcePoint" />
            <mxPoint x="690" y="1160" as="targetPoint" />
          </mxGeometry>
        </mxCell>
        <mxCell id="FqeAiuCbrJ6pF6zf1Y9o-20" value="&lt;font style=&quot;font-size: 18px;&quot;&gt;LISTS&lt;/font&gt;" style="rhombus;whiteSpace=wrap;html=1;strokeColor=#788AA3;fontColor=#46495D;fillColor=#B2C9AB;labelBackgroundColor=none;" vertex="1" parent="1">
          <mxGeometry x="710" y="960" width="80" height="80" as="geometry" />
        </mxCell>
        <mxCell id="FqeAiuCbrJ6pF6zf1Y9o-21" value="" style="endArrow=none;html=1;rounded=0;strokeColor=#788AA3;fontColor=default;fillColor=#B2C9AB;exitX=0;exitY=1;exitDx=0;exitDy=0;labelBackgroundColor=none;" edge="1" parent="1" source="5CA3MVBMeVVRLOGD6PGF-67">
          <mxGeometry width="50" height="50" relative="1" as="geometry">
            <mxPoint x="700" y="1090" as="sourcePoint" />
            <mxPoint x="750" y="1040" as="targetPoint" />
          </mxGeometry>
        </mxCell>
        <mxCell id="FqeAiuCbrJ6pF6zf1Y9o-22" value="" style="endArrow=none;html=1;rounded=0;strokeColor=#788AA3;fontColor=default;fillColor=#B2C9AB;exitX=0.5;exitY=1;exitDx=0;exitDy=0;labelBackgroundColor=none;" edge="1" parent="1" source="5CA3MVBMeVVRLOGD6PGF-338">
          <mxGeometry width="50" height="50" relative="1" as="geometry">
            <mxPoint x="1360" y="1490" as="sourcePoint" />
            <mxPoint x="1410" y="1440" as="targetPoint" />
          </mxGeometry>
        </mxCell>
        <mxCell id="FqeAiuCbrJ6pF6zf1Y9o-24" value="" style="endArrow=none;html=1;rounded=0;strokeColor=#788AA3;fontColor=default;fillColor=#B2C9AB;exitX=0.663;exitY=0.147;exitDx=0;exitDy=0;exitPerimeter=0;labelBackgroundColor=none;" edge="1" parent="1" source="FqeAiuCbrJ6pF6zf1Y9o-6">
          <mxGeometry width="50" height="50" relative="1" as="geometry">
            <mxPoint x="450" y="1260" as="sourcePoint" />
            <mxPoint x="500" y="1210" as="targetPoint" />
          </mxGeometry>
        </mxCell>
        <mxCell id="FqeAiuCbrJ6pF6zf1Y9o-25" value="" style="endArrow=none;html=1;rounded=0;strokeColor=#788AA3;fontColor=default;fillColor=#B2C9AB;exitX=1;exitY=0.5;exitDx=0;exitDy=0;entryX=0.25;entryY=0.75;entryDx=0;entryDy=0;entryPerimeter=0;labelBackgroundColor=none;" edge="1" parent="1" source="FqeAiuCbrJ6pF6zf1Y9o-9" target="5CA3MVBMeVVRLOGD6PGF-338">
          <mxGeometry width="50" height="50" relative="1" as="geometry">
            <mxPoint x="430" y="1250" as="sourcePoint" />
            <mxPoint x="480" y="1200" as="targetPoint" />
          </mxGeometry>
        </mxCell>
        <mxCell id="FqeAiuCbrJ6pF6zf1Y9o-26" value="" style="endArrow=none;html=1;rounded=0;strokeColor=#788AA3;fontColor=default;fillColor=#B2C9AB;exitX=1;exitY=0.758;exitDx=0;exitDy=0;exitPerimeter=0;labelBackgroundColor=none;" edge="1" parent="1" source="FqeAiuCbrJ6pF6zf1Y9o-8">
          <mxGeometry width="50" height="50" relative="1" as="geometry">
            <mxPoint x="440" y="1210" as="sourcePoint" />
            <mxPoint x="490" y="1160" as="targetPoint" />
          </mxGeometry>
        </mxCell>
        <mxCell id="FqeAiuCbrJ6pF6zf1Y9o-30" value="&lt;font style=&quot;font-size: 19px;&quot;&gt;M&lt;/font&gt;" style="text;html=1;align=center;verticalAlign=middle;whiteSpace=wrap;rounded=0;fontColor=#46495D;labelBackgroundColor=none;" vertex="1" parent="1">
          <mxGeometry x="700" y="935" width="60" height="30" as="geometry" />
        </mxCell>
        <mxCell id="FqeAiuCbrJ6pF6zf1Y9o-32" value="" style="endArrow=none;html=1;rounded=0;strokeColor=#788AA3;fontColor=default;fillColor=#B2C9AB;entryX=0;entryY=0;entryDx=0;entryDy=0;labelBackgroundColor=none;" edge="1" parent="1" target="FqeAiuCbrJ6pF6zf1Y9o-20">
          <mxGeometry width="50" height="50" relative="1" as="geometry">
            <mxPoint x="690" y="970" as="sourcePoint" />
            <mxPoint x="630" y="930" as="targetPoint" />
          </mxGeometry>
        </mxCell>
        <mxCell id="FqeAiuCbrJ6pF6zf1Y9o-33" value="list_name" style="ellipse;whiteSpace=wrap;html=1;align=center;strokeColor=#788AA3;fontColor=#46495D;fillColor=#B2C9AB;labelBackgroundColor=none;" vertex="1" parent="1">
          <mxGeometry x="600" y="950" width="100" height="40" as="geometry" />
        </mxCell>
        <mxCell id="FqeAiuCbrJ6pF6zf1Y9o-34" value="list_id" style="ellipse;whiteSpace=wrap;html=1;align=center;fontStyle=4;strokeColor=#788AA3;fontColor=#46495D;fillColor=#B2C9AB;labelBackgroundColor=none;" vertex="1" parent="1">
          <mxGeometry x="610" y="1010" width="100" height="40" as="geometry" />
        </mxCell>
        <mxCell id="FqeAiuCbrJ6pF6zf1Y9o-35" value="" style="endArrow=none;html=1;rounded=0;strokeColor=#788AA3;fontColor=default;fillColor=#B2C9AB;exitX=0.811;exitY=0.837;exitDx=0;exitDy=0;exitPerimeter=0;labelBackgroundColor=none;" edge="1" parent="1" source="FqeAiuCbrJ6pF6zf1Y9o-34">
          <mxGeometry width="50" height="50" relative="1" as="geometry">
            <mxPoint x="690" y="1080" as="sourcePoint" />
            <mxPoint x="740" y="1030" as="targetPoint" />
          </mxGeometry>
        </mxCell>
        <mxCell id="GyAurw6fNxbYaxipTX5--1" value="" style="endArrow=none;html=1;rounded=0;labelBackgroundColor=none;strokeColor=#788AA3;fontColor=default;" edge="1" parent="1">
          <mxGeometry width="50" height="50" relative="1" as="geometry">
            <mxPoint x="1530" y="1690" as="sourcePoint" />
            <mxPoint x="1560" y="1680" as="targetPoint" />
          </mxGeometry>
        </mxCell>
        <mxCell id="GyAurw6fNxbYaxipTX5--2" value="" style="endArrow=none;html=1;rounded=0;labelBackgroundColor=none;strokeColor=#788AA3;fontColor=default;exitX=0.712;exitY=0.119;exitDx=0;exitDy=0;exitPerimeter=0;" edge="1" parent="1" source="GyAurw6fNxbYaxipTX5--3">
          <mxGeometry width="50" height="50" relative="1" as="geometry">
            <mxPoint x="1380" y="1700" as="sourcePoint" />
            <mxPoint x="1410" y="1670" as="targetPoint" />
          </mxGeometry>
        </mxCell>
        <mxCell id="GyAurw6fNxbYaxipTX5--3" value="category_id" style="ellipse;whiteSpace=wrap;html=1;align=center;fontStyle=4;labelBackgroundColor=none;fillColor=#B2C9AB;strokeColor=#788AA3;fontColor=#46495D;" vertex="1" parent="1">
          <mxGeometry x="1305" y="1700" width="100" height="40" as="geometry" />
        </mxCell>
        <mxCell id="GyAurw6fNxbYaxipTX5--4" value="category_name" style="ellipse;whiteSpace=wrap;html=1;align=center;labelBackgroundColor=none;fillColor=#B2C9AB;strokeColor=#788AA3;fontColor=#46495D;" vertex="1" parent="1">
          <mxGeometry x="1562" y="1660" width="100" height="40" as="geometry" />
        </mxCell>
      </root>
    </mxGraphModel>
  </diagram>
</mxfile>
